<?xml version="1.0" standalone="no"?>
<!DOCTYPE svg PUBLIC "-//W3C//DTD SVG 1.1//EN" "http://www.w3.org/Graphics/SVG/1.1/DTD/svg11.dtd" >
<svg>
<metadata>
Created by FontForge 20090914 at Thu Sep  3 15:32:02 2015
 By www-data
Copyright (c) 2006 by Department of Intellectual Property (DIP), Ministry of Commerce and Software Industry Promotion Agency (Public Organization) (SIPA). All rights reserved.
Created by : Suppakit CHALERMLARP.
</metadata>
<defs>
<font id="THSarabunPSK" horiz-adv-x="0" >
  <font-face 
    font-family="TH SarabunPSK"
    font-weight="400"
    font-stretch="normal"
    units-per-em="1000"
    panose-1="2 11 5 0 4 2 0 2 0 3"
    ascent="800"
    descent="-200"
    x-height="340"
    cap-height="476"
    bbox="-427.001 -421 947.001 835.998"
    underline-thickness="30"
    underline-position="-20"
    unicode-range="U+0020-U+FB02"
  />
<missing-glyph horiz-adv-x="692" 
d="M642 0h-592v809h592v-809zM612 28v753h-532v-753h532z" />
    <glyph glyph-name="Agrave" unicode="A&#x300;" horiz-adv-x="400" 
d="M400 0h-43l-55 153h-205l-54 -153h-43l180 483h40zM290 186l-90 254l-91 -254h181zM244 526h-31l-58 81l39 10z" />
    <glyph glyph-name="Aacute" unicode="A&#x301;" horiz-adv-x="400" 
d="M400 0h-43l-55 153h-205l-54 -153h-43l180 483h40zM290 186l-90 254l-91 -254h181zM186 526h-31l50 91l39 -10z" />
    <glyph glyph-name="Atilde" unicode="A&#x303;" horiz-adv-x="400" 
d="M400 0h-43l-55 153h-205l-54 -153h-43l180 483h40zM290 186l-90 254l-91 -254h181zM286 588c-1.33301 -40 -18 -60 -50 -60c-6.66699 0 -13.667 1.66699 -21 5s-14.5 7.16602 -21.5 11.499s-13.667 8.16602 -20 11.499s-11.833 5 -16.5 5c-5.33301 0 -10.333 -3 -15 -9
s-7.33398 -14.667 -8.00098 -26h-25c0.666992 20 5.5 35 14.5 45s20.5 15 34.5 15c7.33301 0 14.5 -1.66699 21.5 -5s14 -7.16602 21 -11.499s13.833 -8.16602 20.5 -11.499s13.334 -5 20.001 -5c11.333 0 18 11.667 20 35h25z" />
    <glyph glyph-name="Egrave" unicode="E&#x300;" horiz-adv-x="351" 
d="M313 0h-259v476h259v-33h-220v-175h196v-33h-196v-202h220v-33zM220 526h-31l-58 81l39 10z" />
    <glyph glyph-name="Eacute" unicode="E&#x301;" horiz-adv-x="351" 
d="M313 0h-259v476h259v-33h-220v-175h196v-33h-196v-202h220v-33zM162 526h-31l50 91l39 -10z" />
    <glyph glyph-name="Igrave" unicode="I&#x300;" horiz-adv-x="147" 
d="M93 0h-39v476h39v-476zM118 526h-31l-58 81l39 10z" />
    <glyph glyph-name="Iacute" unicode="I&#x301;" horiz-adv-x="147" 
d="M93 0h-39v476h39v-476zM60 526h-31l50 91l39 -10z" />
    <glyph glyph-name="Ograve" unicode="O&#x300;" horiz-adv-x="486" 
d="M464 237c0 -71.333 -20.5 -130.333 -61.5 -177s-94.167 -70 -159.5 -70s-118.5 23.333 -159.5 70s-61.5 105.667 -61.5 177s20.5 130.333 61.5 177s94.167 70 159.5 70s118.5 -23.333 159.5 -70s61.5 -105.667 61.5 -177zM425 237c0 58.667 -17 108.834 -51 150.501
s-77.667 62.5 -131 62.5s-97 -20.833 -131 -62.5s-51 -91.834 -51 -150.501s17 -108.834 51 -150.501s77.667 -62.5 131 -62.5s97 20.833 131 62.5s51 91.834 51 150.501zM287 526h-31l-58 81l39 10z" />
    <glyph glyph-name="Oacute" unicode="O&#x301;" horiz-adv-x="486" 
d="M464 237c0 -71.333 -20.5 -130.333 -61.5 -177s-94.167 -70 -159.5 -70s-118.5 23.333 -159.5 70s-61.5 105.667 -61.5 177s20.5 130.333 61.5 177s94.167 70 159.5 70s118.5 -23.333 159.5 -70s61.5 -105.667 61.5 -177zM425 237c0 58.667 -17 108.834 -51 150.501
s-77.667 62.5 -131 62.5s-97 -20.833 -131 -62.5s-51 -91.834 -51 -150.501s17 -108.834 51 -150.501s77.667 -62.5 131 -62.5s97 20.833 131 62.5s51 91.834 51 150.501zM229 526h-31l50 91l39 -10z" />
    <glyph glyph-name="Otilde" unicode="O&#x303;" horiz-adv-x="486" 
d="M464 237c0 -71.333 -20.5 -130.333 -61.5 -177s-94.167 -70 -159.5 -70s-118.5 23.333 -159.5 70s-61.5 105.667 -61.5 177s20.5 130.333 61.5 177s94.167 70 159.5 70s118.5 -23.333 159.5 -70s61.5 -105.667 61.5 -177zM425 237c0 58.667 -17 108.834 -51 150.501
s-77.667 62.5 -131 62.5s-97 -20.833 -131 -62.5s-51 -91.834 -51 -150.501s17 -108.834 51 -150.501s77.667 -62.5 131 -62.5s97 20.833 131 62.5s51 91.834 51 150.501zM329 588c-1.33301 -40 -18 -60 -50 -60c-6.66699 0 -13.667 1.66699 -21 5
s-14.5 7.16602 -21.5 11.499s-13.667 8.16602 -20 11.499s-11.833 5 -16.5 5c-5.33301 0 -10.333 -3 -15 -9s-7.33398 -14.667 -8.00098 -26h-25c0.666992 20 5.5 35 14.5 45s20.5 15 34.5 15c7.33301 0 14.5 -1.66699 21.5 -5s14 -7.16602 21 -11.499
s13.833 -8.16602 20.5 -11.499s13.334 -5 20.001 -5c11.333 0 18 11.667 20 35h25z" />
    <glyph glyph-name="Ugrave" unicode="U&#x300;" horiz-adv-x="466" 
d="M412 201c0 -140 -59.668 -210 -179.001 -210s-179 70 -179 210v275h39v-274c0 -62.667 12.833 -108 38.5 -136s59.5 -42 101.5 -42c42.667 0 76.834 14 102.501 42s38.167 73.333 37.5 136v274h39v-275zM259.999 526h-31l-58 81l39 10z" />
    <glyph glyph-name="Uacute" unicode="U&#x301;" horiz-adv-x="466" 
d="M412 201c0 -140 -59.668 -210 -179.001 -210s-179 70 -179 210v275h39v-274c0 -62.667 12.833 -108 38.5 -136s59.5 -42 101.5 -42c42.667 0 76.834 14 102.501 42s38.167 73.333 37.5 136v274h39v-275zM228.999 526h-31l50 91l39 -10z" />
    <glyph glyph-name="Yacute" unicode="Y&#x301;" horiz-adv-x="366" 
d="M366 476l-164 -266v-210h-38v209l-164 267h45l138 -233l138 233h45zM184 526h-31l50 91l39 -10z" />
    <glyph glyph-name="agrave" unicode="a&#x300;" horiz-adv-x="344" 
d="M304 0l-35.001 -7l-14 55c-30.667 -38 -71 -57 -121 -57c-29.333 0 -54.666 8.33301 -75.999 25s-32 39.667 -32 69c0 84.667 73.667 127 221 127h6v6c0 22 -5 41.333 -15 58c-15.333 26.667 -41.333 40 -78 40c-23.333 0 -59.333 -7.66699 -108 -23l-5 36
c37.333 12 76 18 116 18c86 0 129 -47.333 129 -142v-122c0 -28 4 -55.667 12 -83zM252.999 110v68.001c-124 0 -186 -28.667 -186 -86c0 -22 6.66699 -38.833 20 -50.5s30 -17.5 50 -17.5c52.667 0 89.667 22.333 111 67c3.33301 7.33301 5 13.666 5 18.999z
M215.999 390.001h-31l-58 81l39 10z" />
    <glyph glyph-name="aacute" unicode="a&#x301;" horiz-adv-x="344" 
d="M304 0l-35.001 -7l-14 55c-30.667 -38 -71 -57 -121 -57c-29.333 0 -54.666 8.33301 -75.999 25s-32 39.667 -32 69c0 84.667 73.667 127 221 127h6v6c0 22 -5 41.333 -15 58c-15.333 26.667 -41.333 40 -78 40c-23.333 0 -59.333 -7.66699 -108 -23l-5 36
c37.333 12 76 18 116 18c86 0 129 -47.333 129 -142v-122c0 -28 4 -55.667 12 -83zM252.999 110v68.001c-124 0 -186 -28.667 -186 -86c0 -22 6.66699 -38.833 20 -50.5s30 -17.5 50 -17.5c52.667 0 89.667 22.333 111 67c3.33301 7.33301 5 13.666 5 18.999z
M157.999 390.001h-31l50 91l39 -10z" />
    <glyph glyph-name="atilde" unicode="a&#x303;" horiz-adv-x="344" 
d="M304 0l-35.001 -7l-14 55c-30.667 -38 -71 -57 -121 -57c-29.333 0 -54.666 8.33301 -75.999 25s-32 39.667 -32 69c0 84.667 73.667 127 221 127h6v6c0 22 -5 41.333 -15 58c-15.333 26.667 -41.333 40 -78 40c-23.333 0 -59.333 -7.66699 -108 -23l-5 36
c37.333 12 76 18 116 18c86 0 129 -47.333 129 -142v-122c0 -28 4 -55.667 12 -83zM252.999 110v68.001c-124 0 -186 -28.667 -186 -86c0 -22 6.66699 -38.833 20 -50.5s30 -17.5 50 -17.5c52.667 0 89.667 22.333 111 67c3.33301 7.33301 5 13.666 5 18.999z
M257.999 452.001c-1.33301 -40 -18 -60 -50 -60c-6.66699 0 -13.667 1.66699 -21 5s-14.5 7.16602 -21.5 11.499s-13.667 8.16602 -20 11.499s-11.833 5 -16.5 5c-5.33301 0 -10.333 -3 -15 -9s-7.33398 -14.667 -8.00098 -26h-25c0.666992 20 5.5 35 14.5 45
s20.5 15 34.5 15c7.33301 0 14.5 -1.66699 21.5 -5s14 -7.16602 21 -11.499s13.833 -8.16602 20.5 -11.499s13.334 -5 20.001 -5c11.333 0 18 11.667 20 35h25z" />
    <glyph glyph-name="egrave" unicode="e&#x300;" horiz-adv-x="374" 
d="M324 48l2.99902 -33c-38.667 -16 -80.667 -24 -126 -24c-52 0 -94 16 -126 48s-48 72.667 -48 122c0 56 16 101 48 135s72.667 51 122 51c95.333 0 144 -59.667 146 -179h-278c1.33301 -45.333 14.833 -80.5 40.5 -105.5s58.834 -37.5 99.501 -37.5
c40 0 79.667 7.66699 119 23zM305.999 199c-0.666992 27.333 -8.33203 51.667 -22.999 73c-20 29.333 -50.333 44 -91 44c-36.667 0 -66.667 -13.333 -90 -40c-18.667 -21.333 -30.334 -47 -35.001 -77h239zM231.001 390.001h-31l-58 81l39 10z" />
    <glyph glyph-name="eacute" unicode="e&#x301;" horiz-adv-x="374" 
d="M324 48l2.99902 -33c-38.667 -16 -80.667 -24 -126 -24c-52 0 -94 16 -126 48s-48 72.667 -48 122c0 56 16 101 48 135s72.667 51 122 51c95.333 0 144 -59.667 146 -179h-278c1.33301 -45.333 14.833 -80.5 40.5 -105.5s58.834 -37.5 99.501 -37.5
c40 0 79.667 7.66699 119 23zM305.999 199c-0.666992 27.333 -8.33203 51.667 -22.999 73c-20 29.333 -50.333 44 -91 44c-36.667 0 -66.667 -13.333 -90 -40c-18.667 -21.333 -30.334 -47 -35.001 -77h239zM173.001 390.001h-31l50 91l39 -10z" />
    <glyph glyph-name="igrave" unicode="i&#x300;" horiz-adv-x="143" 
d="M90 0h-38v340h38v-340zM116 390h-31l-58 81l39 10z" />
    <glyph glyph-name="iacute" unicode="i&#x301;" horiz-adv-x="143" 
d="M90 0h-38v340h38v-340zM58 390h-31l50 91l39 -10z" />
    <glyph glyph-name="ograve" unicode="o&#x300;" horiz-adv-x="398" 
d="M370 169c0 -50 -15.667 -92.333 -47 -127s-72.666 -52 -123.999 -52s-92.666 17.333 -123.999 52s-47 77 -47 127s15.667 92.167 47 126.5s72.666 51.5 123.999 51.5s92.666 -17.167 123.999 -51.5s47 -76.5 47 -126.5zM332 169c0 41.333 -12.5 75.833 -37.5 103.5
s-56.833 41.5 -95.5 41.5s-70.5 -13.833 -95.5 -41.5s-37.5 -62.167 -37.5 -103.5s12.5 -76 37.5 -104s56.833 -42 95.5 -42s70.5 14 95.5 42s37.5 62.667 37.5 104zM243 390h-31l-58 81l39 10z" />
    <glyph glyph-name="oacute" unicode="o&#x301;" horiz-adv-x="398" 
d="M370 169c0 -50 -15.667 -92.333 -47 -127s-72.666 -52 -123.999 -52s-92.666 17.333 -123.999 52s-47 77 -47 127s15.667 92.167 47 126.5s72.666 51.5 123.999 51.5s92.666 -17.167 123.999 -51.5s47 -76.5 47 -126.5zM332 169c0 41.333 -12.5 75.833 -37.5 103.5
s-56.833 41.5 -95.5 41.5s-70.5 -13.833 -95.5 -41.5s-37.5 -62.167 -37.5 -103.5s12.5 -76 37.5 -104s56.833 -42 95.5 -42s70.5 14 95.5 42s37.5 62.667 37.5 104zM185 390h-31l50 91l39 -10z" />
    <glyph glyph-name="otilde" unicode="o&#x303;" horiz-adv-x="398" 
d="M370 169c0 -50 -15.667 -92.333 -47 -127s-72.666 -52 -123.999 -52s-92.666 17.333 -123.999 52s-47 77 -47 127s15.667 92.167 47 126.5s72.666 51.5 123.999 51.5s92.666 -17.167 123.999 -51.5s47 -76.5 47 -126.5zM332 169c0 41.333 -12.5 75.833 -37.5 103.5
s-56.833 41.5 -95.5 41.5s-70.5 -13.833 -95.5 -41.5s-37.5 -62.167 -37.5 -103.5s12.5 -76 37.5 -104s56.833 -42 95.5 -42s70.5 14 95.5 42s37.5 62.667 37.5 104zM285 452c-1.33301 -40 -18 -60 -50 -60c-6.66699 0 -13.667 1.66699 -21 5s-14.5 7.16602 -21.5 11.499
s-13.667 8.16602 -20 11.499s-11.833 5 -16.5 5c-5.33301 0 -10.333 -3 -15 -9s-7.33398 -14.667 -8.00098 -26h-25c0.666992 20 5.5 35 14.5 45s20.5 15 34.5 15c7.33301 0 14.5 -1.66699 21.5 -5s14 -7.16602 21 -11.499s13.833 -8.16602 20.5 -11.499
s13.334 -5 20.001 -5c11.333 0 18 11.667 20 35h25z" />
    <glyph glyph-name="ugrave" unicode="u&#x300;" horiz-adv-x="390" 
d="M355 1l-37 -8c-8 22.667 -13.333 44.667 -16 66c-29.333 -45.333 -72 -68 -128 -68c-81.333 0 -122 52.667 -122 158v191h39v-184c0 -87.333 30.667 -131 92 -131c28.667 0 54.667 9.33301 78 28c25.333 21.333 38 48.333 38 81v206h39v-257
c0 -24.667 5.66699 -52 17 -82zM239 390h-31l-58 81l39 10z" />
    <glyph glyph-name="uacute" unicode="u&#x301;" horiz-adv-x="390" 
d="M355 1l-37 -8c-8 22.667 -13.333 44.667 -16 66c-29.333 -45.333 -72 -68 -128 -68c-81.333 0 -122 52.667 -122 158v191h39v-184c0 -87.333 30.667 -131 92 -131c28.667 0 54.667 9.33301 78 28c25.333 21.333 38 48.333 38 81v206h39v-257
c0 -24.667 5.66699 -52 17 -82zM181 390h-31l50 91l39 -10z" />
    <glyph glyph-name="yacute" unicode="y&#x301;" horiz-adv-x="337" 
d="M184 0c-39.333 -88.667 -91.667 -140.667 -157 -156l-9 31c56.667 12.667 99.667 58 129 136c0 2 -1 6 -3 12l-141 317h42l127 -288l119 288h43zM154.999 390h-31l50 91l39 -10z" />
    <glyph glyph-name="Itilde" unicode="I&#x303;" horiz-adv-x="147" 
d="M93 0h-39v476h39v-476zM160 588c-1.33301 -40 -18 -60 -50 -60c-6.66699 0 -13.667 1.66699 -21 5s-14.5 7.16602 -21.5 11.499s-13.667 8.16602 -20 11.499s-11.833 5 -16.5 5c-5.33301 0 -10.333 -3 -15 -9s-7.33398 -14.667 -8.00098 -26h-25
c0.666992 20 5.5 35 14.5 45s20.5 15 34.5 15c7.33301 0 14.5 -1.66699 21.5 -5s14 -7.16602 21 -11.499s13.833 -8.16602 20.5 -11.499s13.334 -5 20.001 -5c11.333 0 18 11.667 20 35h25z" />
    <glyph glyph-name="itilde" unicode="i&#x303;" horiz-adv-x="143" 
d="M90 0h-38v340h38v-340zM158 452c-1.33301 -40 -18 -60 -50 -60c-6.66699 0 -13.667 1.66699 -21 5s-14.5 7.16602 -21.5 11.499s-13.667 8.16602 -20 11.499s-11.833 5 -16.5 5c-5.33301 0 -10.333 -3 -15 -9s-7.33398 -14.667 -8.00098 -26h-25
c0.666992 20 5.5 35 14.5 45s20.5 15 34.5 15c7.33301 0 14.5 -1.66699 21.5 -5s14 -7.16602 21 -11.499s13.833 -8.16602 20.5 -11.499s13.334 -5 20.001 -5c11.333 0 18 11.667 20 35h25z" />
    <glyph glyph-name="Utilde" unicode="U&#x303;" horiz-adv-x="476" 
d="M417 201c0 -140 -59.668 -210 -179.001 -210s-179 70 -179 210v275h39v-274c0 -62.667 12.833 -108 38.5 -136s59.5 -42 101.5 -42c42.667 0 76.834 14 102.501 42s38.167 73.333 37.5 136v274h39v-275zM323.999 588c-1.33301 -40 -18 -60 -50 -60
c-6.66699 0 -13.667 1.66699 -21 5s-14.5 7.16602 -21.5 11.499s-13.667 8.16602 -20 11.499s-11.833 5 -16.5 5c-5.33301 0 -10.333 -3 -15 -9s-7.33398 -14.667 -8.00098 -26h-25c0.666992 20 5.5 35 14.5 45s20.5 15 34.5 15c7.33301 0 14.5 -1.66699 21.5 -5
s14 -7.16602 21 -11.499s13.833 -8.16602 20.5 -11.499s13.334 -5 20.001 -5c11.333 0 18 11.667 20 35h25z" />
    <glyph glyph-name="utilde" unicode="u&#x303;" horiz-adv-x="405" 
d="M355 1l-37 -8c-8 22.667 -13.333 44.667 -16 66c-29.333 -45.333 -72 -68 -128 -68c-81.333 0 -122 52.667 -122 158v191h39v-184c0 -87.333 30.667 -131 92 -131c28.667 0 54.667 9.33301 78 28c25.333 21.333 38 48.333 38 81v206h39v-257
c0 -24.667 5.66699 -52 17 -82zM288 452c-1.33301 -40 -18 -60 -50 -60c-6.66699 0 -13.667 1.66699 -21 5s-14.5 7.16602 -21.5 11.499s-13.667 8.16602 -20 11.499s-11.833 5 -16.5 5c-5.33301 0 -10.333 -3 -15 -9s-7.33398 -14.667 -8.00098 -26h-25
c0.666992 20 5.5 35 14.5 45s20.5 15 34.5 15c7.33301 0 14.5 -1.66699 21.5 -5s14 -7.16602 21 -11.499s13.833 -8.16602 20.5 -11.499s13.334 -5 20.001 -5c11.333 0 18 11.667 20 35h25z" />
    <glyph glyph-name="uni1EA0" unicode="A&#x323;" horiz-adv-x="400" 
d="M400 0h-43l-55 153h-205l-54 -153h-43l180 483h40zM290 186l-90 254l-91 -254h181zM229 -77c0 -8 -2.66699 -14.833 -8 -20.5s-12.333 -8.5 -21 -8.5c-8 0 -14.833 2.83301 -20.5 8.5s-8.5 12.5 -8.5 20.5c0 6.66699 2.83301 13 8.5 19s12.5 9 20.5 9
c8.66699 0 15.667 -3 21 -9s8 -12.333 8 -19z" />
    <glyph glyph-name="uni1EA1" unicode="a&#x323;" horiz-adv-x="344" 
d="M304 0l-35.001 -7l-14 55c-30.667 -38 -71 -57 -121 -57c-29.333 0 -54.666 8.33301 -75.999 25s-32 39.667 -32 69c0 84.667 73.667 127 221 127h6v6c0 22 -5 41.333 -15 58c-15.333 26.667 -41.333 40 -78 40c-23.333 0 -59.333 -7.66699 -108 -23l-5 36
c37.333 12 76 18 116 18c86 0 129 -47.333 129 -142v-122c0 -28 4 -55.667 12 -83zM252.999 110v68.001c-124 0 -186 -28.667 -186 -86c0 -22 6.66699 -38.833 20 -50.5s30 -17.5 50 -17.5c52.667 0 89.667 22.333 111 67c3.33301 7.33301 5 13.666 5 18.999z
M200.999 -76.999c0 -8 -2.66699 -14.833 -8 -20.5s-12.333 -8.5 -21 -8.5c-8 0 -14.833 2.83301 -20.5 8.5s-8.5 12.5 -8.5 20.5c0 6.66699 2.83301 13 8.5 19s12.5 9 20.5 9c8.66699 0 15.667 -3 21 -9s8 -12.333 8 -19z" />
    <glyph glyph-name="uni1EA2" unicode="A&#x309;" horiz-adv-x="400" 
d="M400 0h-43l-55 153h-205l-54 -153h-43l180 483h40zM290 186l-90 254l-91 -254h181zM272 607c0 -20.667 -9.33301 -38.332 -28 -52.999s-28 -26 -28 -34h-31c0.666992 17.333 10.167 32.666 28.5 45.999s27.5 27 27.5 41c0 9.33301 -3.16699 16.5 -9.5 21.5
s-14.833 7.5 -25.5 7.5c-17.333 0 -32.333 -9.33301 -45 -28l-19 15c14.667 26.667 37.667 40 69 40c18 0 32.667 -4.83301 44 -14.5s17 -23.5 17 -41.5z" />
    <glyph glyph-name="uni1EA3" unicode="a&#x309;" horiz-adv-x="344" 
d="M304 0l-35.001 -7l-14 55c-30.667 -38 -71 -57 -121 -57c-29.333 0 -54.666 8.33301 -75.999 25s-32 39.667 -32 69c0 84.667 73.667 127 221 127h6v6c0 22 -5 41.333 -15 58c-15.333 26.667 -41.333 40 -78 40c-23.333 0 -59.333 -7.66699 -108 -23l-5 36
c37.333 12 76 18 116 18c86 0 129 -47.333 129 -142v-122c0 -28 4 -55.667 12 -83zM252.999 110v68.001c-124 0 -186 -28.667 -186 -86c0 -22 6.66699 -38.833 20 -50.5s30 -17.5 50 -17.5c52.667 0 89.667 22.333 111 67c3.33301 7.33301 5 13.666 5 18.999z
M230.896 461.912c0 -18.6006 -8.39746 -34.5029 -25.1973 -47.7031c-16.8008 -13.2002 -25.2012 -23.4004 -25.2012 -30.6006h-27.9004c0.599609 15.6006 9.14941 29.4014 25.6504 41.4023c16.501 12 24.751 24.2998 24.751 36.9004
c0 8.40039 -2.85059 14.8506 -8.55078 19.3506s-13.3506 6.75 -22.9512 6.75c-15.6006 0 -29.1006 -8.40039 -40.501 -25.2002l-17.1006 13.5c13.2002 24.001 33.9004 36.001 62.1006 36.001c16.2002 0 29.4004 -4.34961 39.6006 -13.0498
s15.2998 -21.1504 15.2998 -37.3506z" />
    <glyph glyph-name="uni1EA4" unicode="&#xc2;&#x301;" horiz-adv-x="400" 
d="M400 0h-43l-55 153h-205l-54 -153h-43l180 483h40zM290 186l-90 254l-91 -254h181zM214 606l69 -78h-37l-46 52l-46 -52h-37l69 78h28zM309.396 580.01h-27.9004l45.001 81.9023l35.1016 -9.00098z" />
    <glyph glyph-name="uni1EA5" unicode="&#xe2;&#x301;" horiz-adv-x="344" 
d="M304 0l-35.001 -7l-14 55c-30.667 -38 -71 -57 -121 -57c-29.333 0 -54.666 8.33301 -75.999 25s-32 39.667 -32 69c0 84.667 73.667 127 221 127h6v6c0 22 -5 41.333 -15 58c-15.333 26.667 -41.333 40 -78 40c-23.333 0 -59.333 -7.66699 -108 -23l-5 36
c37.333 12 76 18 116 18c86 0 129 -47.333 129 -142v-122c0 -28 4 -55.667 12 -83zM252.999 110v68.001c-124 0 -186 -28.667 -186 -86c0 -22 6.66699 -38.833 20 -50.5s30 -17.5 50 -17.5c52.667 0 89.667 22.333 111 67c3.33301 7.33301 5 13.666 5 18.999z
M185.999 470.001l69 -78h-37l-46 52l-46 -52h-37l69 78h28zM269.396 446.011h-27.9004l45.001 81.9023l35.1016 -9.00098z" />
    <glyph glyph-name="uni1EA6" unicode="&#xc2;&#x300;" horiz-adv-x="400" 
d="M400 0h-43l-55 153h-205l-54 -153h-43l180 483h40zM290 186l-90 254l-91 -254h181zM214 606l69 -78h-37l-46 52l-46 -52h-37l69 78h28zM331.599 580.01h-27.9004l-52.2021 72.9014l35.1016 9.00098z" />
    <glyph glyph-name="uni1EA7" unicode="&#xe2;&#x300;" horiz-adv-x="344" 
d="M304 0l-35.001 -7l-14 55c-30.667 -38 -71 -57 -121 -57c-29.333 0 -54.666 8.33301 -75.999 25s-32 39.667 -32 69c0 84.667 73.667 127 221 127h6v6c0 22 -5 41.333 -15 58c-15.333 26.667 -41.333 40 -78 40c-23.333 0 -59.333 -7.66699 -108 -23l-5 36
c37.333 12 76 18 116 18c86 0 129 -47.333 129 -142v-122c0 -28 4 -55.667 12 -83zM252.999 110v68.001c-124 0 -186 -28.667 -186 -86c0 -22 6.66699 -38.833 20 -50.5s30 -17.5 50 -17.5c52.667 0 89.667 22.333 111 67c3.33301 7.33301 5 13.666 5 18.999z
M185.999 470.001l69 -78h-37l-46 52l-46 -52h-37l69 78h28zM296.598 446.011h-27.9004l-52.2021 72.9014l35.1016 9.00098z" />
    <glyph glyph-name="uni1EA8" unicode="&#xc2;&#x309;" horiz-adv-x="400" 
d="M400 0h-43l-55 153h-205l-54 -153h-43l180 483h40zM290 186l-90 254l-91 -254h181zM214 606l69 -78h-37l-46 52l-46 -52h-37l69 78h28zM369.897 655.911c0 -18.6006 -8.39746 -34.5029 -25.1973 -47.7031c-16.8008 -13.2002 -25.2012 -23.4004 -25.2012 -30.6006
h-27.9004c0.599609 15.6006 9.14941 29.4014 25.6504 41.4023c16.501 12 24.751 24.2998 24.751 36.9004c0 8.40039 -2.85059 14.8506 -8.55078 19.3506s-13.3506 6.75 -22.9512 6.75c-15.6006 0 -29.1006 -8.40039 -40.501 -25.2002l-17.1006 13.5
c13.2002 24.001 33.9004 36.001 62.1006 36.001c16.2002 0 29.4004 -4.34961 39.6006 -13.0498s15.2998 -21.1504 15.2998 -37.3506z" />
    <glyph glyph-name="uni1EA9" unicode="&#xe2;&#x309;" horiz-adv-x="344" 
d="M304 0l-35.001 -7l-14 55c-30.667 -38 -71 -57 -121 -57c-29.333 0 -54.666 8.33301 -75.999 25s-32 39.667 -32 69c0 84.667 73.667 127 221 127h6v6c0 22 -5 41.333 -15 58c-15.333 26.667 -41.333 40 -78 40c-23.333 0 -59.333 -7.66699 -108 -23l-5 36
c37.333 12 76 18 116 18c86 0 129 -47.333 129 -142v-122c0 -28 4 -55.667 12 -83zM252.999 110v68.001c-124 0 -186 -28.667 -186 -86c0 -22 6.66699 -38.833 20 -50.5s30 -17.5 50 -17.5c52.667 0 89.667 22.333 111 67c3.33301 7.33301 5 13.666 5 18.999z
M185.999 470.001l69 -78h-37l-46 52l-46 -52h-37l69 78h28zM324.896 533.912c0 -18.6006 -8.39746 -34.5029 -25.1973 -47.7031c-16.8008 -13.2002 -25.2012 -23.4004 -25.2012 -30.6006h-27.9004c0.599609 15.6006 9.14941 29.4014 25.6504 41.4023
c16.501 12 24.751 24.2998 24.751 36.9004c0 8.40039 -2.85059 14.8506 -8.55078 19.3506s-13.3506 6.75 -22.9512 6.75c-15.6006 0 -29.1006 -8.40039 -40.501 -25.2002l-17.1006 13.5c13.2002 24.001 33.9004 36.001 62.1006 36.001
c16.2002 0 29.4004 -4.34961 39.6006 -13.0498s15.2998 -21.1504 15.2998 -37.3506z" />
    <glyph glyph-name="uni1EAA" unicode="&#xc2;&#x303;" horiz-adv-x="400" 
d="M400 0h-43l-55 153h-205l-54 -153h-43l180 483h40zM290 186l-90 254l-91 -254h181zM214 606l69 -78h-37l-46 52l-46 -52h-37l69 78h28zM288 694c-1.33301 -40 -18 -60 -50 -60c-6.66699 0 -13.667 1.66699 -21 5s-14.5 7.16602 -21.5 11.499s-13.667 8.16602 -20 11.499
s-11.833 5 -16.5 5c-5.33301 0 -10.333 -3 -15 -9s-7.33398 -14.667 -8.00098 -26h-25c0.666992 20 5.5 35 14.5 45s20.5 15 34.5 15c7.33301 0 14.5 -1.66699 21.5 -5s14 -7.16602 21 -11.499s13.833 -8.16602 20.5 -11.499s13.334 -5 20.001 -5c11.333 0 18 11.667 20 35
h25z" />
    <glyph glyph-name="uni1EAB" unicode="&#xe2;&#x303;" horiz-adv-x="344" 
d="M304 0l-35.001 -7l-14 55c-30.667 -38 -71 -57 -121 -57c-29.333 0 -54.666 8.33301 -75.999 25s-32 39.667 -32 69c0 84.667 73.667 127 221 127h6v6c0 22 -5 41.333 -15 58c-15.333 26.667 -41.333 40 -78 40c-23.333 0 -59.333 -7.66699 -108 -23l-5 36
c37.333 12 76 18 116 18c86 0 129 -47.333 129 -142v-122c0 -28 4 -55.667 12 -83zM252.999 110v68.001c-124 0 -186 -28.667 -186 -86c0 -22 6.66699 -38.833 20 -50.5s30 -17.5 50 -17.5c52.667 0 89.667 22.333 111 67c3.33301 7.33301 5 13.666 5 18.999z
M185.999 470.001l69 -78h-37l-46 52l-46 -52h-37l69 78h28zM259.999 557.001c-1.33301 -40 -18 -60 -50 -60c-6.66699 0 -13.667 1.66699 -21 5s-14.5 7.16602 -21.5 11.499s-13.667 8.16602 -20 11.499s-11.833 5 -16.5 5c-5.33301 0 -10.333 -3 -15 -9
s-7.33398 -14.667 -8.00098 -26h-25c0.666992 20 5.5 35 14.5 45s20.5 15 34.5 15c7.33301 0 14.5 -1.66699 21.5 -5s14 -7.16602 21 -11.499s13.833 -8.16602 20.5 -11.499s13.334 -5 20.001 -5c11.333 0 18 11.667 20 35h25z" />
    <glyph glyph-name="uni1EAC" unicode="&#xc2;&#x323;" horiz-adv-x="400" 
d="M400 0h-43l-55 153h-205l-54 -153h-43l180 483h40zM290 186l-90 254l-91 -254h181zM229 -77c0 -8 -2.66699 -14.833 -8 -20.5s-12.333 -8.5 -21 -8.5c-8 0 -14.833 2.83301 -20.5 8.5s-8.5 12.5 -8.5 20.5c0 6.66699 2.83301 13 8.5 19s12.5 9 20.5 9
c8.66699 0 15.667 -3 21 -9s8 -12.333 8 -19zM214 606l69 -78h-37l-46 52l-46 -52h-37l69 78h28z" />
    <glyph glyph-name="uni1EAD" unicode="&#xe2;&#x323;" horiz-adv-x="344" 
d="M304 0l-35.001 -7l-14 55c-30.667 -38 -71 -57 -121 -57c-29.333 0 -54.666 8.33301 -75.999 25s-32 39.667 -32 69c0 84.667 73.667 127 221 127h6v6c0 22 -5 41.333 -15 58c-15.333 26.667 -41.333 40 -78 40c-23.333 0 -59.333 -7.66699 -108 -23l-5 36
c37.333 12 76 18 116 18c86 0 129 -47.333 129 -142v-122c0 -28 4 -55.667 12 -83zM252.999 110v68.001c-124 0 -186 -28.667 -186 -86c0 -22 6.66699 -38.833 20 -50.5s30 -17.5 50 -17.5c52.667 0 89.667 22.333 111 67c3.33301 7.33301 5 13.666 5 18.999z
M200.999 -76.999c0 -8 -2.66699 -14.833 -8 -20.5s-12.333 -8.5 -21 -8.5c-8 0 -14.833 2.83301 -20.5 8.5s-8.5 12.5 -8.5 20.5c0 6.66699 2.83301 13 8.5 19s12.5 9 20.5 9c8.66699 0 15.667 -3 21 -9s8 -12.333 8 -19zM185.999 470.001l69 -78h-37l-46 52l-46 -52h-37
l69 78h28z" />
    <glyph glyph-name="uni1EAE" unicode="&#x102;&#x301;" horiz-adv-x="400" 
d="M400 0h-43l-55 153h-205l-54 -153h-43l180 483h40zM290 186l-90 254l-91 -254h181zM289 589c-3.33301 -18 -11.335 -32.667 -24.002 -44c-17.333 -16 -39 -24 -65 -24s-48 8 -66 24c-12 11.333 -20 26 -24 44h35c2.66699 -7.33301 6.33398 -13.666 11.001 -18.999
c10.667 -12 25.334 -18 44.001 -18s33 6 43 18c5.33301 5.33301 9.33301 11.666 12 18.999h34zM206.395 598.01h-27.9004l45.001 81.9023l35.1016 -9.00098z" />
    <glyph glyph-name="uni1EAF" unicode="&#x103;&#x301;" horiz-adv-x="344" 
d="M304 0l-35.001 -7l-14 55c-30.667 -38 -71 -57 -121 -57c-29.333 0 -54.666 8.33301 -75.999 25s-32 39.667 -32 69c0 84.667 73.667 127 221 127h6v6c0 22 -5 41.333 -15 58c-15.333 26.667 -41.333 40 -78 40c-23.333 0 -59.333 -7.66699 -108 -23l-5 36
c37.333 12 76 18 116 18c86 0 129 -47.333 129 -142v-122c0 -28 4 -55.667 12 -83zM252.999 110v68.001c-124 0 -186 -28.667 -186 -86c0 -22 6.66699 -38.833 20 -50.5s30 -17.5 50 -17.5c52.667 0 89.667 22.333 111 67c3.33301 7.33301 5 13.666 5 18.999z
M260.999 453.001c-3.33301 -18 -11.335 -32.667 -24.002 -44c-17.333 -16 -39 -24 -65 -24s-48 8 -66 24c-12 11.333 -20 26 -24 44h35c2.66699 -7.33301 6.33398 -13.666 11.001 -18.999c10.667 -12 25.334 -18 44.001 -18s33 6 43 18
c5.33301 5.33301 9.33301 11.666 12 18.999h34zM179.394 465.011h-27.9004l45.001 81.9023l35.1016 -9.00098z" />
    <glyph glyph-name="uni1EB0" unicode="&#x102;&#x300;" horiz-adv-x="400" 
d="M400 0h-43l-55 153h-205l-54 -153h-43l180 483h40zM290 186l-90 254l-91 -254h181zM289 589c-3.33301 -18 -11.335 -32.667 -24.002 -44c-17.333 -16 -39 -24 -65 -24s-48 8 -66 24c-12 11.333 -20 26 -24 44h35c2.66699 -7.33301 6.33398 -13.666 11.001 -18.999
c10.667 -12 25.334 -18 44.001 -18s33 6 43 18c5.33301 5.33301 9.33301 11.666 12 18.999h34zM220.597 600.01h-27.9004l-52.2021 72.9014l35.1016 9.00098z" />
    <glyph glyph-name="uni1EB1" unicode="&#x103;&#x300;" horiz-adv-x="344" 
d="M304 0l-35.001 -7l-14 55c-30.667 -38 -71 -57 -121 -57c-29.333 0 -54.666 8.33301 -75.999 25s-32 39.667 -32 69c0 84.667 73.667 127 221 127h6v6c0 22 -5 41.333 -15 58c-15.333 26.667 -41.333 40 -78 40c-23.333 0 -59.333 -7.66699 -108 -23l-5 36
c37.333 12 76 18 116 18c86 0 129 -47.333 129 -142v-122c0 -28 4 -55.667 12 -83zM252.999 110v68.001c-124 0 -186 -28.667 -186 -86c0 -22 6.66699 -38.833 20 -50.5s30 -17.5 50 -17.5c52.667 0 89.667 22.333 111 67c3.33301 7.33301 5 13.666 5 18.999z
M260.999 453.001c-3.33301 -18 -11.335 -32.667 -24.002 -44c-17.333 -16 -39 -24 -65 -24s-48 8 -66 24c-12 11.333 -20 26 -24 44h35c2.66699 -7.33301 6.33398 -13.666 11.001 -18.999c10.667 -12 25.334 -18 44.001 -18s33 6 43 18
c5.33301 5.33301 9.33301 11.666 12 18.999h34zM192.596 464.011h-27.9004l-52.2021 72.9014l35.1016 9.00098z" />
    <glyph glyph-name="uni1EB2" unicode="&#x102;&#x309;" horiz-adv-x="400" 
d="M400 0h-43l-55 153h-205l-54 -153h-43l180 483h40zM290 186l-90 254l-91 -254h181zM289 589c-3.33301 -18 -11.335 -32.667 -24.002 -44c-17.333 -16 -39 -24 -65 -24s-48 8 -66 24c-12 11.333 -20 26 -24 44h35c2.66699 -7.33301 6.33398 -13.666 11.001 -18.999
c10.667 -12 25.334 -18 44.001 -18s33 6 43 18c5.33301 5.33301 9.33301 11.666 12 18.999h34zM258.896 678.911c0 -18.6006 -8.39746 -34.5029 -25.1973 -47.7031c-16.8008 -13.2002 -25.2012 -23.4004 -25.2012 -30.6006h-27.9004
c0.599609 15.6006 9.14941 29.4014 25.6504 41.4023c16.501 12 24.751 24.2998 24.751 36.9004c0 8.40039 -2.85059 14.8506 -8.55078 19.3506s-13.3506 6.75 -22.9512 6.75c-15.6006 0 -29.1006 -8.40039 -40.501 -25.2002l-17.1006 13.5
c13.2002 24.001 33.9004 36.001 62.1006 36.001c16.2002 0 29.4004 -4.34961 39.6006 -13.0498s15.2998 -21.1504 15.2998 -37.3506z" />
    <glyph glyph-name="uni1EB3" unicode="&#x103;&#x309;" horiz-adv-x="344" 
d="M304 0l-35.001 -7l-14 55c-30.667 -38 -71 -57 -121 -57c-29.333 0 -54.666 8.33301 -75.999 25s-32 39.667 -32 69c0 84.667 73.667 127 221 127h6v6c0 22 -5 41.333 -15 58c-15.333 26.667 -41.333 40 -78 40c-23.333 0 -59.333 -7.66699 -108 -23l-5 36
c37.333 12 76 18 116 18c86 0 129 -47.333 129 -142v-122c0 -28 4 -55.667 12 -83zM252.999 110v68.001c-124 0 -186 -28.667 -186 -86c0 -22 6.66699 -38.833 20 -50.5s30 -17.5 50 -17.5c52.667 0 89.667 22.333 111 67c3.33301 7.33301 5 13.666 5 18.999z
M260.999 453.001c-3.33301 -18 -11.335 -32.667 -24.002 -44c-17.333 -16 -39 -24 -65 -24s-48 8 -66 24c-12 11.333 -20 26 -24 44h35c2.66699 -7.33301 6.33398 -13.666 11.001 -18.999c10.667 -12 25.334 -18 44.001 -18s33 6 43 18
c5.33301 5.33301 9.33301 11.666 12 18.999h34zM231.895 545.912c0 -18.6006 -8.39746 -34.5029 -25.1973 -47.7031c-16.8008 -13.2002 -25.2012 -23.4004 -25.2012 -30.6006h-27.9004c0.599609 15.6006 9.14941 29.4014 25.6504 41.4023
c16.501 12 24.751 24.2998 24.751 36.9004c0 8.40039 -2.85059 14.8506 -8.55078 19.3506s-13.3506 6.75 -22.9512 6.75c-15.6006 0 -29.1006 -8.40039 -40.501 -25.2002l-17.1006 13.5c13.2002 24.001 33.9004 36.001 62.1006 36.001
c16.2002 0 29.4004 -4.34961 39.6006 -13.0498s15.2998 -21.1504 15.2998 -37.3506z" />
    <glyph glyph-name="uni1EB4" unicode="&#x102;&#x303;" horiz-adv-x="400" 
d="M400 0h-43l-55 153h-205l-54 -153h-43l180 483h40zM290 186l-90 254l-91 -254h181zM289 589c-3.33301 -18 -11.335 -32.667 -24.002 -44c-17.333 -16 -39 -24 -65 -24s-48 8 -66 24c-12 11.333 -20 26 -24 44h35c2.66699 -7.33301 6.33398 -13.666 11.001 -18.999
c10.667 -12 25.334 -18 44.001 -18s33 6 43 18c5.33301 5.33301 9.33301 11.666 12 18.999h34zM285.998 684c-1.33301 -40 -18 -60 -50 -60c-6.66699 0 -13.667 1.66699 -21 5s-14.5 7.16602 -21.5 11.499s-13.667 8.16602 -20 11.499s-11.833 5 -16.5 5
c-5.33301 0 -10.333 -3 -15 -9s-7.33398 -14.667 -8.00098 -26h-25c0.666992 20 5.5 35 14.5 45s20.5 15 34.5 15c7.33301 0 14.5 -1.66699 21.5 -5s14 -7.16602 21 -11.499s13.833 -8.16602 20.5 -11.499s13.334 -5 20.001 -5c11.333 0 18 11.667 20 35h25z" />
    <glyph glyph-name="uni1EB5" unicode="&#x103;&#x303;" horiz-adv-x="344" 
d="M304 0l-35.001 -7l-14 55c-30.667 -38 -71 -57 -121 -57c-29.333 0 -54.666 8.33301 -75.999 25s-32 39.667 -32 69c0 84.667 73.667 127 221 127h6v6c0 22 -5 41.333 -15 58c-15.333 26.667 -41.333 40 -78 40c-23.333 0 -59.333 -7.66699 -108 -23l-5 36
c37.333 12 76 18 116 18c86 0 129 -47.333 129 -142v-122c0 -28 4 -55.667 12 -83zM252.999 110v68.001c-124 0 -186 -28.667 -186 -86c0 -22 6.66699 -38.833 20 -50.5s30 -17.5 50 -17.5c52.667 0 89.667 22.333 111 67c3.33301 7.33301 5 13.666 5 18.999z
M260.999 453.001c-3.33301 -18 -11.335 -32.667 -24.002 -44c-17.333 -16 -39 -24 -65 -24s-48 8 -66 24c-12 11.333 -20 26 -24 44h35c2.66699 -7.33301 6.33398 -13.666 11.001 -18.999c10.667 -12 25.334 -18 44.001 -18s33 6 43 18
c5.33301 5.33301 9.33301 11.666 12 18.999h34zM257.997 546.001c-1.33301 -40 -18 -60 -50 -60c-6.66699 0 -13.667 1.66699 -21 5s-14.5 7.16602 -21.5 11.499s-13.667 8.16602 -20 11.499s-11.833 5 -16.5 5c-5.33301 0 -10.333 -3 -15 -9s-7.33398 -14.667 -8.00098 -26
h-25c0.666992 20 5.5 35 14.5 45s20.5 15 34.5 15c7.33301 0 14.5 -1.66699 21.5 -5s14 -7.16602 21 -11.499s13.833 -8.16602 20.5 -11.499s13.334 -5 20.001 -5c11.333 0 18 11.667 20 35h25z" />
    <glyph glyph-name="uni1EB6" unicode="&#x102;&#x323;" horiz-adv-x="400" 
d="M400 0h-43l-55 153h-205l-54 -153h-43l180 483h40zM290 186l-90 254l-91 -254h181zM229 -77c0 -8 -2.66699 -14.833 -8 -20.5s-12.333 -8.5 -21 -8.5c-8 0 -14.833 2.83301 -20.5 8.5s-8.5 12.5 -8.5 20.5c0 6.66699 2.83301 13 8.5 19s12.5 9 20.5 9
c8.66699 0 15.667 -3 21 -9s8 -12.333 8 -19zM289 589c-3.33301 -18 -11.335 -32.667 -24.002 -44c-17.333 -16 -39 -24 -65 -24s-48 8 -66 24c-12 11.333 -20 26 -24 44h35c2.66699 -7.33301 6.33398 -13.666 11.001 -18.999c10.667 -12 25.334 -18 44.001 -18s33 6 43 18
c5.33301 5.33301 9.33301 11.666 12 18.999h34z" />
    <glyph glyph-name="uni1EB7" unicode="&#x103;&#x323;" horiz-adv-x="344" 
d="M304 0l-35.001 -7l-14 55c-30.667 -38 -71 -57 -121 -57c-29.333 0 -54.666 8.33301 -75.999 25s-32 39.667 -32 69c0 84.667 73.667 127 221 127h6v6c0 22 -5 41.333 -15 58c-15.333 26.667 -41.333 40 -78 40c-23.333 0 -59.333 -7.66699 -108 -23l-5 36
c37.333 12 76 18 116 18c86 0 129 -47.333 129 -142v-122c0 -28 4 -55.667 12 -83zM252.999 110v68.001c-124 0 -186 -28.667 -186 -86c0 -22 6.66699 -38.833 20 -50.5s30 -17.5 50 -17.5c52.667 0 89.667 22.333 111 67c3.33301 7.33301 5 13.666 5 18.999z
M200.999 -76.999c0 -8 -2.66699 -14.833 -8 -20.5s-12.333 -8.5 -21 -8.5c-8 0 -14.833 2.83301 -20.5 8.5s-8.5 12.5 -8.5 20.5c0 6.66699 2.83301 13 8.5 19s12.5 9 20.5 9c8.66699 0 15.667 -3 21 -9s8 -12.333 8 -19zM260.999 453.001
c-3.33301 -18 -11.335 -32.667 -24.002 -44c-17.333 -16 -39 -24 -65 -24s-48 8 -66 24c-12 11.333 -20 26 -24 44h35c2.66699 -7.33301 6.33398 -13.666 11.001 -18.999c10.667 -12 25.334 -18 44.001 -18s33 6 43 18c5.33301 5.33301 9.33301 11.666 12 18.999h34z" />
    <glyph glyph-name="uni1EB8" unicode="E&#x323;" horiz-adv-x="351" 
d="M313 0h-259v476h259v-33h-220v-175h196v-33h-196v-202h220v-33zM204 -77c0 -8 -2.66699 -14.833 -8 -20.5s-12.333 -8.5 -21 -8.5c-8 0 -14.833 2.83301 -20.5 8.5s-8.5 12.5 -8.5 20.5c0 6.66699 2.83301 13 8.5 19s12.5 9 20.5 9c8.66699 0 15.667 -3 21 -9
s8 -12.333 8 -19z" />
    <glyph glyph-name="uni1EB9" unicode="e&#x323;" horiz-adv-x="374" 
d="M324 48l2.99902 -33c-38.667 -16 -80.667 -24 -126 -24c-52 0 -94 16 -126 48s-48 72.667 -48 122c0 56 16 101 48 135s72.667 51 122 51c95.333 0 144 -59.667 146 -179h-278c1.33301 -45.333 14.833 -80.5 40.5 -105.5s58.834 -37.5 99.501 -37.5
c40 0 79.667 7.66699 119 23zM305.999 199c-0.666992 27.333 -8.33203 51.667 -22.999 73c-20 29.333 -50.333 44 -91 44c-36.667 0 -66.667 -13.333 -90 -40c-18.667 -21.333 -30.334 -47 -35.001 -77h239zM216.001 -76.999c0 -8 -2.66699 -14.833 -8 -20.5
s-12.333 -8.5 -21 -8.5c-8 0 -14.833 2.83301 -20.5 8.5s-8.5 12.5 -8.5 20.5c0 6.66699 2.83301 13 8.5 19s12.5 9 20.5 9c8.66699 0 15.667 -3 21 -9s8 -12.333 8 -19z" />
    <glyph glyph-name="uni1EBA" unicode="E&#x309;" horiz-adv-x="351" 
d="M313 0h-259v476h259v-33h-220v-175h196v-33h-196v-202h220v-33zM248 607c0 -20.667 -9.33301 -38.332 -28 -52.999s-28 -26 -28 -34h-31c0.666992 17.333 10.167 32.666 28.5 45.999s27.5 27 27.5 41c0 9.33301 -3.16699 16.5 -9.5 21.5s-14.833 7.5 -25.5 7.5
c-17.333 0 -32.333 -9.33301 -45 -28l-19 15c14.667 26.667 37.667 40 69 40c18 0 32.667 -4.83301 44 -14.5s17 -23.5 17 -41.5z" />
    <glyph glyph-name="uni1EBB" unicode="e&#x309;" horiz-adv-x="374" 
d="M324 48l2.99902 -33c-38.667 -16 -80.667 -24 -126 -24c-52 0 -94 16 -126 48s-48 72.667 -48 122c0 56 16 101 48 135s72.667 51 122 51c95.333 0 144 -59.667 146 -179h-278c1.33301 -45.333 14.833 -80.5 40.5 -105.5s58.834 -37.5 99.501 -37.5
c40 0 79.667 7.66699 119 23zM305.999 199c-0.666992 27.333 -8.33203 51.667 -22.999 73c-20 29.333 -50.333 44 -91 44c-36.667 0 -66.667 -13.333 -90 -40c-18.667 -21.333 -30.334 -47 -35.001 -77h239zM245.898 461.912
c0 -18.6006 -8.39746 -34.5029 -25.1973 -47.7031c-16.8008 -13.2002 -25.2012 -23.4004 -25.2012 -30.6006h-27.9004c0.599609 15.6006 9.14941 29.4014 25.6504 41.4023c16.501 12 24.751 24.2998 24.751 36.9004c0 8.40039 -2.85059 14.8506 -8.55078 19.3506
s-13.3506 6.75 -22.9512 6.75c-15.6006 0 -29.1006 -8.40039 -40.501 -25.2002l-17.1006 13.5c13.2002 24.001 33.9004 36.001 62.1006 36.001c16.2002 0 29.4004 -4.34961 39.6006 -13.0498s15.2998 -21.1504 15.2998 -37.3506z" />
    <glyph glyph-name="uni1EBC" unicode="E&#x303;" horiz-adv-x="351" 
d="M313 0h-259v476h259v-33h-220v-175h196v-33h-196v-202h220v-33zM262 588c-1.33301 -40 -18 -60 -50 -60c-6.66699 0 -13.667 1.66699 -21 5s-14.5 7.16602 -21.5 11.499s-13.667 8.16602 -20 11.499s-11.833 5 -16.5 5c-5.33301 0 -10.333 -3 -15 -9
s-7.33398 -14.667 -8.00098 -26h-25c0.666992 20 5.5 35 14.5 45s20.5 15 34.5 15c7.33301 0 14.5 -1.66699 21.5 -5s14 -7.16602 21 -11.499s13.833 -8.16602 20.5 -11.499s13.334 -5 20.001 -5c11.333 0 18 11.667 20 35h25z" />
    <glyph glyph-name="uni1EBD" unicode="e&#x303;" horiz-adv-x="374" 
d="M324 18l2.99902 -33c-38.667 -16 -80.667 -24 -126 -24c-52 0 -94 16 -126 48s-48 72.667 -48 122c0 56 16 101 48 135s72.667 51 122 51c95.333 0 144 -59.667 146 -179h-278c1.33301 -45.333 14.833 -80.5 40.5 -105.5s58.834 -37.5 99.501 -37.5
c40 0 79.667 7.66699 119 23zM305.999 169c-0.666992 27.333 -8.33203 51.667 -22.999 73c-20 29.333 -50.333 44 -91 44c-36.667 0 -66.667 -13.333 -90 -40c-18.667 -21.333 -30.334 -47 -35.001 -77h239zM273.001 422.001c-1.33301 -40 -18 -60 -50 -60
c-6.66699 0 -13.667 1.66699 -21 5s-14.5 7.16602 -21.5 11.499s-13.667 8.16602 -20 11.499s-11.833 5 -16.5 5c-5.33301 0 -10.333 -3 -15 -9s-7.33398 -14.667 -8.00098 -26h-25c0.666992 20 5.5 35 14.5 45s20.5 15 34.5 15c7.33301 0 14.5 -1.66699 21.5 -5
s14 -7.16602 21 -11.499s13.833 -8.16602 20.5 -11.499s13.334 -5 20.001 -5c11.333 0 18 11.667 20 35h25z" />
    <glyph glyph-name="uni1EBE" unicode="&#xca;&#x301;" horiz-adv-x="351" 
d="M313 0h-259v476h259v-33h-220v-175h196v-33h-196v-202h220v-33zM189 606l69 -78h-37l-46 52l-46 -52h-37l69 78h28zM274.396 580.01h-27.9004l45.001 81.9023l35.1016 -9.00098z" />
    <glyph glyph-name="uni1EBF" unicode="&#xea;&#x301;" horiz-adv-x="374" 
d="M324 48l2.99902 -33c-38.667 -16 -80.667 -24 -126 -24c-52 0 -94 16 -126 48s-48 72.667 -48 122c0 56 16 101 48 135s72.667 51 122 51c95.333 0 144 -59.667 146 -179h-278c1.33301 -45.333 14.833 -80.5 40.5 -105.5s58.834 -37.5 99.501 -37.5
c40 0 79.667 7.66699 119 23zM305.999 199c-0.666992 27.333 -8.33203 51.667 -22.999 73c-20 29.333 -50.333 44 -91 44c-36.667 0 -66.667 -13.333 -90 -40c-18.667 -21.333 -30.334 -47 -35.001 -77h239zM201.001 470.001l69 -78h-37l-46 52l-46 -52h-37l69 78h28z
M296.397 446.011h-27.9004l45.001 81.9023l35.1016 -9.00098z" />
    <glyph glyph-name="uni1EC0" unicode="&#xca;&#x300;" horiz-adv-x="351" 
d="M313 0h-259v476h259v-33h-220v-175h196v-33h-196v-202h220v-33zM189 606l69 -78h-37l-46 52l-46 -52h-37l69 78h28zM297.599 580.01h-27.9004l-52.2021 72.9014l35.1016 9.00098z" />
    <glyph glyph-name="uni1EC1" unicode="&#xea;&#x300;" horiz-adv-x="374" 
d="M324 48l2.99902 -33c-38.667 -16 -80.667 -24 -126 -24c-52 0 -94 16 -126 48s-48 72.667 -48 122c0 56 16 101 48 135s72.667 51 122 51c95.333 0 144 -59.667 146 -179h-278c1.33301 -45.333 14.833 -80.5 40.5 -105.5s58.834 -37.5 99.501 -37.5
c40 0 79.667 7.66699 119 23zM305.999 199c-0.666992 27.333 -8.33203 51.667 -22.999 73c-20 29.333 -50.333 44 -91 44c-36.667 0 -66.667 -13.333 -90 -40c-18.667 -21.333 -30.334 -47 -35.001 -77h239zM201.001 470.001l69 -78h-37l-46 52l-46 -52h-37l69 78h28z
M321.001 437.001h-31l-58 81l39 10z" />
    <glyph glyph-name="uni1EC2" unicode="&#xca;&#x309;" horiz-adv-x="351" 
d="M313 0h-259v476h259v-33h-220v-175h196v-33h-196v-202h220v-33zM189 606l69 -78h-37l-46 52l-46 -52h-37l69 78h28zM341.897 655.911c0 -18.6006 -8.39746 -34.5029 -25.1973 -47.7031c-16.8008 -13.2002 -25.2012 -23.4004 -25.2012 -30.6006h-27.9004
c0.599609 15.6006 9.14941 29.4014 25.6504 41.4023c16.501 12 24.751 24.2998 24.751 36.9004c0 8.40039 -2.85059 14.8506 -8.55078 19.3506s-13.3506 6.75 -22.9512 6.75c-15.6006 0 -29.1006 -8.40039 -40.501 -25.2002l-17.1006 13.5
c13.2002 24.001 33.9004 36.001 62.1006 36.001c16.2002 0 29.4004 -4.34961 39.6006 -13.0498s15.2998 -21.1504 15.2998 -37.3506z" />
    <glyph glyph-name="uni1EC3" unicode="&#xea;&#x309;" horiz-adv-x="374" 
d="M324 48l2.99902 -33c-38.667 -16 -80.667 -24 -126 -24c-52 0 -94 16 -126 48s-48 72.667 -48 122c0 56 16 101 48 135s72.667 51 122 51c95.333 0 144 -59.667 146 -179h-278c1.33301 -45.333 14.833 -80.5 40.5 -105.5s58.834 -37.5 99.501 -37.5
c40 0 79.667 7.66699 119 23zM305.999 199c-0.666992 27.333 -8.33203 51.667 -22.999 73c-20 29.333 -50.333 44 -91 44c-36.667 0 -66.667 -13.333 -90 -40c-18.667 -21.333 -30.334 -47 -35.001 -77h239zM201.001 470.001l69 -78h-37l-46 52l-46 -52h-37l69 78h28z
M349.898 533.912c0 -18.6006 -8.39746 -34.5029 -25.1973 -47.7031c-16.8008 -13.2002 -25.2012 -23.4004 -25.2012 -30.6006h-27.9004c0.599609 15.6006 9.14941 29.4014 25.6504 41.4023c16.501 12 24.751 24.2998 24.751 36.9004
c0 8.40039 -2.85059 14.8506 -8.55078 19.3506s-13.3506 6.75 -22.9512 6.75c-15.6006 0 -29.1006 -8.40039 -40.501 -25.2002l-17.1006 13.5c13.2002 24.001 33.9004 36.001 62.1006 36.001c16.2002 0 29.4004 -4.34961 39.6006 -13.0498
s15.2998 -21.1504 15.2998 -37.3506z" />
    <glyph glyph-name="uni1EC4" unicode="&#xca;&#x303;" horiz-adv-x="351" 
d="M313 0h-259v476h259v-33h-220v-175h196v-33h-196v-202h220v-33zM189 606l69 -78h-37l-46 52l-46 -52h-37l69 78h28zM261 694c-1.33301 -40 -18 -60 -50 -60c-6.66699 0 -13.667 1.66699 -21 5s-14.5 7.16602 -21.5 11.499s-13.667 8.16602 -20 11.499s-11.833 5 -16.5 5
c-5.33301 0 -10.333 -3 -15 -9s-7.33398 -14.667 -8.00098 -26h-25c0.666992 20 5.5 35 14.5 45s20.5 15 34.5 15c7.33301 0 14.5 -1.66699 21.5 -5s14 -7.16602 21 -11.499s13.833 -8.16602 20.5 -11.499s13.334 -5 20.001 -5c11.333 0 18 11.667 20 35h25z" />
    <glyph glyph-name="uni1EC5" unicode="&#xea;&#x303;" horiz-adv-x="374" 
d="M324 48l2.99902 -33c-38.667 -16 -80.667 -24 -126 -24c-52 0 -94 16 -126 48s-48 72.667 -48 122c0 56 16 101 48 135s72.667 51 122 51c95.333 0 144 -59.667 146 -179h-278c1.33301 -45.333 14.833 -80.5 40.5 -105.5s58.834 -37.5 99.501 -37.5
c40 0 79.667 7.66699 119 23zM305.999 199c-0.666992 27.333 -8.33203 51.667 -22.999 73c-20 29.333 -50.333 44 -91 44c-36.667 0 -66.667 -13.333 -90 -40c-18.667 -21.333 -30.334 -47 -35.001 -77h239zM201.001 470.001l69 -78h-37l-46 52l-46 -52h-37l69 78h28z
M273.001 557.001c-1.33301 -40 -18 -60 -50 -60c-6.66699 0 -13.667 1.66699 -21 5s-14.5 7.16602 -21.5 11.499s-13.667 8.16602 -20 11.499s-11.833 5 -16.5 5c-5.33301 0 -10.333 -3 -15 -9s-7.33398 -14.667 -8.00098 -26h-25c0.666992 20 5.5 35 14.5 45
s20.5 15 34.5 15c7.33301 0 14.5 -1.66699 21.5 -5s14 -7.16602 21 -11.499s13.833 -8.16602 20.5 -11.499s13.334 -5 20.001 -5c11.333 0 18 11.667 20 35h25z" />
    <glyph glyph-name="uni1EC6" unicode="&#xca;&#x323;" horiz-adv-x="351" 
d="M313 0h-259v476h259v-33h-220v-175h196v-33h-196v-202h220v-33zM204 -77c0 -8 -2.66699 -14.833 -8 -20.5s-12.333 -8.5 -21 -8.5c-8 0 -14.833 2.83301 -20.5 8.5s-8.5 12.5 -8.5 20.5c0 6.66699 2.83301 13 8.5 19s12.5 9 20.5 9c8.66699 0 15.667 -3 21 -9
s8 -12.333 8 -19zM189 606l69 -78h-37l-46 52l-46 -52h-37l69 78h28z" />
    <glyph glyph-name="uni1EC7" unicode="&#xea;&#x323;" horiz-adv-x="374" 
d="M324 48l2.99902 -33c-38.667 -16 -80.667 -24 -126 -24c-52 0 -94 16 -126 48s-48 72.667 -48 122c0 56 16 101 48 135s72.667 51 122 51c95.333 0 144 -59.667 146 -179h-278c1.33301 -45.333 14.833 -80.5 40.5 -105.5s58.834 -37.5 99.501 -37.5
c40 0 79.667 7.66699 119 23zM305.999 199c-0.666992 27.333 -8.33203 51.667 -22.999 73c-20 29.333 -50.333 44 -91 44c-36.667 0 -66.667 -13.333 -90 -40c-18.667 -21.333 -30.334 -47 -35.001 -77h239zM216.001 -76.999c0 -8 -2.66699 -14.833 -8 -20.5
s-12.333 -8.5 -21 -8.5c-8 0 -14.833 2.83301 -20.5 8.5s-8.5 12.5 -8.5 20.5c0 6.66699 2.83301 13 8.5 19s12.5 9 20.5 9c8.66699 0 15.667 -3 21 -9s8 -12.333 8 -19zM201.001 470.001l69 -78h-37l-46 52l-46 -52h-37l69 78h28z" />
    <glyph glyph-name="uni1EC8" unicode="I&#x309;" horiz-adv-x="147" 
d="M93 0h-39v476h39v-476zM146 607c0 -20.667 -9.33301 -38.332 -28 -52.999s-28 -26 -28 -34h-31c0.666992 17.333 10.167 32.666 28.5 45.999s27.5 27 27.5 41c0 9.33301 -3.16699 16.5 -9.5 21.5s-14.833 7.5 -25.5 7.5c-17.333 0 -32.333 -9.33301 -45 -28l-19 15
c14.667 26.667 37.667 40 69 40c18 0 32.667 -4.83301 44 -14.5s17 -23.5 17 -41.5z" />
    <glyph glyph-name="uni1EC9" unicode="i&#x309;" horiz-adv-x="143" 
d="M144 471c0 -20.667 -9.33301 -38.332 -28 -52.999s-28 -26 -28 -34h-31c0.666992 17.333 10.167 32.666 28.5 45.999s27.5 27 27.5 41c0 9.33301 -3.16699 16.5 -9.5 21.5s-14.833 7.5 -25.5 7.5c-17.333 0 -32.333 -9.33301 -45 -28l-19 15
c14.667 26.667 37.667 40 69 40c18 0 32.667 -4.83301 44 -14.5s17 -23.5 17 -41.5zM90 0.00195312h-38v340h38v-340z" />
    <glyph glyph-name="uni1ECA" unicode="I&#x323;" horiz-adv-x="147" 
d="M93 0h-39v476h39v-476zM103 -77c0 -8 -2.66699 -14.833 -8 -20.5s-12.333 -8.5 -21 -8.5c-8 0 -14.833 2.83301 -20.5 8.5s-8.5 12.5 -8.5 20.5c0 6.66699 2.83301 13 8.5 19s12.5 9 20.5 9c8.66699 0 15.667 -3 21 -9s8 -12.333 8 -19z" />
    <glyph glyph-name="uni1ECB" unicode="i&#x323;" horiz-adv-x="143" 
d="M91 0h-39v340h39v-340zM102 443c0 -9.33301 -3 -16.833 -9 -22.5s-13.667 -8.5 -23 -8.5s-16.833 2.83301 -22.5 8.5s-8.5 13.167 -8.5 22.5s2.83301 17 8.5 23s13.167 9 22.5 9s17 -3 23 -9s9 -13.667 9 -23zM101 -77c0 -8 -2.66699 -14.833 -8 -20.5
s-12.333 -8.5 -21 -8.5c-8 0 -14.833 2.83301 -20.5 8.5s-8.5 12.5 -8.5 20.5c0 6.66699 2.83301 13 8.5 19s12.5 9 20.5 9c8.66699 0 15.667 -3 21 -9s8 -12.333 8 -19z" />
    <glyph glyph-name="uni1ECC" unicode="O&#x323;" horiz-adv-x="486" 
d="M464 237c0 -71.333 -20.5 -130.333 -61.5 -177s-94.167 -70 -159.5 -70s-118.5 23.333 -159.5 70s-61.5 105.667 -61.5 177s20.5 130.333 61.5 177s94.167 70 159.5 70s118.5 -23.333 159.5 -70s61.5 -105.667 61.5 -177zM425 237c0 58.667 -17 108.834 -51 150.501
s-77.667 62.5 -131 62.5s-97 -20.833 -131 -62.5s-51 -91.834 -51 -150.501s17 -108.834 51 -150.501s77.667 -62.5 131 -62.5s97 20.833 131 62.5s51 91.834 51 150.501zM272 -77c0 -8 -2.66699 -14.833 -8 -20.5s-12.333 -8.5 -21 -8.5c-8 0 -14.833 2.83301 -20.5 8.5
s-8.5 12.5 -8.5 20.5c0 6.66699 2.83301 13 8.5 19s12.5 9 20.5 9c8.66699 0 15.667 -3 21 -9s8 -12.333 8 -19z" />
    <glyph glyph-name="uni1ECD" unicode="o&#x323;" horiz-adv-x="398" 
d="M370 169c0 -50 -15.667 -92.333 -47 -127s-72.666 -52 -123.999 -52s-92.666 17.333 -123.999 52s-47 77 -47 127s15.667 92.167 47 126.5s72.666 51.5 123.999 51.5s92.666 -17.167 123.999 -51.5s47 -76.5 47 -126.5zM332 169c0 41.333 -12.5 75.833 -37.5 103.5
s-56.833 41.5 -95.5 41.5s-70.5 -13.833 -95.5 -41.5s-37.5 -62.167 -37.5 -103.5s12.5 -76 37.5 -104s56.833 -42 95.5 -42s70.5 14 95.5 42s37.5 62.667 37.5 104zM228 -77c0 -8 -2.66699 -14.833 -8 -20.5s-12.333 -8.5 -21 -8.5c-8 0 -14.833 2.83301 -20.5 8.5
s-8.5 12.5 -8.5 20.5c0 6.66699 2.83301 13 8.5 19s12.5 9 20.5 9c8.66699 0 15.667 -3 21 -9s8 -12.333 8 -19z" />
    <glyph glyph-name="uni1ECE" unicode="O&#x309;" horiz-adv-x="486" 
d="M464 237c0 -71.333 -20.5 -130.333 -61.5 -177s-94.167 -70 -159.5 -70s-118.5 23.333 -159.5 70s-61.5 105.667 -61.5 177s20.5 130.333 61.5 177s94.167 70 159.5 70s118.5 -23.333 159.5 -70s61.5 -105.667 61.5 -177zM425 237c0 58.667 -17 108.834 -51 150.501
s-77.667 62.5 -131 62.5s-97 -20.833 -131 -62.5s-51 -91.834 -51 -150.501s17 -108.834 51 -150.501s77.667 -62.5 131 -62.5s97 20.833 131 62.5s51 91.834 51 150.501zM315 607c0 -20.667 -9.33301 -38.332 -28 -52.999s-28 -26 -28 -34h-31
c0.666992 17.333 10.167 32.666 28.5 45.999s27.5 27 27.5 41c0 9.33301 -3.16699 16.5 -9.5 21.5s-14.833 7.5 -25.5 7.5c-17.333 0 -32.333 -9.33301 -45 -28l-19 15c14.667 26.667 37.667 40 69 40c18 0 32.667 -4.83301 44 -14.5s17 -23.5 17 -41.5z" />
    <glyph glyph-name="uni1ECF" unicode="o&#x309;" horiz-adv-x="398" 
d="M370 169c0 -50 -15.667 -92.333 -47 -127s-72.666 -52 -123.999 -52s-92.666 17.333 -123.999 52s-47 77 -47 127s15.667 92.167 47 126.5s72.666 51.5 123.999 51.5s92.666 -17.167 123.999 -51.5s47 -76.5 47 -126.5zM332 169c0 41.333 -12.5 75.833 -37.5 103.5
s-56.833 41.5 -95.5 41.5s-70.5 -13.833 -95.5 -41.5s-37.5 -62.167 -37.5 -103.5s12.5 -76 37.5 -104s56.833 -42 95.5 -42s70.5 14 95.5 42s37.5 62.667 37.5 104zM271 471c0 -20.667 -9.33301 -38.332 -28 -52.999s-28 -26 -28 -34h-31
c0.666992 17.333 10.167 32.666 28.5 45.999s27.5 27 27.5 41c0 9.33301 -3.16699 16.5 -9.5 21.5s-14.833 7.5 -25.5 7.5c-17.333 0 -32.333 -9.33301 -45 -28l-19 15c14.667 26.667 37.667 40 69 40c18 0 32.667 -4.83301 44 -14.5s17 -23.5 17 -41.5z" />
    <glyph glyph-name="uni1ED0" unicode="&#xd4;&#x301;" horiz-adv-x="486" 
d="M464 237c0 -71.333 -20.5 -130.333 -61.5 -177s-94.167 -70 -159.5 -70s-118.5 23.333 -159.5 70s-61.5 105.667 -61.5 177s20.5 130.333 61.5 177s94.167 70 159.5 70s118.5 -23.333 159.5 -70s61.5 -105.667 61.5 -177zM425 237c0 58.667 -17 108.834 -51 150.501
s-77.667 62.5 -131 62.5s-97 -20.833 -131 -62.5s-51 -91.834 -51 -150.501s17 -108.834 51 -150.501s77.667 -62.5 131 -62.5s97 20.833 131 62.5s51 91.834 51 150.501zM257 606l69 -78h-37l-46 52l-46 -52h-37l69 78h28zM363.396 580.01h-27.9004l45.001 81.9023
l35.1016 -9.00098z" />
    <glyph glyph-name="uni1ED1" unicode="&#xf4;&#x301;" horiz-adv-x="398" 
d="M370 169c0 -50 -15.667 -92.333 -47 -127s-72.666 -52 -123.999 -52s-92.666 17.333 -123.999 52s-47 77 -47 127s15.667 92.167 47 126.5s72.666 51.5 123.999 51.5s92.666 -17.167 123.999 -51.5s47 -76.5 47 -126.5zM332 169c0 41.333 -12.5 75.833 -37.5 103.5
s-56.833 41.5 -95.5 41.5s-70.5 -13.833 -95.5 -41.5s-37.5 -62.167 -37.5 -103.5s12.5 -76 37.5 -104s56.833 -42 95.5 -42s70.5 14 95.5 42s37.5 62.667 37.5 104zM213 470l69 -78h-37l-46 52l-46 -52h-37l69 78h28zM311.396 446.01h-27.9004l45.001 81.9023
l35.1016 -9.00098z" />
    <glyph glyph-name="uni1ED2" unicode="&#xd4;&#x300;" horiz-adv-x="486" 
d="M464 237c0 -71.333 -20.5 -130.333 -61.5 -177s-94.167 -70 -159.5 -70s-118.5 23.333 -159.5 70s-61.5 105.667 -61.5 177s20.5 130.333 61.5 177s94.167 70 159.5 70s118.5 -23.333 159.5 -70s61.5 -105.667 61.5 -177zM425 237c0 58.667 -17 108.834 -51 150.501
s-77.667 62.5 -131 62.5s-97 -20.833 -131 -62.5s-51 -91.834 -51 -150.501s17 -108.834 51 -150.501s77.667 -62.5 131 -62.5s97 20.833 131 62.5s51 91.834 51 150.501zM257 606l69 -78h-37l-46 52l-46 -52h-37l69 78h28zM384.599 580.01h-27.9004l-52.2021 72.9014
l35.1016 9.00098z" />
    <glyph glyph-name="uni1ED3" unicode="&#xf4;&#x300;" horiz-adv-x="398" 
d="M370 169c0 -50 -15.667 -92.333 -47 -127s-72.666 -52 -123.999 -52s-92.666 17.333 -123.999 52s-47 77 -47 127s15.667 92.167 47 126.5s72.666 51.5 123.999 51.5s92.666 -17.167 123.999 -51.5s47 -76.5 47 -126.5zM332 169c0 41.333 -12.5 75.833 -37.5 103.5
s-56.833 41.5 -95.5 41.5s-70.5 -13.833 -95.5 -41.5s-37.5 -62.167 -37.5 -103.5s12.5 -76 37.5 -104s56.833 -42 95.5 -42s70.5 14 95.5 42s37.5 62.667 37.5 104zM213 470l69 -78h-37l-46 52l-46 -52h-37l69 78h28zM334.599 446.01h-27.9004l-52.2021 72.9014
l35.1016 9.00098z" />
    <glyph glyph-name="uni1ED4" unicode="&#xd4;&#x309;" horiz-adv-x="486" 
d="M464 237c0 -71.333 -20.5 -130.333 -61.5 -177s-94.167 -70 -159.5 -70s-118.5 23.333 -159.5 70s-61.5 105.667 -61.5 177s20.5 130.333 61.5 177s94.167 70 159.5 70s118.5 -23.333 159.5 -70s61.5 -105.667 61.5 -177zM425 237c0 58.667 -17 108.834 -51 150.501
s-77.667 62.5 -131 62.5s-97 -20.833 -131 -62.5s-51 -91.834 -51 -150.501s17 -108.834 51 -150.501s77.667 -62.5 131 -62.5s97 20.833 131 62.5s51 91.834 51 150.501zM257 606l69 -78h-37l-46 52l-46 -52h-37l69 78h28zM413.897 655.911
c0 -18.6006 -8.39746 -34.5029 -25.1973 -47.7031c-16.8008 -13.2002 -25.2012 -23.4004 -25.2012 -30.6006h-27.9004c0.599609 15.6006 9.14941 29.4014 25.6504 41.4023c16.501 12 24.751 24.2998 24.751 36.9004c0 8.40039 -2.85059 14.8506 -8.55078 19.3506
s-13.3506 6.75 -22.9512 6.75c-15.6006 0 -29.1006 -8.40039 -40.501 -25.2002l-17.1006 13.5c13.2002 24.001 33.9004 36.001 62.1006 36.001c16.2002 0 29.4004 -4.34961 39.6006 -13.0498s15.2998 -21.1504 15.2998 -37.3506z" />
    <glyph glyph-name="uni1ED5" unicode="&#xf4;&#x309;" horiz-adv-x="398" 
d="M370 169c0 -50 -15.667 -92.333 -47 -127s-72.666 -52 -123.999 -52s-92.666 17.333 -123.999 52s-47 77 -47 127s15.667 92.167 47 126.5s72.666 51.5 123.999 51.5s92.666 -17.167 123.999 -51.5s47 -76.5 47 -126.5zM332 169c0 41.333 -12.5 75.833 -37.5 103.5
s-56.833 41.5 -95.5 41.5s-70.5 -13.833 -95.5 -41.5s-37.5 -62.167 -37.5 -103.5s12.5 -76 37.5 -104s56.833 -42 95.5 -42s70.5 14 95.5 42s37.5 62.667 37.5 104zM213 470l69 -78h-37l-46 52l-46 -52h-37l69 78h28zM358.897 533.911
c0 -18.6006 -8.39746 -34.5029 -25.1973 -47.7031c-16.8008 -13.2002 -25.2012 -23.4004 -25.2012 -30.6006h-27.9004c0.599609 15.6006 9.14941 29.4014 25.6504 41.4023c16.501 12 24.751 24.2998 24.751 36.9004c0 8.40039 -2.85059 14.8506 -8.55078 19.3506
s-13.3506 6.75 -22.9512 6.75c-15.6006 0 -29.1006 -8.40039 -40.501 -25.2002l-17.1006 13.5c13.2002 24.001 33.9004 36.001 62.1006 36.001c16.2002 0 29.4004 -4.34961 39.6006 -13.0498s15.2998 -21.1504 15.2998 -37.3506z" />
    <glyph glyph-name="uni1ED6" unicode="&#xd4;&#x303;" horiz-adv-x="486" 
d="M464 237c0 -71.333 -20.5 -130.333 -61.5 -177s-94.167 -70 -159.5 -70s-118.5 23.333 -159.5 70s-61.5 105.667 -61.5 177s20.5 130.333 61.5 177s94.167 70 159.5 70s118.5 -23.333 159.5 -70s61.5 -105.667 61.5 -177zM425 237c0 58.667 -17 108.834 -51 150.501
s-77.667 62.5 -131 62.5s-97 -20.833 -131 -62.5s-51 -91.834 -51 -150.501s17 -108.834 51 -150.501s77.667 -62.5 131 -62.5s97 20.833 131 62.5s51 91.834 51 150.501zM257 606l69 -78h-37l-46 52l-46 -52h-37l69 78h28zM329 694c-1.33301 -40 -18 -60 -50 -60
c-6.66699 0 -13.667 1.66699 -21 5s-14.5 7.16602 -21.5 11.499s-13.667 8.16602 -20 11.499s-11.833 5 -16.5 5c-5.33301 0 -10.333 -3 -15 -9s-7.33398 -14.667 -8.00098 -26h-25c0.666992 20 5.5 35 14.5 45s20.5 15 34.5 15c7.33301 0 14.5 -1.66699 21.5 -5
s14 -7.16602 21 -11.499s13.833 -8.16602 20.5 -11.499s13.334 -5 20.001 -5c11.333 0 18 11.667 20 35h25z" />
    <glyph glyph-name="uni1ED7" unicode="&#xf4;&#x303;" horiz-adv-x="398" 
d="M370 169c0 -50 -15.667 -92.333 -47 -127s-72.666 -52 -123.999 -52s-92.666 17.333 -123.999 52s-47 77 -47 127s15.667 92.167 47 126.5s72.666 51.5 123.999 51.5s92.666 -17.167 123.999 -51.5s47 -76.5 47 -126.5zM332 169c0 41.333 -12.5 75.833 -37.5 103.5
s-56.833 41.5 -95.5 41.5s-70.5 -13.833 -95.5 -41.5s-37.5 -62.167 -37.5 -103.5s12.5 -76 37.5 -104s56.833 -42 95.5 -42s70.5 14 95.5 42s37.5 62.667 37.5 104zM213 470l69 -78h-37l-46 52l-46 -52h-37l69 78h28zM285 557c-1.33301 -40 -18 -60 -50 -60
c-6.66699 0 -13.667 1.66699 -21 5s-14.5 7.16602 -21.5 11.499s-13.667 8.16602 -20 11.499s-11.833 5 -16.5 5c-5.33301 0 -10.333 -3 -15 -9s-7.33398 -14.667 -8.00098 -26h-25c0.666992 20 5.5 35 14.5 45s20.5 15 34.5 15c7.33301 0 14.5 -1.66699 21.5 -5
s14 -7.16602 21 -11.499s13.833 -8.16602 20.5 -11.499s13.334 -5 20.001 -5c11.333 0 18 11.667 20 35h25z" />
    <glyph glyph-name="uni1ED8" unicode="&#xd4;&#x323;" horiz-adv-x="486" 
d="M464 237c0 -71.333 -20.5 -130.333 -61.5 -177s-94.167 -70 -159.5 -70s-118.5 23.333 -159.5 70s-61.5 105.667 -61.5 177s20.5 130.333 61.5 177s94.167 70 159.5 70s118.5 -23.333 159.5 -70s61.5 -105.667 61.5 -177zM425 237c0 58.667 -17 108.834 -51 150.501
s-77.667 62.5 -131 62.5s-97 -20.833 -131 -62.5s-51 -91.834 -51 -150.501s17 -108.834 51 -150.501s77.667 -62.5 131 -62.5s97 20.833 131 62.5s51 91.834 51 150.501zM272 -77c0 -8 -2.66699 -14.833 -8 -20.5s-12.333 -8.5 -21 -8.5c-8 0 -14.833 2.83301 -20.5 8.5
s-8.5 12.5 -8.5 20.5c0 6.66699 2.83301 13 8.5 19s12.5 9 20.5 9c8.66699 0 15.667 -3 21 -9s8 -12.333 8 -19zM257 606l69 -78h-37l-46 52l-46 -52h-37l69 78h28z" />
    <glyph glyph-name="uni1ED9" unicode="&#xf4;&#x323;" horiz-adv-x="398" 
d="M370 169c0 -50 -15.667 -92.333 -47 -127s-72.666 -52 -123.999 -52s-92.666 17.333 -123.999 52s-47 77 -47 127s15.667 92.167 47 126.5s72.666 51.5 123.999 51.5s92.666 -17.167 123.999 -51.5s47 -76.5 47 -126.5zM332 169c0 41.333 -12.5 75.833 -37.5 103.5
s-56.833 41.5 -95.5 41.5s-70.5 -13.833 -95.5 -41.5s-37.5 -62.167 -37.5 -103.5s12.5 -76 37.5 -104s56.833 -42 95.5 -42s70.5 14 95.5 42s37.5 62.667 37.5 104zM228 -77c0 -8 -2.66699 -14.833 -8 -20.5s-12.333 -8.5 -21 -8.5c-8 0 -14.833 2.83301 -20.5 8.5
s-8.5 12.5 -8.5 20.5c0 6.66699 2.83301 13 8.5 19s12.5 9 20.5 9c8.66699 0 15.667 -3 21 -9s8 -12.333 8 -19zM213 470l69 -78h-37l-46 52l-46 -52h-37l69 78h28z" />
    <glyph glyph-name="uni1EDA" unicode="&#x1a0;&#x301;" horiz-adv-x="486" 
d="M464 237c0 -71.333 -20.5 -130.333 -61.5 -177s-94.167 -70 -159.5 -70s-118.5 23.333 -159.5 70s-61.5 105.667 -61.5 177s20.5 130.333 61.5 177s94.167 70 159.5 70c58 0 107 -19 147 -57c28 30 42 61.333 42 94h32c0 -14.667 -4.66699 -32 -14 -52
c-11.333 -23.333 -26 -43 -44 -59c38.667 -46 58 -103.667 58 -173zM425 237c0 58.667 -17 108.834 -51 150.501s-77.667 62.5 -131 62.5s-97 -20.833 -131 -62.5s-51 -91.834 -51 -150.501s17 -108.834 51 -150.501s77.667 -62.5 131 -62.5s97 20.833 131 62.5
s51 91.834 51 150.501zM225 526h-31l50 91l39 -10z" />
    <glyph glyph-name="uni1EDB" unicode="&#x1a1;&#x301;" horiz-adv-x="398" 
d="M370 169c0 -50 -15.668 -92.334 -47.001 -127.001s-72.666 -52 -123.999 -52s-92.666 17.333 -123.999 52s-47 77 -47 127s15.667 92.167 47 126.5s72.666 51.5 123.999 51.5c44.667 0 83 -14.333 115 -43c24 22.667 37 54 39 94h33
c-1.33301 -40.667 -20 -77.667 -56 -111c26.667 -33.333 40 -72.666 40 -117.999zM331.999 168.999c0 41.333 -12.5 75.833 -37.5 103.5s-56.833 41.5 -95.5 41.5s-70.5 -13.833 -95.5 -41.5s-37.5 -62.167 -37.5 -103.5s12.5 -76 37.5 -104s56.833 -42 95.5 -42
s70.5 14 95.5 42s37.5 62.667 37.5 104zM180.999 389.999h-31l50 91l39 -10z" />
    <glyph glyph-name="uni1EDC" unicode="&#x1a0;&#x300;" horiz-adv-x="486" 
d="M464 237c0 -71.333 -20.5 -130.333 -61.5 -177s-94.167 -70 -159.5 -70s-118.5 23.333 -159.5 70s-61.5 105.667 -61.5 177s20.5 130.333 61.5 177s94.167 70 159.5 70c58 0 107 -19 147 -57c28 30 42 61.333 42 94h32c0 -14.667 -4.66699 -32 -14 -52
c-11.333 -23.333 -26 -43 -44 -59c38.667 -46 58 -103.667 58 -173zM425 237c0 58.667 -17 108.834 -51 150.501s-77.667 62.5 -131 62.5s-97 -20.833 -131 -62.5s-51 -91.834 -51 -150.501s17 -108.834 51 -150.501s77.667 -62.5 131 -62.5s97 20.833 131 62.5
s51 91.834 51 150.501zM293 526h-31l-58 81l39 10z" />
    <glyph glyph-name="uni1EDD" unicode="&#x1a1;&#x300;" horiz-adv-x="398" 
d="M370 169c0 -50 -15.668 -92.334 -47.001 -127.001s-72.666 -52 -123.999 -52s-92.666 17.333 -123.999 52s-47 77 -47 127s15.667 92.167 47 126.5s72.666 51.5 123.999 51.5c44.667 0 83 -14.333 115 -43c24 22.667 37 54 39 94h33
c-1.33301 -40.667 -20 -77.667 -56 -111c26.667 -33.333 40 -72.666 40 -117.999zM331.999 168.999c0 41.333 -12.5 75.833 -37.5 103.5s-56.833 41.5 -95.5 41.5s-70.5 -13.833 -95.5 -41.5s-37.5 -62.167 -37.5 -103.5s12.5 -76 37.5 -104s56.833 -42 95.5 -42
s70.5 14 95.5 42s37.5 62.667 37.5 104zM248.999 389.999h-31l-58 81l39 10z" />
    <glyph glyph-name="uni1EDE" unicode="&#x1a0;&#x309;" horiz-adv-x="486" 
d="M464 237c0 -71.333 -20.5 -130.333 -61.5 -177s-94.167 -70 -159.5 -70s-118.5 23.333 -159.5 70s-61.5 105.667 -61.5 177s20.5 130.333 61.5 177s94.167 70 159.5 70c58 0 107 -19 147 -57c28 30 42 61.333 42 94h32c0 -14.667 -4.66699 -32 -14 -52
c-11.333 -23.333 -26 -43 -44 -59c38.667 -46 58 -103.667 58 -173zM425 237c0 58.667 -17 108.834 -51 150.501s-77.667 62.5 -131 62.5s-97 -20.833 -131 -62.5s-51 -91.834 -51 -150.501s17 -108.834 51 -150.501s77.667 -62.5 131 -62.5s97 20.833 131 62.5
s51 91.834 51 150.501zM315 607c0 -20.667 -9.33301 -38.332 -28 -52.999s-28 -26 -28 -34h-31c0.666992 17.333 10.167 32.666 28.5 45.999s27.5 27 27.5 41c0 9.33301 -3.16699 16.5 -9.5 21.5s-14.833 7.5 -25.5 7.5c-17.333 0 -32.333 -9.33301 -45 -28l-19 15
c14.667 26.667 37.667 40 69 40c18 0 32.667 -4.83301 44 -14.5s17 -23.5 17 -41.5z" />
    <glyph glyph-name="uni1EDF" unicode="&#x1a1;&#x309;" horiz-adv-x="398" 
d="M370 169c0 -50 -15.668 -92.334 -47.001 -127.001s-72.666 -52 -123.999 -52s-92.666 17.333 -123.999 52s-47 77 -47 127s15.667 92.167 47 126.5s72.666 51.5 123.999 51.5c44.667 0 83 -14.333 115 -43c24 22.667 37 54 39 94h33
c-1.33301 -40.667 -20 -77.667 -56 -111c26.667 -33.333 40 -72.666 40 -117.999zM331.999 168.999c0 41.333 -12.5 75.833 -37.5 103.5s-56.833 41.5 -95.5 41.5s-70.5 -13.833 -95.5 -41.5s-37.5 -62.167 -37.5 -103.5s12.5 -76 37.5 -104s56.833 -42 95.5 -42
s70.5 14 95.5 42s37.5 62.667 37.5 104zM257.896 461.91c0 -18.6006 -8.39746 -34.5029 -25.1973 -47.7031c-16.8008 -13.2002 -25.2012 -23.4004 -25.2012 -30.6006h-27.9004c0.599609 15.6006 9.14941 29.4014 25.6504 41.4023c16.501 12 24.751 24.2998 24.751 36.9004
c0 8.40039 -2.85059 14.8506 -8.55078 19.3506s-13.3506 6.75 -22.9512 6.75c-15.6006 0 -29.1006 -8.40039 -40.501 -25.2002l-17.1006 13.5c13.2002 24.001 33.9004 36.001 62.1006 36.001c16.2002 0 29.4004 -4.34961 39.6006 -13.0498
s15.2998 -21.1504 15.2998 -37.3506z" />
    <glyph glyph-name="uni1EE0" unicode="&#x1a0;&#x303;" horiz-adv-x="486" 
d="M464 237c0 -71.333 -20.5 -130.333 -61.5 -177s-94.167 -70 -159.5 -70s-118.5 23.333 -159.5 70s-61.5 105.667 -61.5 177s20.5 130.333 61.5 177s94.167 70 159.5 70c58 0 107 -19 147 -57c28 30 42 61.333 42 94h32c0 -14.667 -4.66699 -32 -14 -52
c-11.333 -23.333 -26 -43 -44 -59c38.667 -46 58 -103.667 58 -173zM425 237c0 58.667 -17 108.834 -51 150.501s-77.667 62.5 -131 62.5s-97 -20.833 -131 -62.5s-51 -91.834 -51 -150.501s17 -108.834 51 -150.501s77.667 -62.5 131 -62.5s97 20.833 131 62.5
s51 91.834 51 150.501zM329 588c-1.33301 -40 -18 -60 -50 -60c-6.66699 0 -13.667 1.66699 -21 5s-14.5 7.16602 -21.5 11.499s-13.667 8.16602 -20 11.499s-11.833 5 -16.5 5c-5.33301 0 -10.333 -3 -15 -9s-7.33398 -14.667 -8.00098 -26h-25c0.666992 20 5.5 35 14.5 45
s20.5 15 34.5 15c7.33301 0 14.5 -1.66699 21.5 -5s14 -7.16602 21 -11.499s13.833 -8.16602 20.5 -11.499s13.334 -5 20.001 -5c11.333 0 18 11.667 20 35h25z" />
    <glyph glyph-name="uni1EE1" unicode="&#x1a1;&#x303;" horiz-adv-x="398" 
d="M370 169c0 -50 -15.668 -92.334 -47.001 -127.001s-72.666 -52 -123.999 -52s-92.666 17.333 -123.999 52s-47 77 -47 127s15.667 92.167 47 126.5s72.666 51.5 123.999 51.5c44.667 0 83 -14.333 115 -43c24 22.667 37 54 39 94h33
c-1.33301 -40.667 -20 -77.667 -56 -111c26.667 -33.333 40 -72.666 40 -117.999zM331.999 168.999c0 41.333 -12.5 75.833 -37.5 103.5s-56.833 41.5 -95.5 41.5s-70.5 -13.833 -95.5 -41.5s-37.5 -62.167 -37.5 -103.5s12.5 -76 37.5 -104s56.833 -42 95.5 -42
s70.5 14 95.5 42s37.5 62.667 37.5 104zM284.999 451.999c-1.33301 -40 -18 -60 -50 -60c-6.66699 0 -13.667 1.66699 -21 5s-14.5 7.16602 -21.5 11.499s-13.667 8.16602 -20 11.499s-11.833 5 -16.5 5c-5.33301 0 -10.333 -3 -15 -9s-7.33398 -14.667 -8.00098 -26h-25
c0.666992 20 5.5 35 14.5 45s20.5 15 34.5 15c7.33301 0 14.5 -1.66699 21.5 -5s14 -7.16602 21 -11.499s13.833 -8.16602 20.5 -11.499s13.334 -5 20.001 -5c11.333 0 18 11.667 20 35h25z" />
    <glyph glyph-name="uni1EE2" unicode="&#x1a0;&#x323;" horiz-adv-x="486" 
d="M464 237c0 -71.333 -20.5 -130.333 -61.5 -177s-94.167 -70 -159.5 -70s-118.5 23.333 -159.5 70s-61.5 105.667 -61.5 177s20.5 130.333 61.5 177s94.167 70 159.5 70c58 0 107 -19 147 -57c28 30 42 61.333 42 94h32c0 -14.667 -4.66699 -32 -14 -52
c-11.333 -23.333 -26 -43 -44 -59c38.667 -46 58 -103.667 58 -173zM425 237c0 58.667 -17 108.834 -51 150.501s-77.667 62.5 -131 62.5s-97 -20.833 -131 -62.5s-51 -91.834 -51 -150.501s17 -108.834 51 -150.501s77.667 -62.5 131 -62.5s97 20.833 131 62.5
s51 91.834 51 150.501zM272 -77c0 -8 -2.66699 -14.833 -8 -20.5s-12.333 -8.5 -21 -8.5c-8 0 -14.833 2.83301 -20.5 8.5s-8.5 12.5 -8.5 20.5c0 6.66699 2.83301 13 8.5 19s12.5 9 20.5 9c8.66699 0 15.667 -3 21 -9s8 -12.333 8 -19z" />
    <glyph glyph-name="uni1EE3" unicode="&#x1a1;&#x323;" horiz-adv-x="398" 
d="M370 169c0 -50 -15.668 -92.334 -47.001 -127.001s-72.666 -52 -123.999 -52s-92.666 17.333 -123.999 52s-47 77 -47 127s15.667 92.167 47 126.5s72.666 51.5 123.999 51.5c44.667 0 83 -14.333 115 -43c24 22.667 37 54 39 94h33
c-1.33301 -40.667 -20 -77.667 -56 -111c26.667 -33.333 40 -72.666 40 -117.999zM331.999 168.999c0 41.333 -12.5 75.833 -37.5 103.5s-56.833 41.5 -95.5 41.5s-70.5 -13.833 -95.5 -41.5s-37.5 -62.167 -37.5 -103.5s12.5 -76 37.5 -104s56.833 -42 95.5 -42
s70.5 14 95.5 42s37.5 62.667 37.5 104zM227.999 -77.001c0 -8 -2.66699 -14.833 -8 -20.5s-12.333 -8.5 -21 -8.5c-8 0 -14.833 2.83301 -20.5 8.5s-8.5 12.5 -8.5 20.5c0 6.66699 2.83301 13 8.5 19s12.5 9 20.5 9c8.66699 0 15.667 -3 21 -9s8 -12.333 8 -19z" />
    <glyph glyph-name="uni1EE4" unicode="U&#x323;" horiz-adv-x="466" 
d="M412 201c0 -140 -59.668 -210 -179.001 -210s-179 70 -179 210v275h39v-274c0 -62.667 12.833 -108 38.5 -136s59.5 -42 101.5 -42c42.667 0 76.834 14 102.501 42s38.167 73.333 37.5 136v274h39v-275zM261.999 -77c0 -8 -2.66699 -14.833 -8 -20.5
s-12.333 -8.5 -21 -8.5c-8 0 -14.833 2.83301 -20.5 8.5s-8.5 12.5 -8.5 20.5c0 6.66699 2.83301 13 8.5 19s12.5 9 20.5 9c8.66699 0 15.667 -3 21 -9s8 -12.333 8 -19z" />
    <glyph glyph-name="uni1EE5" unicode="u&#x323;" horiz-adv-x="390" 
d="M355 1l-37 -8c-8 22.667 -13.333 44.667 -16 66c-29.333 -45.333 -72 -68 -128 -68c-81.333 0 -122 52.667 -122 158v191h39v-184c0 -87.333 30.667 -131 92 -131c28.667 0 54.667 9.33301 78 28c25.333 21.333 38 48.333 38 81v206h39v-257
c0 -24.667 5.66699 -52 17 -82zM224 -77c0 -8 -2.66699 -14.833 -8 -20.5s-12.333 -8.5 -21 -8.5c-8 0 -14.833 2.83301 -20.5 8.5s-8.5 12.5 -8.5 20.5c0 6.66699 2.83301 13 8.5 19s12.5 9 20.5 9c8.66699 0 15.667 -3 21 -9s8 -12.333 8 -19z" />
    <glyph glyph-name="uni1EE6" unicode="U&#x309;" horiz-adv-x="466" 
d="M412 201c0 -140 -59.668 -210 -179.001 -210s-179 70 -179 210v275h39v-274c0 -62.667 12.833 -108 38.5 -136s59.5 -42 101.5 -42c42.667 0 76.834 14 102.501 42s38.167 73.333 37.5 136v274h39v-275zM304.999 607c0 -20.667 -9.33301 -38.332 -28 -52.999
s-28 -26 -28 -34h-31c0.666992 17.333 10.167 32.666 28.5 45.999s27.5 27 27.5 41c0 9.33301 -3.16699 16.5 -9.5 21.5s-14.833 7.5 -25.5 7.5c-17.333 0 -32.333 -9.33301 -45 -28l-19 15c14.667 26.667 37.667 40 69 40c18 0 32.667 -4.83301 44 -14.5s17 -23.5 17 -41.5
z" />
    <glyph glyph-name="uni1EE7" unicode="u&#x309;" horiz-adv-x="390" 
d="M355 1l-37 -8c-8 22.667 -13.333 44.667 -16 66c-29.333 -45.333 -72 -68 -128 -68c-81.333 0 -122 52.667 -122 158v191h39v-184c0 -87.333 30.667 -131 92 -131c28.667 0 54.667 9.33301 78 28c25.333 21.333 38 48.333 38 81v206h39v-257
c0 -24.667 5.66699 -52 17 -82zM253.897 461.911c0 -18.6006 -8.39746 -34.5029 -25.1973 -47.7031c-16.8008 -13.2002 -25.2012 -23.4004 -25.2012 -30.6006h-27.9004c0.599609 15.6006 9.14941 29.4014 25.6504 41.4023c16.501 12 24.751 24.2998 24.751 36.9004
c0 8.40039 -2.85059 14.8506 -8.55078 19.3506s-13.3506 6.75 -22.9512 6.75c-15.6006 0 -29.1006 -8.40039 -40.501 -25.2002l-17.1006 13.5c13.2002 24.001 33.9004 36.001 62.1006 36.001c16.2002 0 29.4004 -4.34961 39.6006 -13.0498
s15.2998 -21.1504 15.2998 -37.3506z" />
    <glyph glyph-name="uni1EE8" unicode="&#x1af;&#x301;" horiz-adv-x="466" 
d="M412 201c0 -140 -59.668 -210 -179.001 -210s-179 70 -179 210v275h39v-274c0 -62.667 12.833 -108 38.5 -136s59.5 -42 101.5 -42c42.667 0 76.834 14 102.501 42s38.167 73.333 37.5 136v274h39v-44c30 26 46 55.667 48 89h32c-6 -47.333 -32.667 -87 -80 -119v-201z
M237.999 526h-31l50 91l39 -10z" />
    <glyph glyph-name="uni1EE9" unicode="&#x1b0;&#x301;" horiz-adv-x="373" 
d="M355 1l-37.001 -8c-8 22.667 -13.333 44.667 -16 66c-29.333 -45.333 -72 -68 -128 -68c-81.333 0 -122 52.667 -122 158v191h39v-184c0 -87.333 30.667 -131 92 -131c28.667 0 54.667 9.33301 78 28c25.333 21.333 38 48.333 38 81v206h39v-41
c26.667 25.333 41.334 58.333 44.001 99h32c-4.66699 -54.667 -30 -97 -76 -127v-188c0 -24.667 5.66699 -52 17 -82zM190.999 390h-31l50 91l39 -10z" />
    <glyph glyph-name="uni1EEA" unicode="&#x1af;&#x300;" horiz-adv-x="466" 
d="M412 201c0 -140 -59.668 -210 -179.001 -210s-179 70 -179 210v275h39v-274c0 -62.667 12.833 -108 38.5 -136s59.5 -42 101.5 -42c42.667 0 76.834 14 102.501 42s38.167 73.333 37.5 136v274h39v-44c30 26 46 55.667 48 89h32c-6 -47.333 -32.667 -87 -80 -119v-201z
M268.999 526h-31l-58 81l39 10z" />
    <glyph glyph-name="uni1EEB" unicode="&#x1b0;&#x300;" horiz-adv-x="373" 
d="M355 1l-37.001 -8c-8 22.667 -13.333 44.667 -16 66c-29.333 -45.333 -72 -68 -128 -68c-81.333 0 -122 52.667 -122 158v191h39v-184c0 -87.333 30.667 -131 92 -131c28.667 0 54.667 9.33301 78 28c25.333 21.333 38 48.333 38 81v206h39v-41
c26.667 25.333 41.334 58.333 44.001 99h32c-4.66699 -54.667 -30 -97 -76 -127v-188c0 -24.667 5.66699 -52 17 -82zM216.999 390h-31l-58 81l39 10z" />
    <glyph glyph-name="uni1EEC" unicode="&#x1af;&#x309;" horiz-adv-x="466" 
d="M412 201c0 -140 -59.668 -210 -179.001 -210s-179 70 -179 210v275h39v-274c0 -62.667 12.833 -108 38.5 -136s59.5 -42 101.5 -42c42.667 0 76.834 14 102.501 42s38.167 73.333 37.5 136v274h39v-44c30 26 46 55.667 48 89h32c-6 -47.333 -32.667 -87 -80 -119v-201z
M298.999 607c0 -20.667 -9.33301 -38.332 -28 -52.999s-28 -26 -28 -34h-31c0.666992 17.333 10.167 32.666 28.5 45.999s27.5 27 27.5 41c0 9.33301 -3.16699 16.5 -9.5 21.5s-14.833 7.5 -25.5 7.5c-17.333 0 -32.333 -9.33301 -45 -28l-19 15
c14.667 26.667 37.667 40 69 40c18 0 32.667 -4.83301 44 -14.5s17 -23.5 17 -41.5z" />
    <glyph glyph-name="uni1EED" unicode="&#x1b0;&#x309;" horiz-adv-x="373" 
d="M355 1l-37.001 -8c-8 22.667 -13.333 44.667 -16 66c-29.333 -45.333 -72 -68 -128 -68c-81.333 0 -122 52.667 -122 158v191h39v-184c0 -87.333 30.667 -131 92 -131c28.667 0 54.667 9.33301 78 28c25.333 21.333 38 48.333 38 81v206h39v-41
c26.667 25.333 41.334 58.333 44.001 99h32c-4.66699 -54.667 -30 -97 -76 -127v-188c0 -24.667 5.66699 -52 17 -82zM254.896 461.911c0 -18.6006 -8.39746 -34.5029 -25.1973 -47.7031c-16.8008 -13.2002 -25.2012 -23.4004 -25.2012 -30.6006h-27.9004
c0.599609 15.6006 9.14941 29.4014 25.6504 41.4023c16.501 12 24.751 24.2998 24.751 36.9004c0 8.40039 -2.85059 14.8506 -8.55078 19.3506s-13.3506 6.75 -22.9512 6.75c-15.6006 0 -29.1006 -8.40039 -40.501 -25.2002l-17.1006 13.5
c13.2002 24.001 33.9004 36.001 62.1006 36.001c16.2002 0 29.4004 -4.34961 39.6006 -13.0498s15.2998 -21.1504 15.2998 -37.3506z" />
    <glyph glyph-name="uni1EEE" unicode="&#x1af;&#x303;" horiz-adv-x="466" 
d="M412 201c0 -140 -59.668 -210 -179.001 -210s-179 70 -179 210v275h39v-274c0 -62.667 12.833 -108 38.5 -136s59.5 -42 101.5 -42c42.667 0 76.834 14 102.501 42s38.167 73.333 37.5 136v274h39v-44c30 26 46 55.667 48 89h32c-6 -47.333 -32.667 -87 -80 -119v-201z
M323.999 588c-1.33301 -40 -18 -60 -50 -60c-6.66699 0 -13.667 1.66699 -21 5s-14.5 7.16602 -21.5 11.499s-13.667 8.16602 -20 11.499s-11.833 5 -16.5 5c-5.33301 0 -10.333 -3 -15 -9s-7.33398 -14.667 -8.00098 -26h-25c0.666992 20 5.5 35 14.5 45s20.5 15 34.5 15
c7.33301 0 14.5 -1.66699 21.5 -5s14 -7.16602 21 -11.499s13.833 -8.16602 20.5 -11.499s13.334 -5 20.001 -5c11.333 0 18 11.667 20 35h25z" />
    <glyph glyph-name="uni1EEF" unicode="&#x1b0;&#x303;" horiz-adv-x="373" 
d="M355 1l-37.001 -8c-8 22.667 -13.333 44.667 -16 66c-29.333 -45.333 -72 -68 -128 -68c-81.333 0 -122 52.667 -122 158v191h39v-184c0 -87.333 30.667 -131 92 -131c28.667 0 54.667 9.33301 78 28c25.333 21.333 38 48.333 38 81v206h39v-41
c26.667 25.333 41.334 58.333 44.001 99h32c-4.66699 -54.667 -30 -97 -76 -127v-188c0 -24.667 5.66699 -52 17 -82zM286.999 452c-1.33301 -40 -18 -60 -50 -60c-6.66699 0 -13.667 1.66699 -21 5s-14.5 7.16602 -21.5 11.499s-13.667 8.16602 -20 11.499
s-11.833 5 -16.5 5c-5.33301 0 -10.333 -3 -15 -9s-7.33398 -14.667 -8.00098 -26h-25c0.666992 20 5.5 35 14.5 45s20.5 15 34.5 15c7.33301 0 14.5 -1.66699 21.5 -5s14 -7.16602 21 -11.499s13.833 -8.16602 20.5 -11.499s13.334 -5 20.001 -5c11.333 0 18 11.667 20 35
h25z" />
    <glyph glyph-name="uni1EF0" unicode="&#x1af;&#x323;" horiz-adv-x="466" 
d="M412 201c0 -140 -59.668 -210 -179.001 -210s-179 70 -179 210v275h39v-274c0 -62.667 12.833 -108 38.5 -136s59.5 -42 101.5 -42c42.667 0 76.834 14 102.501 42s38.167 73.333 37.5 136v274h39v-44c30 26 46 55.667 48 89h32c-6 -47.333 -32.667 -87 -80 -119v-201z
M261.999 -77c0 -8 -2.66699 -14.833 -8 -20.5s-12.333 -8.5 -21 -8.5c-8 0 -14.833 2.83301 -20.5 8.5s-8.5 12.5 -8.5 20.5c0 6.66699 2.83301 13 8.5 19s12.5 9 20.5 9c8.66699 0 15.667 -3 21 -9s8 -12.333 8 -19z" />
    <glyph glyph-name="uni1EF1" unicode="&#x1b0;&#x323;" horiz-adv-x="373" 
d="M355 1l-37.001 -8c-8 22.667 -13.333 44.667 -16 66c-29.333 -45.333 -72 -68 -128 -68c-81.333 0 -122 52.667 -122 158v191h39v-184c0 -87.333 30.667 -131 92 -131c28.667 0 54.667 9.33301 78 28c25.333 21.333 38 48.333 38 81v206h39v-41
c26.667 25.333 41.334 58.333 44.001 99h32c-4.66699 -54.667 -30 -97 -76 -127v-188c0 -24.667 5.66699 -52 17 -82zM214.999 -77c0 -8 -2.66699 -14.833 -8 -20.5s-12.333 -8.5 -21 -8.5c-8 0 -14.833 2.83301 -20.5 8.5s-8.5 12.5 -8.5 20.5c0 6.66699 2.83301 13 8.5 19
s12.5 9 20.5 9c8.66699 0 15.667 -3 21 -9s8 -12.333 8 -19z" />
    <glyph glyph-name="Ygrave" unicode="Y&#x300;" horiz-adv-x="366" 
d="M366 476l-164 -266v-210h-38v209l-164 267h45l138 -233l138 233h45zM215 526h-31l-58 81l39 10z" />
    <glyph glyph-name="ygrave" unicode="y&#x300;" horiz-adv-x="337" 
d="M184 0c-39.333 -88.667 -91.667 -140.667 -157 -156l-9 31c56.667 12.667 99.667 58 129 136c0 2 -1 6 -3 12l-141 317h42l127 -288l119 288h43zM193.999 390h-31l-58 81l39 10z" />
    <glyph glyph-name="uni1EF4" unicode="Y&#x323;" horiz-adv-x="366" 
d="M366 476l-164 -266v-210h-38v209l-164 267h45l138 -233l138 233h45zM212 -77c0 -8 -2.66699 -14.833 -8 -20.5s-12.333 -8.5 -21 -8.5c-8 0 -14.833 2.83301 -20.5 8.5s-8.5 12.5 -8.5 20.5c0 6.66699 2.83301 13 8.5 19s12.5 9 20.5 9c8.66699 0 15.667 -3 21 -9
s8 -12.333 8 -19z" />
    <glyph glyph-name="uni1EF5" unicode="y&#x323;" horiz-adv-x="337" 
d="M184 0c-39.333 -88.667 -91.667 -140.667 -157 -156l-9 31c56.667 12.667 99.667 58 129 136c0 2 -1 6 -3 12l-141 317h42l127 -288l119 288h43zM265.999 -77c0 -8 -2.66699 -14.833 -8 -20.5s-12.333 -8.5 -21 -8.5c-8 0 -14.833 2.83301 -20.5 8.5s-8.5 12.5 -8.5 20.5
c0 6.66699 2.83301 13 8.5 19s12.5 9 20.5 9c8.66699 0 15.667 -3 21 -9s8 -12.333 8 -19z" />
    <glyph glyph-name="uni1EF6" unicode="Y&#x309;" horiz-adv-x="366" 
d="M366 476l-164 -266v-210h-38v209l-164 267h45l138 -233l138 233h45zM255 607c0 -20.667 -9.33301 -38.332 -28 -52.999s-28 -26 -28 -34h-31c0.666992 17.333 10.167 32.666 28.5 45.999s27.5 27 27.5 41c0 9.33301 -3.16699 16.5 -9.5 21.5s-14.833 7.5 -25.5 7.5
c-17.333 0 -32.333 -9.33301 -45 -28l-19 15c14.667 26.667 37.667 40 69 40c18 0 32.667 -4.83301 44 -14.5s17 -23.5 17 -41.5z" />
    <glyph glyph-name="uni1EF7" unicode="y&#x309;" horiz-adv-x="337" 
d="M184 0c-39.333 -88.667 -91.667 -140.667 -157 -156l-9 31c56.667 12.667 99.667 58 129 136c0 2 -1 6 -3 12l-141 317h42l127 -288l119 288h43zM226.896 461.911c0 -18.6006 -8.39746 -34.5029 -25.1973 -47.7031
c-16.8008 -13.2002 -25.2012 -23.4004 -25.2012 -30.6006h-27.9004c0.599609 15.6006 9.14941 29.4014 25.6504 41.4023c16.501 12 24.751 24.2998 24.751 36.9004c0 8.40039 -2.85059 14.8506 -8.55078 19.3506s-13.3506 6.75 -22.9512 6.75
c-15.6006 0 -29.1006 -8.40039 -40.501 -25.2002l-17.1006 13.5c13.2002 24.001 33.9004 36.001 62.1006 36.001c16.2002 0 29.4004 -4.34961 39.6006 -13.0498s15.2998 -21.1504 15.2998 -37.3506z" />
    <glyph glyph-name="uni1EF8" unicode="Y&#x303;" horiz-adv-x="366" 
d="M366 476l-164 -266v-210h-38v209l-164 267h45l138 -233l138 233h45zM269 588c-1.33301 -40 -18 -60 -50 -60c-6.66699 0 -13.667 1.66699 -21 5s-14.5 7.16602 -21.5 11.499s-13.667 8.16602 -20 11.499s-11.833 5 -16.5 5c-5.33301 0 -10.333 -3 -15 -9
s-7.33398 -14.667 -8.00098 -26h-25c0.666992 20 5.5 35 14.5 45s20.5 15 34.5 15c7.33301 0 14.5 -1.66699 21.5 -5s14 -7.16602 21 -11.499s13.833 -8.16602 20.5 -11.499s13.334 -5 20.001 -5c11.333 0 18 11.667 20 35h25z" />
    <glyph glyph-name="uni1EF9" unicode="y&#x303;" horiz-adv-x="337" 
d="M184 0c-39.333 -88.667 -91.667 -140.667 -157 -156l-9 31c56.667 12.667 99.667 58 129 136c0 2 -1 6 -3 12l-141 317h42l127 -288l119 288h43zM254.999 452c-1.33301 -40 -18 -60 -50 -60c-6.66699 0 -13.667 1.66699 -21 5s-14.5 7.16602 -21.5 11.499
s-13.667 8.16602 -20 11.499s-11.833 5 -16.5 5c-5.33301 0 -10.333 -3 -15 -9s-7.33398 -14.667 -8.00098 -26h-25c0.666992 20 5.5 35 14.5 45s20.5 15 34.5 15c7.33301 0 14.5 -1.66699 21.5 -5s14 -7.16602 21 -11.499s13.833 -8.16602 20.5 -11.499
s13.334 -5 20.001 -5c11.333 0 18 11.667 20 35h25z" />
    <glyph glyph-name="uni0E4F.liga" unicode="&#xe4f;&#x22;" horiz-adv-x="443" 
d="M289 163c0 17.333 -6.16699 32.333 -18.5 45s-27.5 19 -45.5 19s-33.167 -6.33301 -45.5 -19s-18.5 -27.667 -18.5 -45c0 -18 6.16699 -33.167 18.5 -45.5s27.5 -18.5 45.5 -18.5s33.167 6.16699 45.5 18.5s18.5 27.5 18.5 45.5zM324 163
c0 -27.333 -9.66699 -50.833 -29 -70.5s-42.666 -29.5 -69.999 -29.5s-50.666 9.83301 -69.999 29.5s-29 43.167 -29 70.5s9.66699 50.666 29 69.999s42.666 29 69.999 29s50.666 -9.66699 69.999 -29s29 -42.666 29 -69.999zM359 163c0 37.333 -13 69.001 -39 95.001
s-57.667 39 -95 39s-69 -13 -95 -39s-39 -57.667 -39 -95c0 -38 12.833 -70 38.5 -96s57.5 -39 95.5 -39c37.333 0 69 13.167 95 39.5s39 58.166 39 95.499zM394 163.001c0 -47.333 -16.5 -87.333 -49.5 -120s-72.833 -49 -119.5 -49c-47.333 0 -87.333 16.333 -120 49
s-49 72.667 -49 120c0 46.667 16.333 86.5 49 119.5s72.667 49.5 120 49.5c46 0 85.667 -16.667 119 -50s50 -73 50 -119zM278 385.001h-27l-10 161h47zM191 385.001h-27l-10 161h47z" />
    <glyph glyph-name="uni0E24.liga" unicode="&#xe24;&#xe32;" horiz-adv-x="575" 
d="M322 -200l-35.9971 -0.00195312v461c0 34 -10 60.333 -30 79s-46.333 28 -79 28c-22.667 0 -44.334 -6.5 -65.001 -19.5s-35 -29.5 -43 -49.5c40.667 -3.33301 67 -17.666 79 -42.999c-15.333 -3.33301 -29 -12.166 -41 -26.499s-18 -29.833 -18 -46.5v-65
c10.667 4.66699 20.667 7 30 7c18.667 0 34.5 -6.5 47.5 -19.5s19.5 -28.833 19.5 -47.5s-6.5 -34.334 -19.5 -47.001s-28.833 -19 -47.5 -19s-34.334 6.33301 -47.001 19s-19 28.334 -19 47.001v124c0 36 17 62.333 51 79c-18 7.33301 -44 11 -78 11
c5.33301 36.667 22.666 67.167 51.999 91.5s63 36.5 101 36.5c42.667 0 77.167 -12 103.5 -36s39.5 -57 39.5 -99v-465zM154.003 56.998c0 9.33301 -3.33301 17.333 -10 24s-14.667 10 -24 10s-17.166 -3.33301 -23.499 -10s-9.5 -14.667 -9.5 -24
s3.16699 -17.166 9.5 -23.499s14.166 -9.5 23.499 -9.5s17.333 3.16699 24 9.5s10 14.166 10 23.499zM519.003 -200.002l-36.001 0.000976562v499c0 20 -7.5 36.5 -22.5 49.5s-35.5 19.5 -61.5 19.5c-23.333 0 -42 -7.83301 -56 -23.5s-21.667 -32.5 -23 -50.5h-37
c0.666992 28 11.834 52.667 33.501 74s49.5 32 83.5 32c38.667 0 68.167 -9.33301 88.5 -28s30.5 -43.334 30.5 -74.001v-498z" />
    <glyph glyph-name="uni0E26.liga" unicode="&#xe26;&#xe32;" horiz-adv-x="621" 
d="M565 -200l-36.001 0.000976562v499c0 20 -7.5 36.5 -22.5 49.5s-35.5 19.5 -61.5 19.5c-23.333 0 -42 -7.83301 -56 -23.5s-21.667 -32.5 -23 -50.5h-37c0.666992 28 11.834 52.667 33.501 74s49.5 32 83.5 32c38.667 0 68.167 -9.33301 88.5 -28
s30.5 -43.334 30.5 -74.001v-498zM368.999 -199.999h-36.001v460c0 32.667 -10.167 58.834 -30.5 78.501s-46.5 29.5 -78.5 29.5c-22.667 0 -44.5 -6.5 -65.5 -19.5s-35.5 -29.5 -43.5 -49.5c35.333 -3.33301 62.333 -18 81 -44c-36 -12 -54 -36.333 -54 -73
c0 -26 3 -52.667 9 -80c2.66699 -12 4 -26 4 -42c0 -19.333 -6.5 -35.5 -19.5 -48.5s-28.5 -19.5 -46.5 -19.5s-33.333 6.33301 -46 19s-19 28 -19 46s6.33301 33.5 19 46.5s28 19.5 46 19.5c7.33301 0 15.333 -1.66699 24 -5c-4 30.667 -6 54 -6 70
c0 30.667 13.333 54.667 40 72c-18 8 -35.667 12 -53 12c-8.66699 0 -15 -0.333008 -19 -1c3.33301 37.333 19.5 68.166 48.5 92.499s62.833 36.5 101.5 36.5c42.667 0 77.334 -12.167 104.001 -36.5s40 -57.5 40 -99.5v-464zM122.998 57.001
c0 9.33301 -3.33301 17.333 -10 24s-14.667 10 -24 10s-17.166 -3.33301 -23.499 -10s-9.5 -14.667 -9.5 -24s3.16699 -17.166 9.5 -23.499s14.166 -9.5 23.499 -9.5s17.333 3.16699 24 9.5s10 14.166 10 23.499z" />
    <glyph glyph-name="fi" unicode="fi" horiz-adv-x="347" 
d="M295 340v-339.999h-39v309h-157v-309h-39v309h-50v31h50v17c0 47.333 11.833 85.166 35.5 113.499s58.167 42.5 103.5 42.5c32 0 60.333 -9 85 -27l-17 -30c-25.333 16 -50.333 24 -75 24c-62 0 -93 -41 -93 -123v-17h196z" />
    <glyph glyph-name="fl" unicode="fl" horiz-adv-x="404" 
d="M386 27l-4.00195 -34c-84 4 -126 63.333 -126 178v299c-13.333 6.66699 -29.666 10 -48.999 10c-20.667 0 -38 -3.5 -52 -10.5s-25.167 -16.167 -33.5 -27.5s-14.166 -24.666 -17.499 -39.999s-5 -31 -5 -47v-15h98v-31h-98v-309h-39v309h-50v31h50v10
c0 54 14.667 94.667 44 122s66.333 41 111 41c26 0 52.667 -6.66699 80 -20v-307c0 -48.667 4.33301 -84 13 -106c13.333 -34.667 39.333 -52.334 78 -53.001z" />
    <glyph glyph-name="PSK" unicode="PSK&#x2e;Design&#x28;c&#x29;" horiz-adv-x="954" 
d="M212 520c0 18.667 -14.667 28 -44 28h-38v-57h38c29.333 0 44 9.66699 44 29zM271 519c0 -48.667 -33.333 -73 -100 -73h-41v-80h-58v225h110c59.333 0 89 -24 89 -72zM779 366l-82 114v-114h-60v225h60v-96l82 96h70l-89 -100l96 -125h-77zM916 666
c-3.33301 -17.333 -13.333 -26 -30 -26c-20.667 0 -31 12 -31 36s10.333 36 31 36c18 0 27.667 -8 29 -24h-16c-2 6.66699 -6.33301 10 -13 10c-8.66699 0 -13 -7 -13 -21c0 -16 4.66699 -24 14 -24c7.33301 0 11.333 4.33301 12 13h17zM237 120
c0 17.333 -8.33301 26 -25 26c-18 0 -27 -8.33301 -27 -25s9 -25 27 -25c16.667 0 25 8 25 24zM261 121c0 -28 -17 -42 -51 -42c-32 0 -48 14 -48 42c0 27.333 16.667 41 50 41c32.667 0 49 -13.667 49 -41zM325 135c0 6.66699 -5.66699 10 -17 10h-15v-21h15
c11.333 0 17 3.66699 17 11zM348 135c0 -18 -12.667 -27 -38 -27h-17v-25h-21v79h41c23.333 0 35 -9 35 -27zM404 83h-23v28l-36 51h26l24 -34c2 2.66699 9.33301 14 22 34h23l-36 -52v-27zM196 17l-7 17l-8 -17h15zM215 0h-13l-4 9h-20l-4 -9h-12l20 43h15zM689 0h-34v43
h34v-9h-23v-8h21v-8h-21v-9h23v-9zM774 43l-17 -43h-12l-18 43h12l12 -32l12 32h11zM847 21c0 8.66699 -4.33301 13 -13 13h-8v-24h8c8.66699 0 13 3.66699 13 11zM858 21c0 -14 -8 -21 -24 -21h-20v43h20c16 0 24 -7.33301 24 -22zM249 0h-32v43h10v-34h22v-9zM332 30
c0 3.33301 -2.66699 5 -8 5h-6v-9h6c5.33301 0 8 1.33301 8 4zM345 32c0 -5.33301 -2.66699 -9.00098 -8 -11.001c4 -1.33301 7.33301 -8.33301 10 -21h-13c0 2.66699 -0.333008 5.33398 -1 8.00098c-2 6 -5 9 -9 9h-6v-17h-11v43h21c11.333 0 17 -3.66699 17 -11z
M361 42.999v-43h-9v43h9zM412 2.99902c-6 -2.66699 -12.334 -4 -19.001 -4c-17.333 0 -26 7.33301 -26 22c0 15.333 8.33301 23 25 23c12.667 0 19.334 -5.33301 20.001 -16h-11c-0.666992 4.66699 -3.66699 7 -9 7c-8.66699 0 -13 -4.33301 -13 -13
c0 -9.33301 4.66699 -14 14 -14c3.33301 0 6 0.333008 8 1v7h-9v8h20v-21zM461.999 -0.000976562h-11v18h-22v-18h-11v43h11v-17h22v17h11v-43zM505.999 33.999h-14v-34h-12v34h-15v9h41v-9zM564.999 82.999h-25v79h25v-79zM667.999 85.999c-12 -3.33301 -25.667 -5 -41 -5
c-34 0 -51 13.667 -51 41s16.333 41 49 41c26.667 0 41 -9 43 -27h-26c-1.33301 7.33301 -7.33301 11 -18 11c-16 0 -24 -8 -24 -24c0 -17.333 9 -26 27 -26l16 2v14h-19v13h44v-40zM767.999 82.999h-23v32h-40v-32h-24v79h24v-31h40v31h23v-79zM863.999 143.999h-33v-61
h-23v61h-31v18h87v-18zM505.999 136.999c0 5.33301 -6 8 -18 8h-15v-19h15c12 0 18 3.66699 18 11zM530.999 82.999h-21.999l-5 20c-0.666992 6.66699 -6.33398 10 -17.001 10h-14v-30h-23v79h45c22.667 0 34 -7 34 -21c0 -8.66699 -5.66699 -15 -17 -19
c10 -2 15 -8.33301 15 -19zM650 12.999c0 -9.33301 -6.66699 -14 -20 -14c-12 0 -18 5.33301 -18 16h11c0 -4.66699 2.66699 -7 8 -7c4.66699 0 7 1.33301 7 4c0 0.666992 -4.16699 2.5 -12.5 5.5s-12.5 7.16699 -12.5 12.5c0 9.33301 6 14 18 14s18 -4.66699 18 -14h-11
c0 4 -2.33301 6 -7 6s-7 -1.66699 -7 -5c0 -2.66699 4.33301 -5 13 -7s13 -5.66699 13 -11zM809 -0.000976562h-33v43h33v-9h-21v-8h20v-8h-20v-9h21v-9zM608 8.99902v-9h-34v43h33v-9h-22v-8h21v-8h-21v-9h23zM156 108.999c-2 -20 -16.333 -30 -43 -30
c-31.333 0 -47 14.333 -47 43c0 28 16.333 42 49 42c24.667 0 38.334 -10 41.001 -30h-26c-0.666992 8.66699 -6.33398 13 -17.001 13c-15.333 0 -23 -8.33301 -23 -25s7.33301 -25 22 -25c11.333 0 17.333 4 18 12h26zM867 198.999h-809v25h809v-25zM562 405.999
c0 -52.667 -19.332 -91.3291 -57.999 -115.996c-30.667 -20 -70 -30 -118 -30c-40.667 0 -72.5 8.66699 -95.5 26s-34.5 41.666 -34.5 72.999c0 10.667 1.33301 21 4 31h38c-0.666992 -4.66699 -1 -10.334 -1 -17.001c0 -52.667 33 -79 99 -79c29.333 0 55.666 7 78.999 21
c30 18 45 43.667 45 77c0 25.333 -17.333 44.666 -52 57.999l-95 32c-34.667 14.667 -52 36 -52 64c0 45.333 17.333 80 52 104c30.667 20.667 70.334 31 119.001 31c33.333 0 59.833 -7 79.5 -21s29.5 -33.667 29.5 -59c0 -10 -1.66699 -21 -5 -33h-36
c1.33301 9.33301 2 15.666 2 18.999c0 40 -22 60 -66 60c-40 0 -71.833 -7.66699 -95.5 -23s-35.5 -36 -35.5 -62c0 -17.333 6 -30.333 18 -39s37.167 -18.5 75.5 -29.5s65.166 -23 80.499 -36s23 -30.167 23 -51.5zM947.001 675.004c0 -17.333 -5.66699 -31.333 -17 -42
s-25.666 -16 -42.999 -16c-16.667 0 -30.5 5.33301 -41.5 16s-16.5 24.667 -16.5 42s5.5 31.5 16.5 42.5s24.833 16.5 41.5 16.5c17.333 0 31.666 -5.5 42.999 -16.5s17 -25.167 17 -42.5zM938.001 674.004c0 14 -5 25.833 -15 35.5s-22 14.5 -36 14.5
c-13.333 0 -24.666 -4.83301 -33.999 -14.5s-14 -21.5 -14 -35.5s4.66699 -25.667 14 -35s20.666 -14 33.999 -14c14 0 26 4.66699 36 14s15 21 15 35zM557.001 30.0039c0 3.33301 -2.33301 5 -7 5h-7v-9h7c4.66699 0 7 1.33301 7 4zM569.001 32.0039
c0 -5.33301 -2.66699 -9.00098 -8 -11.001c4 -1.33301 7.33301 -8.33301 10 -21h-12c0 2.66699 -0.333008 5.33398 -1 8.00098c-2 6 -4.66699 9 -8 9h-7v-17h-12v43h22c10.667 0 16 -3.66699 16 -11zM702.001 26.0029h7c4.66699 0 7 1.33301 7 4c0 3.33301 -2.33301 5 -7 5
h-7v-9zM730.001 0.00292969l-12 -0.000976562c0 2.66699 -0.333008 5.33398 -1 8.00098c-2 6 -4.66699 9 -8 9h-7v-17h-10v43h21c10 0 15 -3.66699 15 -11c0 -5.33301 -2.66699 -9 -8 -11c4 -1.33301 7.33301 -8.33301 10 -21zM284.001 0.00195312h-32v43h10v-34h22v-9z" />
    <glyph glyph-name=".notdef" horiz-adv-x="692" 
d="M642 0h-592v809h592v-809zM612 28v753h-532v-753h532z" />
    <glyph glyph-name="space" unicode=" " horiz-adv-x="216" 
 />
    <glyph glyph-name="exclam" unicode="!" horiz-adv-x="147" 
d="M88 120h-32l-7 355h47zM107 28c0 -9.33301 -3.5 -17.333 -10.5 -24s-15.167 -10 -24.5 -10s-17.333 3.33301 -24 10s-10 14.667 -10 24s3.33301 17.5 10 24.5s14.667 10.5 24 10.5s17.5 -3.5 24.5 -10.5s10.5 -15.167 10.5 -24.5z" />
    <glyph glyph-name="quotedbl" unicode="&#x22;" horiz-adv-x="208" 
d="M161 338h-27l-10 161h47zM74 338h-27l-10 161h47z" />
    <glyph glyph-name="numbersign" unicode="#" horiz-adv-x="403" 
d="M361 149h-72l-19 -149h-35l19 149h-128l-18 -149h-35l18 149h-64v31h68l14 119h-68v32h72l19 144h33l-18 -144h129l17 144h35l-18 -144h65v-32h-69l-14 -119h69v-31zM258 180l14 119h-129l-13 -119h128z" />
    <glyph glyph-name="dollar" unicode="$" horiz-adv-x="361" 
d="M308 133c0 -26.667 -9.00098 -50.668 -27.001 -72.001c-20.667 -23.333 -49 -38.333 -85 -45v-74h-35v74c-42.667 0 -79 11.667 -109 35l18 31c26.667 -22.667 60 -34 100 -34c30 0 54.167 7.83301 72.5 23.5s27.5 35.5 27.5 59.5c0 38.667 -29.333 70.334 -88 95.001
c-80 33.333 -120 74.666 -120 123.999c0 28.667 9.66699 53 29 73s45.333 32.333 78 37v76h34v-76c32.667 -2 63.334 -11.667 92.001 -29l-18 -32c-22.667 19.333 -52.667 29 -90 29c-29.333 0 -52 -8.33301 -68 -25c-13.333 -13.333 -20 -29.333 -20 -48
c0 -20 7 -36.5 21 -49.5s38.333 -27.167 73 -42.5c39.333 -17.333 67.333 -34.333 84 -51c20.667 -21.333 31 -47.666 31 -78.999z" />
    <glyph glyph-name="percent" unicode="%" horiz-adv-x="585" 
d="M453 476l-290 -485h-34l290 485h34zM248 334c0 -94.667 -35.667 -142 -107 -142s-107 47.333 -107 142s35.667 142 107 142s107 -47.333 107 -142zM212 334c0 73.333 -23.667 110 -71 110s-71 -36.667 -71 -110s23.667 -110 71 -110s71 36.667 71 110zM550 139
c0 -94.667 -35.667 -142 -107 -142s-107 47.333 -107 142s35.667 142 107 142s107 -47.333 107 -142zM514 139c0 73.333 -23.667 110 -71 110s-71 -36.667 -71 -110s23.667 -110 71 -110s71 36.667 71 110z" />
    <glyph glyph-name="ampersand" unicode="&#x26;" horiz-adv-x="423" 
d="M413 256c-16 -84.667 -38.334 -143.333 -67.001 -176l84 -80h-50l-56 53c-49.333 -41.333 -103 -62 -161 -62c-40 0 -74 13.167 -102 39.5s-42 58.833 -42 97.5c0 63.333 33.667 111.666 101 144.999c-28.667 38 -43 72 -43 102c0 32 10.667 59.667 32 83s50 35 86 35
c29.333 0 53.333 -9.16699 72 -27.5s28 -41.833 28 -70.5c0 -53.333 -40.667 -98.333 -122 -135l150 -159c22.667 30.667 40.334 82.334 53.001 155.001h37zM259.999 391.001c0 19.333 -5.33203 35.6689 -15.999 49.002c-12.667 15.333 -30.334 23 -53.001 23
c-23.333 0 -42 -8.33301 -56 -25s-21 -36.334 -21 -59.001c0 -26 14 -57.333 42 -94c69.333 33.333 104 68.666 104 105.999zM301 77.0039c-60.667 60.667 -114.333 117.666 -161 170.999c-55.333 -29.333 -83 -67.666 -83 -114.999c0 -32.667 11 -59.167 33 -79.5
s49.333 -30.5 82 -30.5c50 0 93 18 129 54z" />
    <glyph glyph-name="quotesingle" unicode="'" horiz-adv-x="120" 
d="M74 338h-27l-10 161h46z" />
    <glyph glyph-name="parenleft" unicode="(" horiz-adv-x="190" 
d="M169 -58l-38 -0.000976562c-74 80.667 -111 178 -111 292c0 108 36.667 207.333 110 298h40c-74.667 -85.333 -112 -184.666 -112 -297.999c0 -106 37 -203.333 111 -292z" />
    <glyph glyph-name="parenright" unicode=")" horiz-adv-x="190" 
d="M169 237c0 -110.667 -37 -209 -111 -295h-38c74 92.667 111 191 111 295c0 105.333 -37 203.666 -111 294.999h38c74 -83.333 111 -181.666 111 -294.999z" />
    <glyph glyph-name="asterisk" unicode="*" horiz-adv-x="285" 
d="M267 356l-103 9l64 -86l-33 -21l-53 99l-52 -99l-33 21l64 86l-103 -9v38l103 -7l-64 85l38 22l48 -92l47 92l38 -22l-64 -85l103 7v-38z" />
    <glyph glyph-name="plus" unicode="+" horiz-adv-x="411" 
d="M373 165h-150v-165h-35v165h-150v33h150v159h35v-159h150v-33z" />
    <glyph glyph-name="comma" unicode="," horiz-adv-x="162" 
d="M123 27c-1.33301 -36 -12.332 -67.667 -32.999 -95c-14 -19.333 -29.333 -33 -46 -41l-14 15c34.667 23.333 54 52.333 58 87c-10.667 0 -19.834 3.66699 -27.501 11s-11.5 16 -11.5 26s3.66699 18.833 11 26.5s16 11.5 26 11.5c10.667 0 19.5 -4 26.5 -12
s10.5 -17.667 10.5 -29z" />
    <glyph glyph-name="hyphen" unicode="-" horiz-adv-x="216" 
d="M195 165h-175v33h175v-33z" />
    <glyph glyph-name="hyphen" unicode="&#xad;" horiz-adv-x="216" 
d="M195 165h-175v33h175v-33z" />
    <glyph glyph-name="period" unicode="." horiz-adv-x="162" 
d="M115 28c0 -9.33301 -3.5 -17.333 -10.5 -24s-15.167 -10 -24.5 -10s-17.333 3.33301 -24 10s-10 14.667 -10 24s3.33301 17.5 10 24.5s14.667 10.5 24 10.5s17.5 -3.5 24.5 -10.5s10.5 -15.167 10.5 -24.5z" />
    <glyph glyph-name="slash" unicode="/" horiz-adv-x="270" 
d="M278 493l-258 -522h-38l255 522h41z" />
    <glyph glyph-name="zero" unicode="0" horiz-adv-x="362" 
d="M330 227c0 -55.333 -10.666 -105.667 -31.999 -151c-27.333 -58 -66.333 -87 -117 -87c-51.333 0 -90.666 29 -117.999 87c-21.333 44.667 -32 95 -32 151c0 67.333 11.667 124.333 35 171c27.333 54 65.666 81 114.999 81s87.666 -27 114.999 -81
c22.667 -46.667 34 -103.667 34 -171zM290.001 227.999c0 58 -8.33301 107 -25 147c-20 46.667 -48 70 -84 70c-36.667 0 -65 -23.333 -85 -70c-16.667 -39.333 -25 -88.333 -25 -147c0 -48 8 -91.333 24 -130c20 -50 48.667 -75 86 -75c36.667 0 65 25 85 75
c16 38.667 24 82 24 130z" />
    <glyph glyph-name="one" unicode="1" horiz-adv-x="362" 
d="M287 0h-190v36h75v381l-75 -65l-22 25l115 101c14.667 0 22 -12.667 22 -38v-404h75v-36z" />
    <glyph glyph-name="two" unicode="2" horiz-adv-x="362" 
d="M335 39l-8 -39h-301c2.66699 16.667 7.33398 35.667 14.001 57l95 94c34.667 33.333 73.334 75.666 116.001 126.999c21.333 28.667 32 56 32 82s-8.33301 46 -25 60s-38.334 21 -65.001 21c-60 0 -94 -30 -102 -90l-36 10c4 38.667 19.333 68.334 46 89.001
c24 18.667 55 28 93 28c37.333 0 68.166 -11.5 92.499 -34.5s36.5 -51.833 36.5 -86.5c0 -50.667 -40 -114.334 -120 -191.001c-58 -57.333 -99 -99.666 -123 -126.999h255z" />
    <glyph glyph-name="three" unicode="3" horiz-adv-x="362" 
d="M328 161c0 -50.667 -17.3311 -91.667 -51.998 -123s-79.334 -47.666 -134.001 -48.999c-44 -1.33301 -80 11 -108 37l17 31c24.667 -18.667 57 -28 97 -28c38.667 0 71.667 13 99 39s41 56.333 41 91c0 26 -8 47.667 -24 65s-36.333 26 -61 26
c-28.667 0 -51 -7.66699 -67 -23l-19 32l76 59c38 32 57 57 57 75c0 32.667 -22.667 49 -68 49c-50 0 -87.333 -25 -112 -75l-28 15c10.667 29.333 29 52.666 55 69.999s55.333 26 88 26c28 0 52 -7.5 72 -22.5s30 -35.5 30 -61.5c0 -30.667 -27.333 -66.667 -82 -108h6
c35.333 0 63.666 -11.833 84.999 -35.5s32 -53.5 32 -89.5z" />
    <glyph glyph-name="four" unicode="4" horiz-adv-x="362" 
d="M234 148v289.001c-46 -22.667 -84 -62.334 -114 -119.001c-28.667 -54 -43.667 -110.667 -45 -170h159zM274 148.001l70.999 -0.000976562l-5 -37h-66v-111h-40v111h-202c1.33301 99.333 23.833 183.333 67.5 252s101.834 110.334 174.501 125.001v-340z" />
    <glyph glyph-name="five" unicode="5" horiz-adv-x="362" 
d="M318 164c0 -51.333 -17.332 -92.833 -51.999 -124.5s-79.334 -47.5 -134.001 -47.5c-46 0 -82 12.333 -108 37l17 31c9.33301 -6 19.333 -11.667 30 -17c18.667 -8.66699 41.667 -13 69 -13c36 0 67.833 11.667 95.5 35s41.5 56 41.5 98c0 36 -12 63 -36 81
c-20 16 -46 24 -78 24c-28 0 -50.333 -11 -67 -33l-21 -2l15 242h213l-7 -38h-168l-9 -141c17.333 6.66699 36 10 56 10c38.667 0 71.667 -12 99 -36c29.333 -26.667 44 -62 44 -106z" />
    <glyph glyph-name="six" unicode="6" horiz-adv-x="362" 
d="M322 145c0 -43.333 -12.168 -79.666 -36.501 -108.999s-57.5 -44 -99.5 -44c-47.333 0 -84.666 18 -111.999 54c-24 32 -36 72.333 -36 121c0 76.667 23.667 145.167 71 205.5s107.666 97.5 180.999 111.5l3 -29c-44.667 -12.667 -85.334 -36.334 -122.001 -71.001
c-41.333 -38.667 -69.666 -84.667 -84.999 -138c2.66699 10 12.334 20.667 29.001 32c21.333 13.333 46 20 74 20c39.333 0 71.333 -15 96 -45s37 -66 37 -108zM281.999 145c0 33.333 -9 61.666 -27 84.999s-42.667 35 -74 35c-28.667 0 -53 -11.667 -73 -35
s-30 -51.666 -30 -84.999c0 -32.667 10 -60.667 30 -84s44.333 -35 73 -35c32 0 56.833 11.667 74.5 35s26.5 51.333 26.5 84z" />
    <glyph glyph-name="seven" unicode="7" horiz-adv-x="362" 
d="M173 0l-42.001 0.000976562c0 100.667 20 197 60 289c9.33301 21.333 25.333 51.166 48 89.499s34.334 57.833 35.001 58.5h-241l15 38h281l-8 -40c-44.667 -58.667 -80.5 -122.167 -107.5 -190.5s-40.5 -149.833 -40.5 -244.5z" />
    <glyph glyph-name="eight" unicode="8" horiz-adv-x="362" 
d="M288 125c0 26 -8.99902 50.833 -26.999 74.5s-45 36.5 -81 38.5c-35.333 -2 -62 -14.833 -80 -38.5s-27 -48.5 -27 -74.5c0 -30 10.167 -53.833 30.5 -71.5s46.166 -26.5 77.499 -26.5c30.667 0 56.167 8.83301 76.5 26.5s30.5 41.5 30.5 71.5zM273.001 361
c0 23.333 -8.33203 42.666 -24.999 57.999s-39 23 -67 23c-28.667 0 -51.334 -7.66699 -68.001 -23s-25 -34.666 -25 -57.999c0 -41.333 30.667 -69.666 92 -84.999c62 15.333 93 43.666 93 84.999zM328.002 128c0 -42.667 -13.333 -76 -40 -100s-62.667 -36 -108 -36
c-44.667 0 -80.334 12 -107.001 36s-40 57.333 -40 100c0 32.667 9.5 60.834 28.5 84.501s43.167 38.5 72.5 44.5c-24.667 7.33301 -45.167 20.5 -61.5 39.5s-24.5 39.5 -24.5 61.5c0 35.333 12.333 64.333 37 87s56.667 34 96 34c38.667 0 70.334 -11.333 95.001 -34
s37 -51.667 37 -87c0 -22 -8.16699 -42.5 -24.5 -61.5s-36.833 -32.167 -61.5 -39.5c29.333 -6 53.5 -20.833 72.5 -44.5s28.5 -51.834 28.5 -84.501z" />
    <glyph glyph-name="nine" unicode="9" horiz-adv-x="362" 
d="M322 305c0 -76.667 -23.666 -145.167 -70.999 -205.5s-107.666 -97.5 -180.999 -111.5l-3 29c44.667 12.667 85.334 36.334 122.001 71.001c41.333 38.667 69.666 84.667 84.999 138c-2.66699 -10 -12.334 -20.667 -29.001 -32c-21.333 -13.333 -46 -20 -74 -20
c-39.333 0 -71.333 15 -96 45s-37 66 -37 108c0 43.333 12.167 79.666 36.5 108.999s57.5 44 99.5 44c47.333 0 84.666 -18 111.999 -54c24 -32 36 -72.333 36 -121zM282.001 327c0 32.667 -10 60.667 -30 84s-44.333 35 -73 35c-32 0 -56.833 -11.667 -74.5 -35
s-26.5 -51.333 -26.5 -84c0 -33.333 9 -61.666 27 -84.999s42.667 -35 74 -35c28.667 0 53 11.667 73 35s30 51.666 30 84.999z" />
    <glyph glyph-name="colon" unicode=":" horiz-adv-x="162" 
d="M115 28c0 -9.33301 -3.5 -17.333 -10.5 -24s-15.167 -10 -24.5 -10s-17.333 3.33301 -24 10s-10 14.667 -10 24s3.33301 17.5 10 24.5s14.667 10.5 24 10.5s17.5 -3.5 24.5 -10.5s10.5 -15.167 10.5 -24.5zM115 283c0 -9.33301 -3.5 -17.333 -10.5 -24
s-15.167 -10 -24.5 -10s-17.333 3.33301 -24 10s-10 14.667 -10 24s3.33301 17.5 10 24.5s14.667 10.5 24 10.5s17.5 -3.5 24.5 -10.5s10.5 -15.167 10.5 -24.5z" />
    <glyph glyph-name="semicolon" unicode=";" horiz-adv-x="162" 
d="M123 27c-1.33301 -36 -12.332 -67.667 -32.999 -95c-14 -19.333 -29.333 -33 -46 -41l-14 15c34.667 23.333 54 52.333 58 87c-10.667 0 -19.834 3.66699 -27.501 11s-11.5 16 -11.5 26s3.66699 18.833 11 26.5s16 11.5 26 11.5c10.667 0 19.5 -4 26.5 -12
s10.5 -17.667 10.5 -29zM115.001 283c0 -9.33301 -3.5 -17.333 -10.5 -24s-15.167 -10 -24.5 -10s-17.333 3.33301 -24 10s-10 14.667 -10 24s3.33301 17.5 10 24.5s14.667 10.5 24 10.5s17.5 -3.5 24.5 -10.5s10.5 -15.167 10.5 -24.5z" />
    <glyph glyph-name="less" unicode="&#x3c;" horiz-adv-x="411" 
d="M366 36v-38l-322 176v27l322 176v-37l-282 -153z" />
    <glyph glyph-name="equal" unicode="=" horiz-adv-x="411" 
d="M356 265v-33h-301v33h301zM356 135v-33h-301v33h301z" />
    <glyph glyph-name="greater" unicode="&#x3e;" horiz-adv-x="411" 
d="M366 201v-27l-322 -176v38l282 152l-282 152v37z" />
    <glyph glyph-name="question" unicode="?" horiz-adv-x="283" 
d="M138 123l-34 -0.000976562c-3.33301 10 -5 21.667 -5 35c0 35.333 18.167 73.333 54.5 114s54.5 75.334 54.5 104.001c0 48 -27.333 72 -82 72c-31.333 0 -58 -8.66699 -80 -26l-15 30c32 20.667 66 31 102 31c38 0 67 -11 87 -33c18 -19.333 27 -43.333 27 -72
c0 -35.333 -21 -75.333 -63 -120c-32.667 -34.667 -49 -69 -49 -103c0 -12 1 -22.667 3 -32zM154 27.999c0 -9.33301 -3.5 -17.333 -10.5 -24s-15.167 -10 -24.5 -10s-17.333 3.33301 -24 10s-10 14.667 -10 24s3.33301 17.5 10 24.5s14.667 10.5 24 10.5
s17.5 -3.5 24.5 -10.5s10.5 -15.167 10.5 -24.5z" />
    <glyph glyph-name="at" unicode="@" horiz-adv-x="536" 
d="M510 176c0 -45.333 -14.001 -83.9971 -42.001 -115.997s-58.333 -49 -91 -51l-31 -2l-10 45c-26.667 -34 -62 -51 -106 -51c-8 0 -14.333 0.333008 -19 1c-21.333 3.33301 -39.5 12.666 -54.5 27.999s-22.5 33 -22.5 53c0 74.667 66.667 112 200 112v5
c0 56.667 -27 85 -81 85c-29.333 0 -54.333 -8 -75 -24l-11 25c26 19.333 55.333 29 88 29c76 0 114 -42.333 114 -127v-107c0 -14.667 1.33301 -28.334 4 -41.001c26 1.33301 49.667 15 71 41s32 56.667 32 92c0 55.333 -17.333 101.166 -52 137.499
s-81.667 54.5 -141 54.5c-62.667 0 -114.667 -20.667 -156 -62c-44 -44 -66 -100.667 -66 -170c0 -57.333 18.333 -104.833 55 -142.5s82 -56.5 136 -56.5c46 0 85 10 117 30l14 -29c-40 -21.333 -84.667 -32 -134 -32c-62.667 0 -116 21.333 -160 64s-66 97 -66 163
c0 72.667 23.333 134 70 184c49.333 53.333 114.333 80 195 80c66.667 0 120.334 -20.667 161.001 -62s61 -93.333 61 -156zM333.999 105.003v61c-108.667 -1.33301 -163 -27 -163 -77c0 -40 20.333 -60 61 -60c48 0 81.333 21 100 63c1.33301 2.66699 2 7 2 13z" />
    <glyph glyph-name="A" unicode="A" horiz-adv-x="400" 
d="M400 0h-43l-55 153h-205l-54 -153h-43l180 483h40zM290 186l-90 254l-91 -254h181z" />
    <glyph glyph-name="B" unicode="B" horiz-adv-x="378" 
d="M346 133c0 -92.667 -67 -138.999 -201 -138.999c-29.333 0 -59.666 3.33301 -90.999 10v465c33.333 8.66699 66.666 13 99.999 13c115.333 0 173 -40 173 -120c0 -24 -7.16699 -45.833 -21.5 -65.5s-33.5 -33.834 -57.5 -42.501c24 -6 46.333 -19.5 67 -40.5
s31 -47.833 31 -80.5zM288 361.001c0 58.667 -44.666 88 -133.999 88c-20.667 0 -41 -2.33301 -61 -7v-174h81c35.333 0 63.666 9.33301 84.999 28c19.333 17.333 29 39 29 65zM308.001 132.001c0 35.333 -13.833 61.499 -41.5 78.499s-62.5 25.5 -104.5 25.5h-69v-204
c18 -4 38 -6 60 -6c42.667 0 77.667 7.66699 105 23c33.333 18.667 50 46.334 50 83.001z" />
    <glyph glyph-name="C" unicode="C" horiz-adv-x="406" 
d="M367 50l12 -31.999c-35.333 -16.667 -78.666 -25 -129.999 -25c-64.667 0 -118.5 23.167 -161.5 69.5s-64.5 105.166 -64.5 176.499s21.5 129.833 64.5 175.5s96.833 68.5 161.5 68.5c51.333 0 94.666 -8.33301 129.999 -25l-12 -32c-36 15.333 -74.667 23 -116 23
c-51.333 0 -95 -19 -131 -57c-38 -40 -57 -91.333 -57 -154s19 -114 57 -154c36 -38 79.667 -57 131 -57c41.333 0 80 7.66699 116 23z" />
    <glyph glyph-name="D" unicode="D" horiz-adv-x="431" 
d="M402 248c0 -168 -75.332 -252 -225.999 -252c-20 0 -60.667 3 -122 9v464c61.333 8 108.666 12 141.999 12c60.667 0 110 -20.333 148 -61c38.667 -42.667 58 -100 58 -172zM363.001 248c0 63.333 -16.667 113 -50 149c-30.667 33.333 -70.667 50 -120 50
c-20.667 0 -54 -2.66699 -100 -8v-403c33.333 -4 65 -6 95 -6c54 0 96.667 19.167 128 57.5s47 91.833 47 160.5z" />
    <glyph glyph-name="E" unicode="E" horiz-adv-x="351" 
d="M313 0h-259v476h259v-33h-220v-175h196v-33h-196v-202h220v-33z" />
    <glyph glyph-name="F" unicode="F" horiz-adv-x="351" 
d="M308 229h-215v-229h-39v476h269v-33h-230v-181h215v-33z" />
    <glyph glyph-name="G" unicode="G" horiz-adv-x="425" 
d="M383 238l-0.000976562 -228.001c-5.33301 4 -12.333 6 -21 6l-59 -10.5c-39.333 -7 -65.666 -10.5 -78.999 -10.5c-60.667 0 -109.334 22.167 -146.001 66.5s-55 103.5 -55 177.5c0 70.667 19 128 57 172c39.333 46.667 93 70 161 70c48.667 0 91.334 -8 128.001 -24
l-12 -32c-40 15.333 -79.333 23 -118 23c-50 0 -91.833 -19.667 -125.5 -59s-50.5 -89.666 -50.5 -150.999c0 -65.333 14.5 -116.833 43.5 -154.5s70.167 -56.5 123.5 -56.5c42 0 80.333 8.33301 115 25v154h-121v32h159z" />
    <glyph glyph-name="H" unicode="H" horiz-adv-x="441" 
d="M387 0h-39v237h-255v-237h-39v476h39v-206h255v206h39v-476z" />
    <glyph glyph-name="I" unicode="I" horiz-adv-x="147" 
d="M93 0h-39v476h39v-476z" />
    <glyph glyph-name="J" unicode="J" horiz-adv-x="264" 
d="M210 156c0 -110 -46.666 -164.999 -139.999 -164.999c-26 0 -49.667 5 -71 15l10 31c15.333 -8 35.666 -12 60.999 -12c34.667 0 60.167 10.167 76.5 30.5s24.5 57.166 24.5 110.499v310h39v-320z" />
    <glyph glyph-name="K" unicode="K" horiz-adv-x="376" 
d="M390 9l-35 -14l-211 253l-51 -51v-197h-39v476h39v-229l237 235l39 -11l-198 -198z" />
    <glyph glyph-name="L" unicode="L" horiz-adv-x="353" 
d="M327 0h-273v476h39v-443h234v-33z" />
    <glyph glyph-name="M" unicode="M" horiz-adv-x="548" 
d="M508 0h-37l-30 420l-154 -420h-26l-154 420l-30 -420h-37l33 476h46l155 -427l155 427h46z" />
    <glyph glyph-name="N" unicode="N" horiz-adv-x="441" 
d="M387 0h-41l-252 421v-421h-40v476h45l250 -415v415h38v-476z" />
    <glyph glyph-name="O" unicode="O" horiz-adv-x="486" 
d="M464 237c0 -71.333 -20.5 -130.333 -61.5 -177s-94.167 -70 -159.5 -70s-118.5 23.333 -159.5 70s-61.5 105.667 -61.5 177s20.5 130.333 61.5 177s94.167 70 159.5 70s118.5 -23.333 159.5 -70s61.5 -105.667 61.5 -177zM425 237c0 58.667 -17 108.834 -51 150.501
s-77.667 62.5 -131 62.5s-97 -20.833 -131 -62.5s-51 -91.834 -51 -150.501s17 -108.834 51 -150.501s77.667 -62.5 131 -62.5s97 20.833 131 62.5s51 91.834 51 150.501z" />
    <glyph glyph-name="P" unicode="P" horiz-adv-x="378" 
d="M345 344c0 -50 -20 -88.668 -60 -116.001c-34.667 -23.333 -78 -34.666 -130 -33.999c-21.333 0 -42 2 -62 6v-200h-39v471c40 6.66699 78.333 10 115 10c48 0 88.333 -11 121 -33c36.667 -25.333 55 -60 55 -104zM308 340.999c0 70.667 -46.667 106 -140 106
c-33.333 0 -58.333 -1.66699 -75 -5v-208c18 -4.66699 41.333 -7 70 -7c96.667 5.33301 145 43.333 145 114z" />
    <glyph glyph-name="Q" unicode="Q" horiz-adv-x="487" 
d="M464 237c0 -57.333 -13.999 -107.666 -41.999 -150.999c-29.333 -45.333 -69.333 -74.333 -120 -87c39.333 -16.667 84.666 -26.334 135.999 -29.001l-14 -37c-66 15.333 -126.333 34.333 -181 57c-65.333 0 -118.5 23.333 -159.5 70s-61.5 105.667 -61.5 177
s20.5 130.333 61.5 177s94.167 70 159.5 70s118.5 -23.333 159.5 -70s61.5 -105.667 61.5 -177zM425.001 237c0 58.667 -17 108.834 -51 150.501s-77.667 62.5 -131 62.5s-97 -20.833 -131 -62.5s-51 -91.834 -51 -150.501s17 -108.834 51 -150.501s77.667 -62.5 131 -62.5
s97 20.833 131 62.5s51 91.834 51 150.501z" />
    <glyph glyph-name="R" unicode="R" horiz-adv-x="379" 
d="M358 0l-38 0.000976562c-18 144.667 -63 217 -135 217h-92v-217h-39v470c37.333 7.33301 76.333 11 117 11c51.333 -0.666992 92 -10.667 122 -30c34.667 -22.667 52 -55.334 52 -98.001c0 -59.333 -30.667 -100.333 -92 -123c35.333 -19.333 62 -55.333 80 -108
c8.66699 -27.333 17 -68 25 -122zM308 348.001c0 66 -45.666 99 -136.999 99c-36.667 0 -62.667 -2.33301 -78 -7v-192h89c39.333 0 70.166 8.83301 92.499 26.5s33.5 42.167 33.5 73.5z" />
    <glyph glyph-name="S" unicode="S" horiz-adv-x="352" 
d="M320 124c0 -36 -13 -66 -39 -90c-29.333 -28.667 -70.333 -43 -123 -43c-52 0 -95.667 12 -131 36l16 34c32.667 -24.667 72.334 -37 119.001 -37c37.333 0 66.666 8.83301 87.999 26.5s32 41.167 32 70.5c0 26.667 -8.16699 48.167 -24.5 64.5s-43.5 30.5 -81.5 42.5
c-88.667 28.667 -133 73.334 -133 134.001c0 35.333 13.667 64.666 41 87.999s63 35 107 35c44.667 0 81 -8.33301 109 -25l-17 -31c-28.667 15.333 -59.667 23 -93 23c-37.333 0 -66 -9.66699 -86 -29c-16 -16 -24 -34.667 -24 -56c0 -44 35.333 -78 106 -102
c46 -16 79 -33.333 99 -52c23.333 -22 35 -51.667 35 -89z" />
    <glyph glyph-name="T" unicode="T" horiz-adv-x="379" 
d="M384 443h-175v-443h-38v443h-176v33h389v-33z" />
    <glyph glyph-name="U" unicode="U" horiz-adv-x="466" 
d="M412 201c0 -140 -59.668 -210 -179.001 -210s-179 70 -179 210v275h39v-274c0 -62.667 12.833 -108 38.5 -136s59.5 -42 101.5 -42c42.667 0 76.834 14 102.501 42s38.167 73.333 37.5 136v274h39v-275z" />
    <glyph glyph-name="V" unicode="V" horiz-adv-x="390" 
d="M390 476l-174 -476h-42l-174 476h44l151 -431l151 431h44z" />
    <glyph glyph-name="W" unicode="W" horiz-adv-x="588" 
d="M588 476l-144 -476h-42l-108 432l-108 -432h-42l-144 476h44l121 -431l107 431h44l107 -431l121 431h44z" />
    <glyph glyph-name="X" unicode="X" horiz-adv-x="418" 
d="M401 0h-46l-146 215l-146 -215h-46l169 244l-162 232h47l138 -208l138 208h47l-162 -232z" />
    <glyph glyph-name="Y" unicode="Y" horiz-adv-x="366" 
d="M366 476l-164 -266v-210h-38v209l-164 267h45l138 -233l138 233h45z" />
    <glyph glyph-name="Z" unicode="Z" horiz-adv-x="424" 
d="M408 33l-8 -33h-378v26l323 417h-303l6 33h347v-27l-322 -416h335z" />
    <glyph glyph-name="bracketleft" unicode="[" horiz-adv-x="196" 
d="M185 -48v-30h-133v584h133v-30h-98v-524h98z" />
    <glyph glyph-name="backslash" unicode="\" horiz-adv-x="262" 
d="M279 -28h-40l-248 511h39z" />
    <glyph glyph-name="bracketright" unicode="]" horiz-adv-x="196" 
d="M145 -78h-134v30h98v524h-98v30h134v-584z" />
    <glyph glyph-name="asciicircum" unicode="^" horiz-adv-x="412" 
d="M223 480l144 -321h-37l-125 283l-125 -283h-37l144 321h36z" />
    <glyph glyph-name="underscore" unicode="_" horiz-adv-x="352" 
d="M352 -152v-31h-352v31h352z" />
    <glyph glyph-name="grave" unicode="`" horiz-adv-x="204" 
d="M148 390h-31l-58 81l39 10z" />
    <glyph glyph-name="a" unicode="a" horiz-adv-x="344" 
d="M304 0l-35.001 -7l-14 55c-30.667 -38 -71 -57 -121 -57c-29.333 0 -54.666 8.33301 -75.999 25s-32 39.667 -32 69c0 84.667 73.667 127 221 127h6v6c0 22 -5 41.333 -15 58c-15.333 26.667 -41.333 40 -78 40c-23.333 0 -59.333 -7.66699 -108 -23l-5 36
c37.333 12 76 18 116 18c86 0 129 -47.333 129 -142v-122c0 -28 4 -55.667 12 -83zM252.999 110v68.001c-124 0 -186 -28.667 -186 -86c0 -22 6.66699 -38.833 20 -50.5s30 -17.5 50 -17.5c52.667 0 89.667 22.333 111 67c3.33301 7.33301 5 13.666 5 18.999z" />
    <glyph glyph-name="b" unicode="b" horiz-adv-x="401" 
d="M373 174c0 -54.667 -14.332 -98.833 -42.999 -132.5s-67.334 -50.5 -116.001 -50.5c-53.333 0 -95.666 23 -126.999 69c0 -22.667 -0.666992 -42.667 -2 -60h-36c2 17.333 3 45 3 83v422h39v-230c29.333 48 72.333 72 129 72c47.333 0 84.666 -16.333 111.999 -49
s41 -74 41 -124zM335.001 173.001c0 42 -10.667 76.333 -32 103s-51.333 40 -90 40c-32 0 -59.667 -11 -83 -33c-26 -23.333 -39 -53.333 -39 -90v-57c0 -32 11.333 -58.667 34 -80s50.667 -32 84 -32c84 0 126 49.667 126 149z" />
    <glyph glyph-name="c" unicode="c" horiz-adv-x="331" 
d="M298 47l14 -32c-28.667 -16 -63.667 -24 -105 -24c-56 0 -100 16.167 -132 48.5s-48 75.5 -48 129.5s16 97.167 48 129.5s76 48.5 132 48.5c41.333 0 76.333 -8 105 -24l-14 -32c-24.667 16 -55.667 24 -93 24c-40.667 0 -74.167 -13 -100.5 -39
s-39.5 -61.667 -39.5 -107s13.167 -81 39.5 -107s59.833 -39 100.5 -39c37.333 0 68.333 8 93 24z" />
    <glyph glyph-name="d" unicode="d" horiz-adv-x="401" 
d="M352 0l-35.999 -0.000976562c-1.33301 17.333 -2 37.333 -2 60c-31.333 -46 -73.666 -69 -126.999 -69c-48.667 0 -87.334 16.833 -116.001 50.5s-43 77.834 -43 132.501c0 50 13.667 91.333 41 124s64.666 49 111.999 49c56.667 0 99.667 -24 129 -72v230h39v-422
c0 -38 1 -65.667 3 -83zM310.001 135.999v57c0 36.667 -13 66.667 -39 90c-23.333 22 -51 33 -83 33c-38.667 0 -68.667 -13.333 -90 -40s-32 -61 -32 -103c0 -99.333 42 -149 126 -149c33.333 0 61.333 10.667 84 32s34 48 34 80z" />
    <glyph glyph-name="e" unicode="e" horiz-adv-x="374" 
d="M324 48l2.99902 -33c-38.667 -16 -80.667 -24 -126 -24c-52 0 -94 16 -126 48s-48 72.667 -48 122c0 56 16 101 48 135s72.667 51 122 51c95.333 0 144 -59.667 146 -179h-278c1.33301 -45.333 14.833 -80.5 40.5 -105.5s58.834 -37.5 99.501 -37.5
c40 0 79.667 7.66699 119 23zM305.999 199c-0.666992 27.333 -8.33203 51.667 -22.999 73c-20 29.333 -50.333 44 -91 44c-36.667 0 -66.667 -13.333 -90 -40c-18.667 -21.333 -30.334 -47 -35.001 -77h239z" />
    <glyph glyph-name="f" unicode="f" horiz-adv-x="206" 
d="M241 497l-11 -28c-14.667 7.33301 -31 11 -49 11c-53.333 0 -80 -42.333 -80 -127v-13h98v-31h-98v-309h-39v309h-57v31h58v13c0 106.667 40.333 160 121 160c25.333 0 44.333 -5.33301 57 -16z" />
    <glyph glyph-name="g" unicode="g" horiz-adv-x="311" 
d="M275 228c0 -37.333 -11.502 -67 -34.502 -89s-51.5 -33 -85.5 -33c-20.667 0 -38.334 3.66699 -53.001 11c-4 -10 -6 -19.667 -6 -29c0 -17.333 27 -33.666 81 -48.999c64 -18 96 -50.667 96 -98c0 -28.667 -10.333 -52.167 -31 -70.5s-51 -27.5 -91 -27.5
c-35.333 0 -67.666 9 -96.999 27l14 32c28.667 -16.667 57.334 -25 86.001 -25c24.667 0 45 5.66699 61 17s24 26 24 44c0 32 -26.333 56.667 -79 74c-32 10 -54 19 -66 27c-20.667 12.667 -31 29 -31 49c0 12 3.33301 28 10 48c-24.667 26.667 -37 55 -37 85
c0 36 11.333 65 34 87s49.334 33 80.001 33h133v-32l-49 5c27.333 -26.667 41 -55.334 41 -86.001zM240.998 223c0 22 -6.99902 41.334 -20.999 58.001c-16 20 -37.667 30 -65 30c-26.667 0 -47.334 -8.83301 -62.001 -26.5s-22 -38.5 -22 -62.5c0 -26.667 9 -48 27 -64
c16.667 -14.667 35.667 -22 57 -22c24 0 44.333 7.66699 61 23s25 36.666 25 63.999z" />
    <glyph glyph-name="h" unicode="h" horiz-adv-x="390" 
d="M338 193v-193h-39v193c0 81.333 -34 122 -102 122c-27.333 0 -51.833 -11.5 -73.5 -34.5s-32.5 -47.833 -32.5 -74.5v-206h-39v505h39v-226c27.333 45.333 65.333 68 114 68c88.667 0 133 -51.333 133 -154z" />
    <glyph glyph-name="i" unicode="i" horiz-adv-x="143" 
d="M91 0h-39v340h39v-340zM102 443c0 -9.33301 -3 -16.833 -9 -22.5s-13.667 -8.5 -23 -8.5s-16.833 2.83301 -22.5 8.5s-8.5 13.167 -8.5 22.5s2.83301 17 8.5 23s13.167 9 22.5 9s17 -3 23 -9s9 -13.667 9 -23z" />
    <glyph glyph-name="j" unicode="j" horiz-adv-x="155" 
d="M103 7c-1.33301 -101.333 -48.333 -153 -141 -155l-4 31c46 4 76.333 20 91 48c10 19.333 15 48.333 15 87v322h39v-333zM114 443c0 -9.33301 -3 -16.833 -9 -22.5s-13.667 -8.5 -23 -8.5s-16.833 2.83301 -22.5 8.5s-8.5 13.167 -8.5 22.5s2.83301 17 8.5 23
s13.167 9 22.5 9s17 -3 23 -9s9 -13.667 9 -23z" />
    <glyph glyph-name="k" unicode="k" horiz-adv-x="316" 
d="M327 1l-39 -11l-162 187l-35 -34v-143h-39v505h39v-318l169 158l40 -8l-146 -138z" />
    <glyph glyph-name="l" unicode="l" horiz-adv-x="200" 
d="M182 27l-4 -33.999c-84 4 -126 63.333 -126 178v334h39v-319c0 -48.667 4.33301 -84 13 -106c13.333 -34.667 39.333 -52.334 78 -53.001z" />
    <glyph glyph-name="m" unicode="m" horiz-adv-x="601" 
d="M549 0l-39.001 -0.000976562v188c0 38.667 -7.83301 69.5 -23.5 92.5s-38.5 34.5 -68.5 34.5c-26 0 -48.833 -10.167 -68.5 -30.5s-29.5 -43.166 -29.5 -68.499v-216h-39v206c0 72.667 -28.667 109 -86 109c-26.667 0 -50.667 -11.5 -72 -34.5s-32 -47.833 -32 -74.5
v-206h-39v256c0 18 -2.33301 46 -7 84h37c4.66699 -14 7.33398 -34.333 8.00098 -61c26 45.333 64 68 114 68c46 0 80.333 -25.333 103 -76c26.667 50.667 67.334 76 122.001 76c37.333 0 66.666 -14.167 87.999 -42.5s32 -66.833 32 -115.5v-189z" />
    <glyph glyph-name="n" unicode="n" horiz-adv-x="390" 
d="M338 0h-39.001v193c0 81.333 -34 122 -102 122c-27.333 0 -51.833 -11.5 -73.5 -34.5s-32.5 -47.833 -32.5 -74.5v-206h-39v256c0 18 -2.33301 46 -7 84h37c4.66699 -14 7.33398 -34.333 8.00098 -61c26 45.333 64.333 68 115 68c88.667 0 133 -51.333 133 -154v-193z
" />
    <glyph glyph-name="o" unicode="o" horiz-adv-x="398" 
d="M370 169c0 -50 -15.667 -92.333 -47 -127s-72.666 -52 -123.999 -52s-92.666 17.333 -123.999 52s-47 77 -47 127s15.667 92.167 47 126.5s72.666 51.5 123.999 51.5s92.666 -17.167 123.999 -51.5s47 -76.5 47 -126.5zM332 169c0 41.333 -12.5 75.833 -37.5 103.5
s-56.833 41.5 -95.5 41.5s-70.5 -13.833 -95.5 -41.5s-37.5 -62.167 -37.5 -103.5s12.5 -76 37.5 -104s56.833 -42 95.5 -42s70.5 14 95.5 42s37.5 62.667 37.5 104z" />
    <glyph glyph-name="p" unicode="p" horiz-adv-x="401" 
d="M373 164c0 -50 -13.333 -90.667 -40 -122c-28 -34 -65.667 -51 -113 -51c-56.667 0 -99.667 24 -129 72v-230h-39v422c0 38.667 -1 66.334 -3 83.001h36c1.33301 -17.333 2 -37.333 2 -60c31.333 46 73.666 69 126.999 69c48.667 0 87.334 -16.833 116.001 -50.5
s43 -77.834 43 -132.501zM336 165c0 46.667 -10.834 83.167 -32.501 109.5s-53.167 39.5 -94.5 39.5c-33.333 0 -61.333 -10.667 -84 -32s-34 -48 -34 -80v-57c0 -36.667 13 -66.667 39 -90c23.333 -22 51 -33 83 -33c38.667 0 69.334 13.667 92.001 41
c20.667 26 31 60 31 102z" />
    <glyph glyph-name="q" unicode="q" horiz-adv-x="401" 
d="M370 -167h-39v230c-29.333 -48 -72.333 -72 -129 -72c-47.333 0 -85 17 -113 51c-26.667 31.333 -40 72 -40 122c0 54.667 14.333 98.834 43 132.501s67.334 50.5 116.001 50.5c53.333 0 95.666 -23 126.999 -69c0 22.667 0.666992 42.667 2 60h36
c-2 -16.667 -3 -44.334 -3 -83.001v-422zM331 145l-0.000976562 57c0 32 -11.333 58.667 -34 80s-50.667 32 -84 32c-41.333 0 -72.833 -13.167 -94.5 -39.5s-32.5 -62.833 -32.5 -109.5c0 -42 10.333 -76 31 -102c22.667 -27.333 53.334 -41 92.001 -41
c32 0 59.667 11 83 33c26 23.333 39 53.333 39 90z" />
    <glyph glyph-name="r" unicode="r" horiz-adv-x="217" 
d="M208 312c-2 0.666992 -5.99902 1 -11.999 1c-51.333 0 -85.333 -32 -102 -96c-2 -7.33301 -3 -18.666 -3 -33.999v-183h-39v229c0 50 -3.33301 87 -10 111h33c7.33301 -14.667 11 -37.334 11 -68.001c21.333 50 55.666 75 102.999 75c6 0 12.333 -0.666992 19 -2v-33z
" />
    <glyph glyph-name="s" unicode="s" horiz-adv-x="282" 
d="M248 90c0 -28.667 -10.832 -52.334 -32.499 -71.001s-51.834 -28 -90.501 -28c-33.333 0 -65.333 9 -96 27l15 32c32 -17.333 60 -26 84 -26c56 0 84 21 84 63c0 32.667 -26.333 57 -79 73c-60.667 18.667 -91 49.334 -91 92.001c0 26 9.83301 48.333 29.5 67
s47.167 28 82.5 28s63.333 -7.66699 84 -23l-16 -32c-20 16 -45 24 -75 24c-21.333 0 -38 -5.66699 -50 -17s-18 -25.333 -18 -42c0 -26.667 26 -49 78 -67c60.667 -20.667 91 -54 91 -100z" />
    <glyph glyph-name="t" unicode="t" horiz-adv-x="238" 
d="M210 31l3.99902 -31c-13.333 -6 -31 -9 -53 -9c-29.333 0 -51.666 11.333 -66.999 34c-13.333 20 -20 45 -20 75v209h-68v31h68v101l39 18v-119h109v-31h-109v-208c0 -50.667 17 -76 51 -76c20.667 0 36 2 46 6z" />
    <glyph glyph-name="u" unicode="u" horiz-adv-x="390" 
d="M355 1l-37 -8c-8 22.667 -13.333 44.667 -16 66c-29.333 -45.333 -72 -68 -128 -68c-81.333 0 -122 52.667 -122 158v191h39v-184c0 -87.333 30.667 -131 92 -131c28.667 0 54.667 9.33301 78 28c25.333 21.333 38 48.333 38 81v206h39v-257
c0 -24.667 5.66699 -52 17 -82z" />
    <glyph glyph-name="v" unicode="v" horiz-adv-x="341" 
d="M338 340l-153 -340h-35l-147 340h40l126 -298l129 298h40z" />
    <glyph glyph-name="w" unicode="w" horiz-adv-x="507" 
d="M507 340l-122 -340h-34l-98 300l-103 -300h-36l-111 340h41l90 -294l102 294h37l96 -294l99 294h39z" />
    <glyph glyph-name="x" unicode="x" horiz-adv-x="318" 
d="M318 0h-46l-114 147l-113 -147h-45l138 173l-129 167h44l108 -138l107 138h43l-130 -166z" />
    <glyph glyph-name="y" unicode="y" horiz-adv-x="337" 
d="M184 0c-39.333 -88.667 -91.667 -140.667 -157 -156l-9 31c56.667 12.667 99.667 58 129 136c0 2 -1 6 -3 12l-141 317h42l127 -288l119 288h43z" />
    <glyph glyph-name="z" unicode="z" horiz-adv-x="321" 
d="M301 0h-286v24l240 284h-228l6 32h271l-1 -27l-239 -281h245z" />
    <glyph glyph-name="braceleft" unicode="{" horiz-adv-x="208" 
d="M180 -47v-29.9961h-11c-72 0 -108 31.667 -108 95c0 12.667 2.33301 32.167 7 58.5s7 46.166 7 59.499c0 33.333 -20.667 50.666 -62 51.999v30c41.333 1.33301 62 18.666 62 51.999c0 13.333 -2.33301 33.166 -7 59.499s-7 45.833 -7 58.5c0 63.333 36 95 108 95h11v-30
h-15c-46 0 -69 -23 -69 -69c9.33301 -67.333 14 -104.333 14 -111c0 -34 -13.333 -57.333 -40 -70c26.667 -12.667 40 -36 40 -70c0 -6.66699 -4.66699 -43.667 -14 -111c0 -46 23 -69 69 -69h15z" />
    <glyph glyph-name="bar" unicode="|" horiz-adv-x="153" 
d="M93 528v-702h-33v702h33z" />
    <glyph glyph-name="braceright" unicode="}" horiz-adv-x="208" 
d="M28 -77v29.9961h15c46 0 69 23 69 69c-9.33301 67.333 -14 104.333 -14 111c0 34 13.333 57.333 40 70c-26.667 12.667 -40 36 -40 70c0 6.66699 4.66699 43.667 14 111c0 46 -23 69 -69 69h-15v30h11c72 0 108 -31.667 108 -95c0 -12.667 -2.33301 -32.167 -7 -58.5
s-7 -46.166 -7 -59.499c0 -33.333 20.667 -50.666 62 -51.999v-30c-41.333 -1.33301 -62 -18.666 -62 -51.999c0 -13.333 2.33301 -33.166 7 -59.499s7 -45.833 7 -58.5c0 -63.333 -36 -95 -108 -95h-11z" />
    <glyph glyph-name="asciitilde" unicode="~" horiz-adv-x="416" 
d="M389 249v-5.99902c0 -30.667 -8.33301 -54.334 -25 -71.001c-14 -14 -31.667 -21 -53 -21c-26 0 -60.833 10.833 -104.5 32.5s-77.167 32.5 -100.5 32.5c-31.333 0 -47.666 -21.667 -48.999 -65h-31v8c0 28 7.83301 50 23.5 66s34.5 24 56.5 24
c25.333 0 60.166 -10.5 104.499 -31.5s78.5 -31.5 102.5 -31.5c28.667 0 43.667 21 45 63h31z" />
    <glyph glyph-name="Zcaron" horiz-adv-x="424" 
d="M408 33l-8 -33h-378v26l323 417h-303l6 33h347v-27l-322 -416h335zM226 520h-28l-69 78h37l46 -52l46 52h37z" />
    <glyph glyph-name="Zcaron" unicode="&#x17d;" horiz-adv-x="424" 
d="M408 33l-8 -33h-378v26l323 417h-303l6 33h347v-27l-322 -416h335zM226 520h-28l-69 78h37l46 -52l46 52h37z" />
    <glyph glyph-name="zcaron" horiz-adv-x="321" 
d="M301 0h-286v24l240 284h-228l6 32h271l-1 -27l-239 -281h245zM174 384h-28l-69 78h37l46 -52l46 52h37z" />
    <glyph glyph-name="zcaron" unicode="&#x17e;" horiz-adv-x="321" 
d="M301 0h-286v24l240 284h-228l6 32h271l-1 -27l-239 -281h245zM174 384h-28l-69 78h37l46 -52l46 52h37z" />
    <glyph glyph-name="nonbreakingspace" unicode="&#xa0;" horiz-adv-x="216" 
 />
    <glyph glyph-name="exclamdown" unicode="&#xa1;" horiz-adv-x="151" 
d="M102 -140h-55l10 348h35zM112 304c0 -10 -3.66699 -18.667 -11 -26s-16 -11 -26 -11s-18.667 3.66699 -26 11s-11 16 -11 26s3.66699 18.667 11 26s16 11 26 11s18.667 -3.66699 26 -11s11 -16 11 -26z" />
    <glyph glyph-name="cent" unicode="&#xa2;" horiz-adv-x="411" 
d="M378 48c-32 -17.333 -75.667 -25.999 -131 -25.999h-5v-81h-33v83c-50.667 7.33301 -92 27.666 -124 60.999c-35.333 36.667 -53 87.667 -53 153c0 55.333 14.667 101.333 44 138c32 40 76.333 65 133 75v91h33v-87c4.66699 0.666992 11.667 1 21 1
c40 0 77.333 -6.33301 112 -19l-8 -36c-30 15.333 -64 23 -102 23c-61.333 0 -109 -16.167 -143 -48.5s-51 -78.833 -51 -139.5c0 -57.333 15.667 -101 47 -131c33.333 -32 80.333 -48 141 -48c42 0 77.667 6.66699 107 20z" />
    <glyph glyph-name="sterling" unicode="&#xa3;" horiz-adv-x="411" 
d="M353 0l-296 0.00195312v25c56.667 34.667 85 79 85 133c0 15.333 -1.66699 34.666 -5 57.999h-79v31h76c-5.33301 32 -8 59 -8 81c0 88.667 42.667 133 128 133c27.333 0 55 -6.66699 83 -20l-12 -29c-26.667 10.667 -51 16 -73 16c-60.667 0 -91 -33.667 -91 -101
c0 -24.667 3 -51.334 9 -80.001h113v-31h-109c2.66699 -15.333 4 -32.333 4 -51c0 -56 -18 -100 -54 -132h229v-33z" />
    <glyph glyph-name="currency" unicode="&#xa4;" horiz-adv-x="411" 
d="M387 225c0 -44 -12.668 -81 -38.001 -111l40 -41l-29 -30l-42 42c-30.667 -28 -68.667 -42 -114 -42c-43.333 0 -81 14 -113 42l-40 -42l-29 30l39 41c-26 32 -39 69 -39 111c0 42.667 13 80.667 39 114l-39 40l29 31l40 -42c34.667 27.333 72.334 41 113.001 41
c42.667 0 80.667 -13.667 114 -41l43 42l28 -31l-40 -40c25.333 -29.333 38 -67.333 38 -114zM346.999 225c0 40 -13.833 74.833 -41.5 104.5s-61.5 44.5 -101.5 44.5c-38.667 0 -72.167 -14.667 -100.5 -44s-42.5 -64.333 -42.5 -105s14.167 -75.167 42.5 -103.5
s61.833 -42.5 100.5 -42.5c40 0 73.833 14.5 101.5 43.5s41.5 63.167 41.5 102.5z" />
    <glyph glyph-name="yen" unicode="&#xa5;" horiz-adv-x="411" 
d="M345 95h-121v-76h-37v76h-120v29h120v57h-120v29h120l-153 249h46l125 -211l125 211h47l-153 -248h121v-30h-121v-57h121v-29z" />
    <glyph glyph-name="brokenbar" unicode="&#xa6;" horiz-adv-x="153" 
d="M93 227h-33v248h33v-248zM93 -123h-33v249h33v-249z" />
    <glyph glyph-name="section" unicode="&#xa7;" horiz-adv-x="374" 
d="M301 65c0 -32 -11.999 -57.3359 -35.999 -76.0029s-54 -28 -90 -28c-42 0 -76.333 11 -103 33l16 28c22 -20.667 51.667 -31 89 -31c27.333 0 49.166 6.33301 65.499 19s24.5 29.334 24.5 50.001c0 28.667 -18.333 51.334 -55 68.001l-102 41
c-36.667 18.667 -55 45.334 -55 80.001c0 29.333 15 56 45 80c-15.333 15.333 -23 33.333 -23 54c0 28.667 11.167 51.834 33.5 69.501s51.166 26.5 86.499 26.5s67.666 -8.66699 96.999 -26l-17 -29c-23.333 17.333 -51.666 26 -84.999 26
c-22.667 0 -41.5 -5.83301 -56.5 -17.5s-22.5 -26.167 -22.5 -43.5c0 -18 9.66699 -33 29 -45c12.667 -8 36.334 -18 71.001 -30c70.667 -24 106 -58.333 106 -103c0 -30.667 -14 -59.334 -42 -86.001c16 -16 24 -36 24 -60zM282.001 205.997c0 13.333 -7 26.833 -21 40.5
s-32.333 24.5 -55 32.5c-40 13.333 -67.667 24.666 -83 33.999c-22.667 -19.333 -34 -40 -34 -62c0 -18.667 11.667 -35 35 -49c14 -8.66699 38 -19 72 -31c31.333 -11.333 51.333 -20.333 60 -27c17.333 20.667 26 41.334 26 62.001z" />
    <glyph glyph-name="dieresis" unicode="&#xa8;" horiz-adv-x="212" 
d="M75 422c0 -8.66699 -3 -15.834 -9 -21.501s-13.333 -8.5 -22 -8.5s-15.834 2.83301 -21.501 8.5s-8.5 12.834 -8.5 21.501s2.83301 16 8.5 22s12.834 9 21.501 9s16 -3 22 -9s9 -13.333 9 -22zM199 422c0 -8.66699 -3 -15.834 -9 -21.501s-13.333 -8.5 -22 -8.5
s-15.834 2.83301 -21.501 8.5s-8.5 12.834 -8.5 21.501s2.83301 16 8.5 22s12.834 9 21.501 9s16 -3 22 -9s9 -13.333 9 -22z" />
    <glyph glyph-name="copyright" unicode="&#xa9;" horiz-adv-x="536" 
d="M370 117c-25.333 -19.333 -60.333 -29 -105 -29c-43.333 0 -78 14 -104 42s-39 62.333 -39 103c0 46.667 13.667 83.5 41 110.5s63 40.5 107 40.5c42 0 73.667 -8 95 -24l-12 -30c-25.333 14.667 -53 22 -83 22c-72 -4 -108 -42 -108 -114
c0 -72.667 36.333 -111 109 -115c34 0 62.667 8.33301 86 25zM511 240c0 -66.667 -23.833 -123.834 -71.5 -171.501s-104.834 -71.5 -171.501 -71.5s-123.834 23.833 -171.501 71.5s-71.5 104.834 -71.5 171.501s23.833 123.834 71.5 171.501s104.834 71.5 171.501 71.5
s123.834 -23.833 171.501 -71.5s71.5 -104.834 71.5 -171.501zM475 240c0 57.333 -20.167 106.166 -60.5 146.499s-89.166 60.5 -146.499 60.5s-106.166 -20.167 -146.499 -60.5s-60.5 -89.166 -60.5 -146.499s20.167 -106.166 60.5 -146.499s89.166 -60.5 146.499 -60.5
s106.166 20.167 146.499 60.5s60.5 89.166 60.5 146.499z" />
    <glyph glyph-name="ordfeminine" unicode="&#xaa;" horiz-adv-x="246" 
d="M212 247l-31 -0.000976562l-5 33c-18.667 -24 -43.667 -36 -75 -36c-51.333 0 -77 22.667 -77 68c0 52 50 78.667 150 80v7c0 9.33301 -2.66699 18.333 -8 27c-10.667 15.333 -27.667 23 -51 23c-22.667 0 -43.334 -7 -62.001 -21l-11 25
c24.667 17.333 51.334 26 80.001 26c58 0 87 -35.667 87 -107v-67c0 -19.333 1 -38.666 3 -57.999zM174 321.999v41.999c-76.667 0 -115 -17.333 -115 -52c0 -25.333 16 -38 48 -38c12.667 0 27 4.83301 43 14.5s24 20.834 24 33.501z" />
    <glyph glyph-name="guillemotleft" unicode="&#xab;" horiz-adv-x="298" 
d="M233 48l-111 129l110 132h42l-110 -132l111 -129h-42zM122 48l-111 129l110 132h42l-110 -132l111 -129h-42z" />
    <glyph glyph-name="logicalnot" unicode="&#xac;" horiz-adv-x="420" 
d="M387 91h-39v148h-325v33h364v-181z" />
    <glyph glyph-name="registered" unicode="&#xae;" horiz-adv-x="536" 
d="M511 240c0 -66.667 -23.833 -123.834 -71.5 -171.501s-104.834 -71.5 -171.501 -71.5s-123.834 23.833 -171.501 71.5s-71.5 104.834 -71.5 171.501s23.833 123.834 71.5 171.501s104.834 71.5 171.501 71.5s123.834 -23.833 171.501 -71.5s71.5 -104.834 71.5 -171.501z
M475 240c0 57.333 -20.167 106.166 -60.5 146.499s-89.166 60.5 -146.499 60.5s-106.166 -20.167 -146.499 -60.5s-60.5 -89.166 -60.5 -146.499s20.167 -106.166 60.5 -146.499s89.166 -60.5 146.499 -60.5s106.166 20.167 146.499 60.5s60.5 89.166 60.5 146.499zM380 93
h-39c-12 84.667 -33.667 127 -65 127h-61v-127h-40v291c24 4.66699 51.667 7.33398 83 8.00098c35.333 0 62.833 -7.5 82.5 -22.5s29.5 -35.5 29.5 -61.5c0 -34.667 -13.667 -59.334 -41 -74.001c26 -23.333 43 -70.333 51 -141zM331 303c0 36 -23 54 -69 54
c-18 0 -33.667 -1 -47 -3v-97h54c18.667 0 33.667 4 45 12s17 19.333 17 34z" />
    <glyph glyph-name="macron" unicode="&#xaf;" horiz-adv-x="352" 
d="M352 559v-31h-352v31h352z" />
    <glyph glyph-name="degree" unicode="&#xb0;" horiz-adv-x="212" 
d="M191 397c0 -23.333 -8.5 -43.333 -25.5 -60s-37.167 -25 -60.5 -25s-43.333 8.33301 -60 25s-25 36.667 -25 60s8.33301 43.5 25 60.5s36.667 25.5 60 25.5s43.5 -8.5 60.5 -25.5s25.5 -37.167 25.5 -60.5zM161 397c0 15.333 -5.5 28.666 -16.5 39.999
s-24.167 17 -39.5 17s-28.333 -5.66699 -39 -17s-16 -24.666 -16 -39.999s5.33301 -28.5 16 -39.5s23.667 -16.5 39 -16.5s28.5 5.5 39.5 16.5s16.5 24.167 16.5 39.5z" />
    <glyph glyph-name="plusminus" unicode="&#xb1;" horiz-adv-x="411" 
d="M373 201h-150v-133h-35v133h-150v32h150v124h35v-124h150v-32zM373 0h-335v32h335v-32z" />
    <glyph glyph-name="twosuperior" unicode="&#xb2;" horiz-adv-x="254" 
d="M210 227l-4 -31.001h-181c1.33301 27.333 24.333 62.333 69 105c18 16.667 35.5 34 52.5 52s25.5 36 25.5 54c0 28.667 -14.333 43 -43 43c-32 0 -49.667 -18.333 -53 -55l-34 6c2.66699 25.333 11.667 45 27 59s34.333 21 57 21c23.333 0 42.5 -6.66699 57.5 -20
s22.5 -31.333 22.5 -54c0 -27.333 -18 -59.666 -54 -96.999l-81 -83h139z" />
    <glyph glyph-name="threesuperior" unicode="&#xb3;" horiz-adv-x="254" 
d="M215 298c0 -30.667 -10.001 -55.165 -30.001 -73.498s-46.333 -27.833 -79 -28.5c-29.333 -0.666992 -53 6 -71 20l15 32c15.333 -12.667 33 -19 53 -19c24.667 0 44 6.33301 58 19s21 29 21 49c0 29.333 -14 44 -42 44c-18.667 0 -33.334 -4.66699 -44.001 -14l-14 25
c33.333 23.333 52 36.666 56 39.999c15.333 12.667 23 25 23 37c0 13.333 -11 20 -33 20c-27.333 0 -46.666 -14.667 -57.999 -44l-29 15c18 41.333 48 62 90 62s63 -17.333 63 -52c0 -12 -4.66699 -24.333 -14 -37s-19.666 -21.334 -30.999 -26.001
c44 -2.66699 66 -25.667 66 -69z" />
    <glyph glyph-name="acute" unicode="&#xb4;" horiz-adv-x="212" 
d="M85 528h-31l50 91h50z" />
    <glyph glyph-name="mu" unicode="&#xb5;" horiz-adv-x="406" 
d="M358 0l-37 0.000976562c-3.33301 18.667 -5 36 -5 52v11c-38 -48 -80.667 -72 -128 -72c-38.667 0 -69.667 17 -93 51v-182h-38v480h38v-194c0 -80.667 34 -121 102 -121c29.333 0 56 11.167 80 33.5s36 47.166 36 74.499v207h38v-257c0 -41.333 2.33301 -69 7 -83z" />
    <glyph glyph-name="paragraph" unicode="&#xb6;" horiz-adv-x="374" 
d="M321 -63h-34v506h-48v-506h-35v243h-4c-40 0 -74.667 11.667 -104 35c-34 26.667 -51 62 -51 106c0 102.667 66 154 198 154c35.333 0 61.333 -1.66699 78 -5v-533z" />
    <glyph glyph-name="periodcentered" unicode="&#xb7;" horiz-adv-x="162" 
d="M115 181c0 -9.33301 -3.5 -17.333 -10.5 -24s-15.167 -10 -24.5 -10s-17.333 3.33301 -24 10s-10 14.667 -10 24s3.33301 17.5 10 24.5s14.667 10.5 24 10.5s17.5 -3.5 24.5 -10.5s10.5 -15.167 10.5 -24.5z" />
    <glyph glyph-name="cedilla" unicode="&#xb8;" horiz-adv-x="212" 
d="M153 -81c0 -38.667 -23.333 -58 -70 -58c-16 0 -32 4.33301 -48 13l10 22c14 -6.66699 27 -10 39 -10c25.333 0 38 9.33301 38 28c0 16.667 -21 26.667 -63 30l39 60h32l-27 -38c33.333 -8 50 -23.667 50 -47z" />
    <glyph glyph-name="onesuperior" unicode="&#xb9;" horiz-adv-x="254" 
d="M194 201l-122 -0.000976562v24h44v205l-38 -33l-19 24l71 63c14 -1.33301 21 -10.666 21 -27.999v-231h43v-24z" />
    <glyph glyph-name="ordmasculine" unicode="&#xba;" horiz-adv-x="285" 
d="M265 360c0 -33.333 -12.333 -62 -37 -86s-53.334 -36 -86.001 -36c-33.333 0 -62 12 -86 36s-36 52.667 -36 86c0 32.667 12 61.334 36 86.001s52.667 37 86 37c32.667 0 61.334 -12.333 86.001 -37s37 -53.334 37 -86.001zM230 360c0 24 -8.66699 44.667 -26 62
s-38 26 -62 26s-44.5 -8.66699 -61.5 -26s-25.5 -38 -25.5 -62s8.5 -44.5 25.5 -61.5s37.5 -25.5 61.5 -25.5s44.667 8.5 62 25.5s26 37.5 26 61.5z" />
    <glyph glyph-name="guillemotright" unicode="&#xbb;" horiz-adv-x="294" 
d="M61 48h-42l111 129l-110 132h42l110 -132zM172 48h-42l111 129l-110 132h42l110 -132z" />
    <glyph glyph-name="onequarter" unicode="&#xbc;" horiz-adv-x="536" 
d="M423 95v147.999c-18.667 -16 -35.667 -40 -51 -72c-14.667 -29.333 -22.667 -54.666 -24 -75.999h75zM500 61.999l-42 -0.000976562v-62h-35v62h-112c0.666992 44.667 13.334 90.334 38.001 137.001c29.333 56.667 65.666 85.667 108.999 87v-191h44zM146 -9.00195h-33
l284 476h33zM165 185.998l-122 -0.000976562v24h44v201l-38 -33l-19 24l71 63c14 -1.33301 21 -10.666 21 -27.999v-227h43v-24z" />
    <glyph glyph-name="onehalf" unicode="&#xbd;" horiz-adv-x="536" 
d="M146 -9h-33l284 476h33zM165 186l-122 -0.000976562v24h44v201l-38 -33l-19 24l71 63c14 -1.33301 21 -10.666 21 -27.999v-227h43v-24zM506 -0.000976562l-181 -0.000976562c1.33301 27.333 24.333 62.333 69 105c18 16.667 35.5 34 52.5 52s25.5 36 25.5 54
c0 28.667 -14.333 43 -43 43c-32 0 -49.667 -18.333 -53 -55l-34 6c2.66699 25.333 11.667 45 27 59s34.333 21 57 21c24 0 43.5 -6.5 58.5 -19.5s22.5 -31.167 22.5 -54.5c0 -27.333 -18 -59.666 -54 -96.999l-78 -83h135z" />
    <glyph glyph-name="threequarters" unicode="&#xbe;" horiz-adv-x="536" 
d="M146 -9h-33l284 476h33zM215 286c0 -30.667 -10 -55.165 -30 -73.498s-46.333 -27.833 -79 -28.5c-29.333 -0.666992 -53 6 -71 20l15 32c15.333 -12.667 33 -19 53 -19c24.667 0 44 6.33301 58 19s21 29 21 49c0 29.333 -14 44 -42 44
c-18.667 0 -33.334 -4.66699 -44.001 -14l-14 25c33.333 23.333 52 36.666 56 39.999c15.333 12.667 23 25 23 37c0 13.333 -11 20 -33 20c-30 0 -49.333 -14.667 -58 -44l-29 15c18 41.333 48 62 90 62s63 -17.333 63 -52c0 -12 -4.66699 -24.333 -14 -37
s-19.666 -21.334 -30.999 -26.001c44 -6.66699 66 -29.667 66 -69zM423 95.002v147.999c-18.667 -16 -35.667 -40 -51 -72c-14.667 -29.333 -22.667 -54.666 -24 -75.999h75zM500 62.001l-42 -0.000976562v-62h-35v62h-112c0.666992 44.667 13.334 90.334 38.001 137.001
c29.333 56.667 65.666 85.667 108.999 87v-191h44z" />
    <glyph glyph-name="questiondown" unicode="&#xbf;" horiz-adv-x="289" 
d="M250 -122c-32 -20.667 -66 -30.999 -102 -30.999c-38 0 -67 11 -87 33c-18 19.333 -27 43.333 -27 72c0 35.333 21 75.333 63 120c32.667 34.667 49 69 49 103c0 12 -1 22.667 -3 32h34c3.33301 -10 5 -21.667 5 -35c0 -35.333 -18.167 -73.333 -54.5 -114
s-54.5 -75.334 -54.5 -104.001c0 -48 27.333 -72 82 -72c31.333 0 58 8.66699 80 26zM198 304.001c0 -10 -3.66699 -18.667 -11 -26s-16 -11 -26 -11s-18.667 3.66699 -26 11s-11 16 -11 26s3.66699 18.667 11 26s16 11 26 11s18.667 -3.66699 26 -11s11 -16 11 -26z" />
    <glyph glyph-name="Acircumflex" unicode="&#xc2;" horiz-adv-x="400" 
d="M400 0h-43l-55 153h-205l-54 -153h-43l180 483h40zM290 186l-90 254l-91 -254h181zM214 606l69 -78h-37l-46 52l-46 -52h-37l69 78h28z" />
    <glyph glyph-name="Adieresis" unicode="&#xc4;" horiz-adv-x="400" 
d="M400 0h-43l-55 153h-205l-54 -153h-43l180 483h40zM290 186l-90 254l-91 -254h181zM168 558c0 -8.66699 -3 -15.834 -9 -21.501s-13.333 -8.5 -22 -8.5s-15.834 2.83301 -21.501 8.5s-8.5 12.834 -8.5 21.501s2.83301 16 8.5 22s12.834 9 21.501 9s16 -3 22 -9
s9 -13.333 9 -22zM292 558c0 -8.66699 -3 -15.834 -9 -21.501s-13.333 -8.5 -22 -8.5s-15.834 2.83301 -21.501 8.5s-8.5 12.834 -8.5 21.501s2.83301 16 8.5 22s12.834 9 21.501 9s16 -3 22 -9s9 -13.333 9 -22z" />
    <glyph glyph-name="Aring" unicode="&#xc5;" horiz-adv-x="400" 
d="M400 0h-43l-55 153h-205l-54 -153h-43l180 483h40zM290 186l-90 254l-91 -254h181zM273 576c0 -19.333 -7.16699 -36.166 -21.5 -50.499s-31.833 -21.5 -52.5 -21.5c-19.333 0 -36.166 7.16699 -50.499 21.5s-21.5 31.166 -21.5 50.499
c0 20.667 7.16699 38.334 21.5 53.001s31.166 22 50.499 22c20.667 0 38.167 -7.33301 52.5 -22s21.5 -32.334 21.5 -53.001zM244 575c0 12.667 -4.16699 23.167 -12.5 31.5s-18.833 12.5 -31.5 12.5c-12 0 -22 -4.16699 -30 -12.5s-12 -18.833 -12 -31.5
c0 -11.333 4 -21 12 -29s18 -12 30 -12c12.667 0 23.167 4 31.5 12s12.5 17.667 12.5 29z" />
    <glyph glyph-name="AE" unicode="&#xc6;" horiz-adv-x="582" 
d="M544 0h-214l-28 196h-164l-104 -196h-41l255 476h284v-33h-228l24 -176h193v-33h-188l30 -201h181v-33zM297 228l-27 220l-116 -220h143z" />
    <glyph glyph-name="Ccedilla" unicode="&#xc7;" horiz-adv-x="406" 
d="M367 50l12 -31.999c-35.333 -16.667 -78.666 -25 -129.999 -25c-64.667 0 -118.5 23.167 -161.5 69.5s-64.5 105.166 -64.5 176.499s21.5 129.833 64.5 175.5s96.833 68.5 161.5 68.5c51.333 0 94.666 -8.33301 129.999 -25l-12 -32c-36 15.333 -74.667 23 -116 23
c-51.333 0 -95 -19 -131 -57c-38 -40 -57 -91.333 -57 -154s19 -114 57 -154c36 -38 79.667 -57 131 -57c41.333 0 80 7.66699 116 23zM262 -80.999c0 -38.667 -23.333 -58 -70 -58c-16 0 -32 4.33301 -48 13l10 22c14 -6.66699 27 -10 39 -10c25.333 0 38 9.33301 38 28
c0 16.667 -21 26.667 -63 30l39 60h32l-27 -38c33.333 -8 50 -23.667 50 -47z" />
    <glyph glyph-name="Ecircumflex" unicode="&#xca;" horiz-adv-x="351" 
d="M313 0h-259v476h259v-33h-220v-175h196v-33h-196v-202h220v-33zM189 606l69 -78h-37l-46 52l-46 -52h-37l69 78h28z" />
    <glyph glyph-name="Edieresis" unicode="&#xcb;" horiz-adv-x="351" 
d="M313 0h-259v476h259v-33h-220v-175h196v-33h-196v-202h220v-33zM144 558c0 -8.66699 -3 -15.834 -9 -21.501s-13.333 -8.5 -22 -8.5s-15.834 2.83301 -21.501 8.5s-8.5 12.834 -8.5 21.501s2.83301 16 8.5 22s12.834 9 21.501 9s16 -3 22 -9s9 -13.333 9 -22zM268 558
c0 -8.66699 -3 -15.834 -9 -21.501s-13.333 -8.5 -22 -8.5s-15.834 2.83301 -21.501 8.5s-8.5 12.834 -8.5 21.501s2.83301 16 8.5 22s12.834 9 21.501 9s16 -3 22 -9s9 -13.333 9 -22z" />
    <glyph glyph-name="Icircumflex" unicode="&#xce;" horiz-adv-x="147" 
d="M93 0h-39v476h39v-476zM94 606l69 -78h-37l-46 52l-46 -52h-37l69 78h28z" />
    <glyph glyph-name="Idieresis" unicode="&#xcf;" horiz-adv-x="147" 
d="M93 0h-39v476h39v-476zM48 558c0 -8.66699 -3 -15.834 -9 -21.501s-13.333 -8.5 -22 -8.5s-15.834 2.83301 -21.501 8.5s-8.5 12.834 -8.5 21.501s2.83301 16 8.5 22s12.834 9 21.501 9s16 -3 22 -9s9 -13.333 9 -22zM172 558c0 -8.66699 -3 -15.834 -9 -21.501
s-13.333 -8.5 -22 -8.5s-15.834 2.83301 -21.501 8.5s-8.5 12.834 -8.5 21.501s2.83301 16 8.5 22s12.834 9 21.501 9s16 -3 22 -9s9 -13.333 9 -22z" />
    <glyph glyph-name="Eth" unicode="&#xd0;" horiz-adv-x="431" 
d="M402 248c0 -168 -75.332 -252 -225.999 -252c-20 0 -60.667 3 -122 9v208h-49v33h49v223c61.333 8 108.666 12 141.999 12c60.667 0 110 -20.333 148 -61c38.667 -42.667 58 -100 58 -172zM363.001 248c0 63.333 -16.667 113 -50 149c-30.667 33.333 -70.667 50 -120 50
c-20.667 0 -54 -2.66699 -100 -8v-193h168v-33h-168v-177c33.333 -4 65 -6 95 -6c54 0 96.667 19.167 128 57.5s47 91.833 47 160.5z" />
    <glyph glyph-name="Ntilde" unicode="&#xd1;" horiz-adv-x="441" 
d="M387 0h-41l-252 421v-421h-40v476h45l250 -415v415h38v-476zM307 588c-1.33301 -40 -18 -60 -50 -60c-6.66699 0 -13.667 1.66699 -21 5s-14.5 7.16602 -21.5 11.499s-13.667 8.16602 -20 11.499s-11.833 5 -16.5 5c-5.33301 0 -10.333 -3 -15 -9
s-7.33398 -14.667 -8.00098 -26h-25c0.666992 20 5.5 35 14.5 45s20.5 15 34.5 15c7.33301 0 14.5 -1.66699 21.5 -5s14 -7.16602 21 -11.499s13.833 -8.16602 20.5 -11.499s13.334 -5 20.001 -5c11.333 0 18 11.667 20 35h25z" />
    <glyph glyph-name="Ocircumflex" unicode="&#xd4;" horiz-adv-x="486" 
d="M464 237c0 -71.333 -20.5 -130.333 -61.5 -177s-94.167 -70 -159.5 -70s-118.5 23.333 -159.5 70s-61.5 105.667 -61.5 177s20.5 130.333 61.5 177s94.167 70 159.5 70s118.5 -23.333 159.5 -70s61.5 -105.667 61.5 -177zM425 237c0 58.667 -17 108.834 -51 150.501
s-77.667 62.5 -131 62.5s-97 -20.833 -131 -62.5s-51 -91.834 -51 -150.501s17 -108.834 51 -150.501s77.667 -62.5 131 -62.5s97 20.833 131 62.5s51 91.834 51 150.501zM257 606l69 -78h-37l-46 52l-46 -52h-37l69 78h28z" />
    <glyph glyph-name="Odieresis" unicode="&#xd6;" horiz-adv-x="486" 
d="M464 237c0 -71.333 -20.5 -130.333 -61.5 -177s-94.167 -70 -159.5 -70s-118.5 23.333 -159.5 70s-61.5 105.667 -61.5 177s20.5 130.333 61.5 177s94.167 70 159.5 70s118.5 -23.333 159.5 -70s61.5 -105.667 61.5 -177zM425 237c0 58.667 -17 108.834 -51 150.501
s-77.667 62.5 -131 62.5s-97 -20.833 -131 -62.5s-51 -91.834 -51 -150.501s17 -108.834 51 -150.501s77.667 -62.5 131 -62.5s97 20.833 131 62.5s51 91.834 51 150.501zM211 558c0 -8.66699 -3 -15.834 -9 -21.501s-13.333 -8.5 -22 -8.5s-15.834 2.83301 -21.501 8.5
s-8.5 12.834 -8.5 21.501s2.83301 16 8.5 22s12.834 9 21.501 9s16 -3 22 -9s9 -13.333 9 -22zM335 558c0 -8.66699 -3 -15.834 -9 -21.501s-13.333 -8.5 -22 -8.5s-15.834 2.83301 -21.501 8.5s-8.5 12.834 -8.5 21.501s2.83301 16 8.5 22s12.834 9 21.501 9s16 -3 22 -9
s9 -13.333 9 -22z" />
    <glyph glyph-name="multiply" unicode="&#xd7;" horiz-adv-x="411" 
d="M337 11l-132 138l-132 -138l-26 24l132 139l-132 139l26 24l132 -138l132 138l26 -24l-132 -139l132 -139z" />
    <glyph glyph-name="Oslash" unicode="&#xd8;" horiz-adv-x="486" 
d="M464 237c0 -71.333 -20.501 -130.333 -61.501 -177s-94.167 -70 -159.5 -70c-34 0 -64.667 6 -92 18l-18 -37h-38l26 54c-13.333 10 -26 21.667 -38 35c-40.667 46.667 -61 105.667 -61 177s20.5 130.333 61.5 177s94.167 70 159.5 70c34 0 65 -6.66699 93 -20l14 29h41
l-24 -47c12.667 -9.33301 24.334 -20 35.001 -32c41.333 -46.667 62 -105.667 62 -177zM319.999 432c-23.333 12 -49 18.001 -77 18.001c-53.333 0 -97 -20.833 -131 -62.5s-51 -91.834 -51 -150.501s17 -109 51 -151c8 -10 16.667 -18.667 26 -26zM424.999 237.001
c0 58.667 -17 108.666 -51 149.999c-7.33301 9.33301 -15.333 17.333 -24 24l-183 -370c22.667 -11.333 48 -17 76 -17c53.333 0 97 20.833 131 62.5s51 91.834 51 150.501z" />
    <glyph glyph-name="Ucircumflex" unicode="&#xdb;" horiz-adv-x="466" 
d="M412 201c0 -140 -59.668 -210 -179.001 -210s-179 70 -179 210v275h39v-274c0 -62.667 12.833 -108 38.5 -136s59.5 -42 101.5 -42c42.667 0 76.834 14 102.501 42s38.167 73.333 37.5 136v274h39v-275zM246.999 606l69 -78h-37l-46 52l-46 -52h-37l69 78h28z" />
    <glyph glyph-name="Udieresis" unicode="&#xdc;" horiz-adv-x="466" 
d="M412 201c0 -140 -59.668 -210 -179.001 -210s-179 70 -179 210v275h39v-274c0 -62.667 12.833 -108 38.5 -136s59.5 -42 101.5 -42c42.667 0 76.834 14 102.501 42s38.167 73.333 37.5 136v274h39v-275zM200.999 558c0 -8.66699 -3 -15.834 -9 -21.501
s-13.333 -8.5 -22 -8.5s-15.834 2.83301 -21.501 8.5s-8.5 12.834 -8.5 21.501s2.83301 16 8.5 22s12.834 9 21.501 9s16 -3 22 -9s9 -13.333 9 -22zM324.999 558c0 -8.66699 -3 -15.834 -9 -21.501s-13.333 -8.5 -22 -8.5s-15.834 2.83301 -21.501 8.5
s-8.5 12.834 -8.5 21.501s2.83301 16 8.5 22s12.834 9 21.501 9s16 -3 22 -9s9 -13.333 9 -22z" />
    <glyph glyph-name="Thorn" unicode="&#xde;" horiz-adv-x="380" 
d="M351 262c0 -50 -16.833 -87.833 -50.5 -113.5s-79.5 -38.5 -137.5 -38.5c-16.667 0 -38.334 2.66699 -65.001 8v-118h-38v476h38v-94c28 7.33301 55.333 11 82 11c44.667 0 83.334 -10.667 116.001 -32c36.667 -24.667 55 -57.667 55 -99zM314 257
c0 35.333 -13.667 62.333 -41 81c-23.333 15.333 -54.333 23 -93 23c-24.667 0 -52 -4.66699 -82 -14v-194c24 -7.33301 46.333 -11 67 -11c48 0 84.833 10.167 110.5 30.5s38.5 48.5 38.5 84.5z" />
    <glyph glyph-name="germandbls" unicode="&#xdf;" horiz-adv-x="392" 
d="M356 102c0 -32.667 -10 -59.0039 -30 -79.0039c-22 -21.333 -52.333 -32 -91 -32c-32.667 0 -61 6.66699 -85 20l12 33c25.333 -13.333 50 -20 74 -20c26.667 0 47.334 6.83301 62.001 20.5s22 30.834 22 51.501c0 22.667 -17 48.834 -51 78.501s-51 57.167 -51 82.5
c0 18 11.333 37.833 34 59.5s34 39.167 34 52.5c0 54.667 -29 82 -87 82c-66.667 0 -100 -54.667 -100 -164v-341c0 -36 -7.33301 -67.333 -22 -94l-36 10c12.667 26 19 54 19 84v358c0 122 48.667 183 146 183c33.333 0 61.166 -10.5 83.499 -31.5s33.5 -49.167 33.5 -84.5
c0 -26.667 -11 -49 -33 -67s-33 -34.667 -33 -50c0 -11.333 11 -26.666 33 -45.999s35.333 -32.333 40 -39c17.333 -23.333 26 -45.666 26 -66.999z" />
    <glyph glyph-name="acircumflex" unicode="&#xe2;" horiz-adv-x="344" 
d="M304 0l-35.001 -7l-14 55c-30.667 -38 -71 -57 -121 -57c-29.333 0 -54.666 8.33301 -75.999 25s-32 39.667 -32 69c0 84.667 73.667 127 221 127h6v6c0 22 -5 41.333 -15 58c-15.333 26.667 -41.333 40 -78 40c-23.333 0 -59.333 -7.66699 -108 -23l-5 36
c37.333 12 76 18 116 18c86 0 129 -47.333 129 -142v-122c0 -28 4 -55.667 12 -83zM252.999 110v68.001c-124 0 -186 -28.667 -186 -86c0 -22 6.66699 -38.833 20 -50.5s30 -17.5 50 -17.5c52.667 0 89.667 22.333 111 67c3.33301 7.33301 5 13.666 5 18.999z
M185.999 470.001l69 -78h-37l-46 52l-46 -52h-37l69 78h28z" />
    <glyph glyph-name="adieresis" unicode="&#xe4;" horiz-adv-x="344" 
d="M304 0l-35.001 -7l-14 55c-30.667 -38 -71 -57 -121 -57c-29.333 0 -54.666 8.33301 -75.999 25s-32 39.667 -32 69c0 84.667 73.667 127 221 127h6v6c0 22 -5 41.333 -15 58c-15.333 26.667 -41.333 40 -78 40c-23.333 0 -59.333 -7.66699 -108 -23l-5 36
c37.333 12 76 18 116 18c86 0 129 -47.333 129 -142v-122c0 -28 4 -55.667 12 -83zM252.999 110v68.001c-124 0 -186 -28.667 -186 -86c0 -22 6.66699 -38.833 20 -50.5s30 -17.5 50 -17.5c52.667 0 89.667 22.333 111 67c3.33301 7.33301 5 13.666 5 18.999z
M139.999 422.001c0 -8.66699 -3 -15.834 -9 -21.501s-13.333 -8.5 -22 -8.5s-15.834 2.83301 -21.501 8.5s-8.5 12.834 -8.5 21.501s2.83301 16 8.5 22s12.834 9 21.501 9s16 -3 22 -9s9 -13.333 9 -22zM263.999 422.001c0 -8.66699 -3 -15.834 -9 -21.501
s-13.333 -8.5 -22 -8.5s-15.834 2.83301 -21.501 8.5s-8.5 12.834 -8.5 21.501s2.83301 16 8.5 22s12.834 9 21.501 9s16 -3 22 -9s9 -13.333 9 -22z" />
    <glyph glyph-name="aring" unicode="&#xe5;" horiz-adv-x="344" 
d="M304 0l-35.001 -7l-14 55c-30.667 -38 -71 -57 -121 -57c-29.333 0 -54.666 8.33301 -75.999 25s-32 39.667 -32 69c0 84.667 73.667 127 221 127h6v6c0 22 -5 41.333 -15 58c-15.333 26.667 -41.333 40 -78 40c-23.333 0 -59.333 -7.66699 -108 -23l-5 36
c37.333 12 76 18 116 18c86 0 129 -47.333 129 -142v-122c0 -28 4 -55.667 12 -83zM252.999 110v68.001c-124 0 -186 -28.667 -186 -86c0 -22 6.66699 -38.833 20 -50.5s30 -17.5 50 -17.5c52.667 0 89.667 22.333 111 67c3.33301 7.33301 5 13.666 5 18.999z
M244.999 440.001c0 -19.333 -7.16699 -36.166 -21.5 -50.499s-31.833 -21.5 -52.5 -21.5c-19.333 0 -36.166 7.16699 -50.499 21.5s-21.5 31.166 -21.5 50.499c0 20.667 7.16699 38.334 21.5 53.001s31.166 22 50.499 22c20.667 0 38.167 -7.33301 52.5 -22
s21.5 -32.334 21.5 -53.001zM215.999 439.001c0 12.667 -4.16699 23.167 -12.5 31.5s-18.833 12.5 -31.5 12.5c-12 0 -22 -4.16699 -30 -12.5s-12 -18.833 -12 -31.5c0 -11.333 4 -21 12 -29s18 -12 30 -12c12.667 0 23.167 4 31.5 12s12.5 17.667 12.5 29z" />
    <glyph glyph-name="ae" unicode="&#xe6;" horiz-adv-x="608" 
d="M550 48l2.99902 -33c-38.667 -16 -80.667 -24 -126 -24c-68.667 0 -119.334 29 -152.001 87c-18.667 -58 -65.667 -87 -141 -87c-29.333 0 -54.666 8.33301 -75.999 25s-32 39.667 -32 69c0 84.667 73.667 127 221 127h6v6c0 22 -5 41.333 -15 58
c-15.333 26.667 -41.333 40 -78 40c-23.333 0 -59.333 -7.66699 -108 -23l-5 36c37.333 12 76 18 116 18c61.333 0 101 -25.333 119 -76c32 50.667 79 76 141 76c95.333 0 144 -59.667 146 -179h-278c1.33301 -45.333 14.833 -80.5 40.5 -105.5s58.834 -37.5 99.501 -37.5
c40 0 79.667 7.66699 119 23zM252.999 143v35c-124 0 -186 -28.667 -186 -86c0 -22 6.66699 -38.833 20 -50.5s30 -17.5 50 -17.5c29.333 0 54.333 7.66699 75 23c27.333 20.667 41 52.667 41 96zM292.999 199l239.002 0.000976562
c-0.666992 27.333 -8.33398 51.666 -23.001 72.999c-20 29.333 -50.333 44 -91 44c-36.667 0 -66.667 -13.333 -90 -40c-18.667 -21.333 -30.334 -47 -35.001 -77z" />
    <glyph glyph-name="ccedilla" unicode="&#xe7;" horiz-adv-x="331" 
d="M298 47l14 -32c-28.667 -16 -63.667 -24 -105 -24c-56 0 -100 16.167 -132 48.5s-48 75.5 -48 129.5s16 97.167 48 129.5s76 48.5 132 48.5c41.333 0 76.333 -8 105 -24l-14 -32c-24.667 16 -55.667 24 -93 24c-40.667 0 -74.167 -13 -100.5 -39
s-39.5 -61.667 -39.5 -107s13.167 -81 39.5 -107s59.833 -39 100.5 -39c37.333 0 68.333 8 93 24zM218.704 -72.9023c0 -34.8008 -21.001 -52.2012 -63.002 -52.2012c-14.4004 0 -28.8008 3.90039 -43.2012 11.7002l9 19.8008c12.6006 -6 24.3008 -9 35.1006 -9
c22.8008 0 34.2012 8.40039 34.2012 25.2002c0 15.001 -18.9004 24.001 -56.7012 27.001l35.1006 54.001h28.8008l-24.3008 -34.2002c30.001 -7.2002 45.002 -21.3008 45.002 -42.3018z" />
    <glyph glyph-name="ecircumflex" unicode="&#xea;" horiz-adv-x="374" 
d="M324 48l2.99902 -33c-38.667 -16 -80.667 -24 -126 -24c-52 0 -94 16 -126 48s-48 72.667 -48 122c0 56 16 101 48 135s72.667 51 122 51c95.333 0 144 -59.667 146 -179h-278c1.33301 -45.333 14.833 -80.5 40.5 -105.5s58.834 -37.5 99.501 -37.5
c40 0 79.667 7.66699 119 23zM305.999 199c-0.666992 27.333 -8.33203 51.667 -22.999 73c-20 29.333 -50.333 44 -91 44c-36.667 0 -66.667 -13.333 -90 -40c-18.667 -21.333 -30.334 -47 -35.001 -77h239zM201.001 470.001l69 -78h-37l-46 52l-46 -52h-37l69 78h28z" />
    <glyph glyph-name="edieresis" unicode="&#xeb;" horiz-adv-x="374" 
d="M324 48l2.99902 -33c-38.667 -16 -80.667 -24 -126 -24c-52 0 -94 16 -126 48s-48 72.667 -48 122c0 56 16 101 48 135s72.667 51 122 51c95.333 0 144 -59.667 146 -179h-278c1.33301 -45.333 14.833 -80.5 40.5 -105.5s58.834 -37.5 99.501 -37.5
c40 0 79.667 7.66699 119 23zM305.999 199c-0.666992 27.333 -8.33203 51.667 -22.999 73c-20 29.333 -50.333 44 -91 44c-36.667 0 -66.667 -13.333 -90 -40c-18.667 -21.333 -30.334 -47 -35.001 -77h239zM155.001 422.001c0 -8.66699 -3 -15.834 -9 -21.501
s-13.333 -8.5 -22 -8.5s-15.834 2.83301 -21.501 8.5s-8.5 12.834 -8.5 21.501s2.83301 16 8.5 22s12.834 9 21.501 9s16 -3 22 -9s9 -13.333 9 -22zM279.001 422.001c0 -8.66699 -3 -15.834 -9 -21.501s-13.333 -8.5 -22 -8.5s-15.834 2.83301 -21.501 8.5
s-8.5 12.834 -8.5 21.501s2.83301 16 8.5 22s12.834 9 21.501 9s16 -3 22 -9s9 -13.333 9 -22z" />
    <glyph glyph-name="icircumflex" unicode="&#xee;" horiz-adv-x="143" 
d="M90 0h-38v340h38v-340zM92 470l69 -78h-37l-46 52l-46 -52h-37l69 78h28z" />
    <glyph glyph-name="idieresis" unicode="&#xef;" horiz-adv-x="143" 
d="M90 0h-38v340h38v-340zM46 422c0 -8.66699 -3 -15.834 -9 -21.501s-13.333 -8.5 -22 -8.5s-15.834 2.83301 -21.501 8.5s-8.5 12.834 -8.5 21.501s2.83301 16 8.5 22s12.834 9 21.501 9s16 -3 22 -9s9 -13.333 9 -22zM170 422c0 -8.66699 -3 -15.834 -9 -21.501
s-13.333 -8.5 -22 -8.5s-15.834 2.83301 -21.501 8.5s-8.5 12.834 -8.5 21.501s2.83301 16 8.5 22s12.834 9 21.501 9s16 -3 22 -9s9 -13.333 9 -22z" />
    <glyph glyph-name="eth" unicode="&#xf0;" horiz-adv-x="362" 
d="M322 163c0 -48.667 -12 -88.999 -36 -120.999c-27.333 -36 -64.666 -54 -111.999 -54c-42 0 -75.167 14.667 -99.5 44s-36.5 65.666 -36.5 108.999c0 42 12.333 78 37 108s56.667 45 96 45c28 0 52.667 -6.66699 74 -20c15.333 -10.667 24.666 -20.667 27.999 -30
c-15.333 52 -43.333 97.333 -84 136l-87 -55l-17 27l78 50c-30 22.667 -62 39 -96 49l3 29c47.333 -9.33301 89.333 -28.333 126 -57l75 49l17 -27l-67 -44c10.667 -10 20.667 -21 30 -33c47.333 -60 71 -128.333 71 -205zM282 141.001c0 33.333 -10 61.666 -30 84.999
s-44.333 35 -73 35c-31.333 0 -56 -11.667 -74 -35s-27 -51.666 -27 -84.999c0 -32.667 8.83301 -60.667 26.5 -84s42.5 -35 74.5 -35c28.667 0 53 11.667 73 35s30 51.333 30 84z" />
    <glyph glyph-name="ntilde" unicode="&#xf1;" horiz-adv-x="390" 
d="M338 0h-39.001v193c0 81.333 -34 122 -102 122c-27.333 0 -51.833 -11.5 -73.5 -34.5s-32.5 -47.833 -32.5 -74.5v-206h-39v256c0 18 -2.33301 46 -7 84h37c4.66699 -14 7.33398 -34.333 8.00098 -61c26 45.333 64.333 68 115 68c88.667 0 133 -51.333 133 -154v-193z
M280.999 452c-1.33301 -40 -18 -60 -50 -60c-6.66699 0 -13.667 1.66699 -21 5s-14.5 7.16602 -21.5 11.499s-13.667 8.16602 -20 11.499s-11.833 5 -16.5 5c-5.33301 0 -10.333 -3 -15 -9s-7.33398 -14.667 -8.00098 -26h-25c0.666992 20 5.5 35 14.5 45s20.5 15 34.5 15
c7.33301 0 14.5 -1.66699 21.5 -5s14 -7.16602 21 -11.499s13.833 -8.16602 20.5 -11.499s13.334 -5 20.001 -5c11.333 0 18 11.667 20 35h25z" />
    <glyph glyph-name="ocircumflex" unicode="&#xf4;" horiz-adv-x="398" 
d="M370 169c0 -50 -15.667 -92.333 -47 -127s-72.666 -52 -123.999 -52s-92.666 17.333 -123.999 52s-47 77 -47 127s15.667 92.167 47 126.5s72.666 51.5 123.999 51.5s92.666 -17.167 123.999 -51.5s47 -76.5 47 -126.5zM332 169c0 41.333 -12.5 75.833 -37.5 103.5
s-56.833 41.5 -95.5 41.5s-70.5 -13.833 -95.5 -41.5s-37.5 -62.167 -37.5 -103.5s12.5 -76 37.5 -104s56.833 -42 95.5 -42s70.5 14 95.5 42s37.5 62.667 37.5 104zM213 470l69 -78h-37l-46 52l-46 -52h-37l69 78h28z" />
    <glyph glyph-name="odieresis" unicode="&#xf6;" horiz-adv-x="398" 
d="M370 169c0 -50 -15.667 -92.333 -47 -127s-72.666 -52 -123.999 -52s-92.666 17.333 -123.999 52s-47 77 -47 127s15.667 92.167 47 126.5s72.666 51.5 123.999 51.5s92.666 -17.167 123.999 -51.5s47 -76.5 47 -126.5zM332 169c0 41.333 -12.5 75.833 -37.5 103.5
s-56.833 41.5 -95.5 41.5s-70.5 -13.833 -95.5 -41.5s-37.5 -62.167 -37.5 -103.5s12.5 -76 37.5 -104s56.833 -42 95.5 -42s70.5 14 95.5 42s37.5 62.667 37.5 104zM167 422c0 -8.66699 -3 -15.834 -9 -21.501s-13.333 -8.5 -22 -8.5s-15.834 2.83301 -21.501 8.5
s-8.5 12.834 -8.5 21.501s2.83301 16 8.5 22s12.834 9 21.501 9s16 -3 22 -9s9 -13.333 9 -22zM291 422c0 -8.66699 -3 -15.834 -9 -21.501s-13.333 -8.5 -22 -8.5s-15.834 2.83301 -21.501 8.5s-8.5 12.834 -8.5 21.501s2.83301 16 8.5 22s12.834 9 21.501 9s16 -3 22 -9
s9 -13.333 9 -22z" />
    <glyph glyph-name="divide" unicode="&#xf7;" horiz-adv-x="411" 
d="M239 302c0 -9.33301 -3 -17.5 -9 -24.5s-13.667 -10.5 -23 -10.5c-10 0 -18 3.5 -24 10.5s-9 15.167 -9 24.5c0.666992 9.33301 4 17.333 10 24s13.667 10 23 10s17 -3.33301 23 -10s9 -14.667 9 -24zM238 59c0 -9.33301 -3 -17.333 -9 -24s-13.667 -10 -23 -10
c-10 0 -17.833 3.33301 -23.5 10s-8.5 14.667 -8.5 24s3 17.5 9 24.5s14 10.5 24 10.5c9.33301 0 16.833 -3.5 22.5 -10.5s8.5 -15.167 8.5 -24.5zM373 165h-335v33h335v-33z" />
    <glyph glyph-name="oslash" unicode="&#xf8;" horiz-adv-x="398" 
d="M370 169c0 -50 -15.667 -92.333 -47 -127s-72.666 -52 -123.999 -52c-29.333 0 -57.333 6.66699 -84 20l-24 -39h-40l36 59c-39.333 34 -59 80.333 -59 139c0 50 15.667 92.167 47 126.5s72.666 51.5 123.999 51.5c24 0 48.333 -5 73 -15l31 51h43l-43 -69
c44.667 -34 67 -82.333 67 -145zM332 169c0 47.333 -16 85.333 -48 114l-150 -243c19.333 -11.333 41 -17 65 -17c38.667 0 70.5 14 95.5 42s37.5 62.667 37.5 104zM106 61l148 241c-16.667 8 -35 12 -55 12c-38.667 0 -70.5 -13.833 -95.5 -41.5
s-37.5 -62.167 -37.5 -103.5c0 -43.333 13.333 -79.333 40 -108z" />
    <glyph glyph-name="ucircumflex" unicode="&#xfb;" horiz-adv-x="390" 
d="M355 1l-37 -8c-8 22.667 -13.333 44.667 -16 66c-29.333 -45.333 -72 -68 -128 -68c-81.333 0 -122 52.667 -122 158v191h39v-184c0 -87.333 30.667 -131 92 -131c28.667 0 54.667 9.33301 78 28c25.333 21.333 38 48.333 38 81v206h39v-257
c0 -24.667 5.66699 -52 17 -82zM209 470l69 -78h-37l-46 52l-46 -52h-37l69 78h28z" />
    <glyph glyph-name="udieresis" unicode="&#xfc;" horiz-adv-x="390" 
d="M355 1l-37 -8c-8 22.667 -13.333 44.667 -16 66c-29.333 -45.333 -72 -68 -128 -68c-81.333 0 -122 52.667 -122 158v191h39v-184c0 -87.333 30.667 -131 92 -131c28.667 0 54.667 9.33301 78 28c25.333 21.333 38 48.333 38 81v206h39v-257
c0 -24.667 5.66699 -52 17 -82zM163 422c0 -8.66699 -3 -15.834 -9 -21.501s-13.333 -8.5 -22 -8.5s-15.834 2.83301 -21.501 8.5s-8.5 12.834 -8.5 21.501s2.83301 16 8.5 22s12.834 9 21.501 9s16 -3 22 -9s9 -13.333 9 -22zM287 422c0 -8.66699 -3 -15.834 -9 -21.501
s-13.333 -8.5 -22 -8.5s-15.834 2.83301 -21.501 8.5s-8.5 12.834 -8.5 21.501s2.83301 16 8.5 22s12.834 9 21.501 9s16 -3 22 -9s9 -13.333 9 -22z" />
    <glyph glyph-name="thorn" unicode="&#xfe;" horiz-adv-x="432" 
d="M401 176c0 -58 -17.332 -104 -51.999 -138c-32 -31.333 -72.667 -47 -122 -47c-54.667 0 -97.334 20.667 -128.001 62v-193h-38v610h38v-192c34 46 80.333 69 139 69c48 0 87.667 -17 119 -51c29.333 -32 44 -72 44 -120zM364.001 175
c0 40.667 -12.166 74.332 -36.499 100.999s-56.5 40 -96.5 40c-60.667 0 -102 -27.667 -124 -83c-5.33301 -13.333 -8 -26.666 -8 -39.999v-59c0 -6.66699 1.66699 -16.667 5 -30c10 -22.667 26.167 -41.667 48.5 -57s48.166 -23 77.499 -23c39.333 0 71.5 13.333 96.5 40
s37.5 63.667 37.5 111z" />
    <glyph glyph-name="ydieresis" unicode="&#xff;" horiz-adv-x="337" 
d="M184 0c-39.333 -88.667 -91.667 -140.667 -157 -156l-9 31c56.667 12.667 99.667 58 129 136c0 2 -1 6 -3 12l-141 317h42l127 -288l119 288h43zM136.999 422c0 -8.66699 -3 -15.834 -9 -21.501s-13.333 -8.5 -22 -8.5s-15.834 2.83301 -21.501 8.5
s-8.5 12.834 -8.5 21.501s2.83301 16 8.5 22s12.834 9 21.501 9s16 -3 22 -9s9 -13.333 9 -22zM260.999 422c0 -8.66699 -3 -15.834 -9 -21.501s-13.333 -8.5 -22 -8.5s-15.834 2.83301 -21.501 8.5s-8.5 12.834 -8.5 21.501s2.83301 16 8.5 22s12.834 9 21.501 9
s16 -3 22 -9s9 -13.333 9 -22z" />
    <glyph glyph-name="Abreve" unicode="&#x102;" horiz-adv-x="400" 
d="M400 0h-43l-55 153h-205l-54 -153h-43l180 483h40zM290 186l-90 254l-91 -254h181zM289 589c-3.33301 -18 -11.335 -32.667 -24.002 -44c-17.333 -16 -39 -24 -65 -24s-48 8 -66 24c-12 11.333 -20 26 -24 44h35c2.66699 -7.33301 6.33398 -13.666 11.001 -18.999
c10.667 -12 25.334 -18 44.001 -18s33 6 43 18c5.33301 5.33301 9.33301 11.666 12 18.999h34z" />
    <glyph glyph-name="abreve" unicode="&#x103;" horiz-adv-x="344" 
d="M304 0l-35.001 -7l-14 55c-30.667 -38 -71 -57 -121 -57c-29.333 0 -54.666 8.33301 -75.999 25s-32 39.667 -32 69c0 84.667 73.667 127 221 127h6v6c0 22 -5 41.333 -15 58c-15.333 26.667 -41.333 40 -78 40c-23.333 0 -59.333 -7.66699 -108 -23l-5 36
c37.333 12 76 18 116 18c86 0 129 -47.333 129 -142v-122c0 -28 4 -55.667 12 -83zM252.999 110v68.001c-124 0 -186 -28.667 -186 -86c0 -22 6.66699 -38.833 20 -50.5s30 -17.5 50 -17.5c52.667 0 89.667 22.333 111 67c3.33301 7.33301 5 13.666 5 18.999z
M260.999 453.001c-3.33301 -18 -11.335 -32.667 -24.002 -44c-17.333 -16 -39 -24 -65 -24s-48 8 -66 24c-12 11.333 -20 26 -24 44h35c2.66699 -7.33301 6.33398 -13.666 11.001 -18.999c10.667 -12 25.334 -18 44.001 -18s33 6 43 18
c5.33301 5.33301 9.33301 11.666 12 18.999h34z" />
    <glyph glyph-name="Cacute" unicode="&#x106;" horiz-adv-x="406" 
d="M367 50l12 -31.999c-35.333 -16.667 -78.666 -25 -129.999 -25c-64.667 0 -118.5 23.167 -161.5 69.5s-64.5 105.166 -64.5 176.499s21.5 129.833 64.5 175.5s96.833 68.5 161.5 68.5c51.333 0 94.666 -8.33301 129.999 -25l-12 -32c-36 15.333 -74.667 23 -116 23
c-51.333 0 -95 -19 -131 -57c-38 -40 -57 -91.333 -57 -154s19 -114 57 -154c36 -38 79.667 -57 131 -57c41.333 0 80 7.66699 116 23zM189 526.001h-31l50 91l39 -10z" />
    <glyph glyph-name="cacute" unicode="&#x107;" horiz-adv-x="331" 
d="M298 47l14 -32c-28.667 -16 -63.667 -24 -105 -24c-56 0 -100 16.167 -132 48.5s-48 75.5 -48 129.5s16 97.167 48 129.5s76 48.5 132 48.5c41.333 0 76.333 -8 105 -24l-14 -32c-24.667 16 -55.667 24 -93 24c-40.667 0 -74.167 -13 -100.5 -39
s-39.5 -61.667 -39.5 -107s13.167 -81 39.5 -107s59.833 -39 100.5 -39c37.333 0 68.333 8 93 24zM152 390h-31l50 91l39 -10z" />
    <glyph glyph-name="Ccaron" unicode="&#x10c;" horiz-adv-x="406" 
d="M367 50l12 -31.999c-35.333 -16.667 -78.666 -25 -129.999 -25c-64.667 0 -118.5 23.167 -161.5 69.5s-64.5 105.166 -64.5 176.499s21.5 129.833 64.5 175.5s96.833 68.5 161.5 68.5c51.333 0 94.666 -8.33301 129.999 -25l-12 -32c-36 15.333 -74.667 23 -116 23
c-51.333 0 -95 -19 -131 -57c-38 -40 -57 -91.333 -57 -154s19 -114 57 -154c36 -38 79.667 -57 131 -57c41.333 0 80 7.66699 116 23zM249 520.001h-28l-69 78h37l46 -52l46 52h37z" />
    <glyph glyph-name="ccaron" unicode="&#x10d;" horiz-adv-x="331" 
d="M298 47l14 -32c-28.667 -16 -63.667 -24 -105 -24c-56 0 -100 16.167 -132 48.5s-48 75.5 -48 129.5s16 97.167 48 129.5s76 48.5 132 48.5c41.333 0 76.333 -8 105 -24l-14 -32c-24.667 16 -55.667 24 -93 24c-40.667 0 -74.167 -13 -100.5 -39
s-39.5 -61.667 -39.5 -107s13.167 -81 39.5 -107s59.833 -39 100.5 -39c37.333 0 68.333 8 93 24zM213 384h-28l-69 78h37l46 -52l46 52h37z" />
    <glyph glyph-name="Dcroat" unicode="&#x110;" horiz-adv-x="431" 
d="M402 248c0 -80 -14 -140 -42 -180c-33.333 -48 -89.666 -72 -168.999 -72c-30 0 -75.667 3 -137 9v220h-48v33h48v211c61.333 8 113.666 12 156.999 12c60 0 106.833 -20.5 140.5 -61.5s50.5 -98.167 50.5 -171.5zM363 248c0 64 -14 113.667 -42 149
c-27.333 33.333 -65 50 -113 50c-30.667 0 -69 -2.66699 -115 -8v-181h151v-33h-151v-189c33.333 -4 70 -6 110 -6c106.667 0 160 72.667 160 218z" />
    <glyph glyph-name="dcroat" unicode="&#x111;" horiz-adv-x="401" 
d="M397 426l-47.998 -0.000976562v-343c0 -38 1 -65.667 3 -83h-36c-1.33301 17.333 -2 37.333 -2 60c-30.667 -46 -73 -69 -127 -69c-48.667 0 -87.334 16.833 -116.001 50.5s-43 77.834 -43 132.501c0 50 13.667 91.333 41 124s64.666 49 111.999 49
c57.333 0 100.333 -24 129 -72v151h-130v33h130v46h39v-46h48v-33zM310.002 135.999v56.999c0 36.667 -12.333 66.334 -37 89.001s-53 34 -85 34c-38.667 0 -68.667 -13.333 -90 -40s-32 -61 -32 -103c0 -99.333 42 -149 126 -149c33.333 0 61.333 10.667 84 32s34 48 34 80
z" />
    <glyph glyph-name="Gbreve" unicode="&#x11e;" horiz-adv-x="425" 
d="M383 238l-0.000976562 -228.001c-5.33301 4 -12.333 6 -21 6l-59 -10.5c-39.333 -7 -65.666 -10.5 -78.999 -10.5c-60.667 0 -109.334 22.167 -146.001 66.5s-55 103.5 -55 177.5c0 70.667 19 128 57 172c39.333 46.667 93 70 161 70c48.667 0 91.334 -8 128.001 -24
l-12 -32c-40 15.333 -79.333 23 -118 23c-50 0 -91.833 -19.667 -125.5 -59s-50.5 -89.666 -50.5 -150.999c0 -65.333 14.5 -116.833 43.5 -154.5s70.167 -56.5 123.5 -56.5c42 0 80.333 8.33301 115 25v154h-121v32h159zM300.999 588.999
c-3.33301 -18 -11.335 -32.667 -24.002 -44c-17.333 -16 -39 -24 -65 -24s-48 8 -66 24c-12 11.333 -20 26 -24 44h35c2.66699 -7.33301 6.33398 -13.666 11.001 -18.999c10.667 -12 25.334 -18 44.001 -18s33 6 43 18c5.33301 5.33301 9.33301 11.666 12 18.999h34z" />
    <glyph glyph-name="gbreve" unicode="&#x11f;" horiz-adv-x="311" 
d="M275 228c0 -37.333 -11.502 -67 -34.502 -89s-51.5 -33 -85.5 -33c-20.667 0 -38.334 3.66699 -53.001 11c-4 -10 -6 -19.667 -6 -29c0 -17.333 27 -33.666 81 -48.999c64 -18 96 -50.667 96 -98c0 -28.667 -10.333 -52.167 -31 -70.5s-51 -27.5 -91 -27.5
c-35.333 0 -67.666 9 -96.999 27l14 32c28.667 -16.667 57.334 -25 86.001 -25c24.667 0 45 5.66699 61 17s24 26 24 44c0 32 -26.333 56.667 -79 74c-32 10 -54 19 -66 27c-20.667 12.667 -31 29 -31 49c0 12 3.33301 28 10 48c-24.667 26.667 -37 55 -37 85
c0 36 11.333 65 34 87s49.334 33 80.001 33h133v-32l-49 5c27.333 -26.667 41 -55.334 41 -86.001zM240.998 223c0 22 -6.99902 41.334 -20.999 58.001c-16 20 -37.667 30 -65 30c-26.667 0 -47.334 -8.83301 -62.001 -26.5s-22 -38.5 -22 -62.5c0 -26.667 9 -48 27 -64
c16.667 -14.667 35.667 -22 57 -22c24 0 44.333 7.66699 61 23s25 36.666 25 63.999zM243.999 453.001c-3.33301 -18 -11.335 -32.667 -24.002 -44c-17.333 -16 -39 -24 -65 -24s-48 8 -66 24c-12 11.333 -20 26 -24 44h35c2.66699 -7.33301 6.33398 -13.666 11.001 -18.999
c10.667 -12 25.334 -18 44.001 -18s33 6 43 18c5.33301 5.33301 9.33301 11.666 12 18.999h34z" />
    <glyph glyph-name="Idotaccent" unicode="&#x130;" horiz-adv-x="147" 
d="M93 0h-39v476h39v-476zM113 540c0 -9.33301 -3.33301 -17.166 -10 -23.499s-15 -9.5 -25 -9.5c-9.33301 0 -17.166 3.16699 -23.499 9.5s-9.5 14.166 -9.5 23.499s3.16699 17.5 9.5 24.5s14.166 10.5 23.499 10.5c10 0 18.333 -3.5 25 -10.5s10 -15.167 10 -24.5z" />
    <glyph glyph-name="dotlessi" unicode="&#x131;" horiz-adv-x="143" 
d="M90 0h-38v340h38v-340z" />
    <glyph glyph-name="Lslash" unicode="&#x141;" horiz-adv-x="361" 
d="M333 0h-273v194l-33 -10l-9 31l42 13v248h39v-235l217 69v-37l-217 -66v-174h234v-33z" />
    <glyph glyph-name="lslash" unicode="&#x142;" horiz-adv-x="209" 
d="M181 268v-35.001l-82 -27v-20c0 -49.333 4.33301 -84.666 13 -105.999c12.667 -34 38.667 -51.667 78 -53l-4 -34c-84 4 -126 63.333 -126 178v23l-33 -10l-9 31l42 13v277h39v-264z" />
    <glyph glyph-name="OE" unicode="&#x152;" horiz-adv-x="711" 
d="M673 33v-33h-259v74c-42 -56 -99 -84 -171 -84c-65.333 0 -118.5 23.333 -159.5 70s-61.5 105.667 -61.5 177s20.5 130.333 61.5 177s94.167 70 159.5 70c72 0 129 -28 171 -84v76h259v-33h-220v-175h196v-33h-196v-202h220zM414 145l0.000976562 175.001
c-4.66699 32.667 -23.667 62.334 -57 89.001c-35.333 27.333 -73.333 41 -114 41c-53.333 0 -97 -20.833 -131 -62.5s-51 -91.834 -51 -150.501s17 -108.834 51 -150.501s77.667 -62.5 131 -62.5c38 0 72.167 11 102.5 33s53.166 51.333 68.499 88z" />
    <glyph glyph-name="oe" unicode="&#x153;" horiz-adv-x="679" 
d="M629 48l2.99902 -33c-38.667 -16 -80.667 -24 -126 -24c-73.333 0 -125.666 30 -156.999 90c-30 -60.667 -80 -91 -150 -91c-51.333 0 -92.666 17.333 -123.999 52s-47 77 -47 127s15.667 92.167 47 126.5s72.666 51.5 123.999 51.5c72 0 122.667 -31 152 -93
c28.667 62 79 93 151 93c95.333 0 144 -59.667 146 -179h-278c0 -47.333 13 -83 39 -107s59.667 -36 101 -36c39.333 0 79 7.66699 119 23zM331.999 169c0.666992 40.667 -11.5 75 -36.5 103s-57.167 42 -96.5 42c-38.667 0 -70.5 -13.833 -95.5 -41.5
s-37.5 -62.167 -37.5 -103.5s12.5 -76 37.5 -104s56.833 -42 95.5 -42c38 0 69.5 13.833 94.5 41.5s37.833 62.5 38.5 104.5zM610.999 199c-1.33301 34 -12.166 62.001 -32.499 84.001s-47.5 33 -81.5 33c-32.667 0 -60.334 -10.833 -83.001 -32.5
s-36.667 -49.834 -42 -84.501h239z" />
    <glyph glyph-name="Scedilla" unicode="&#x15e;" horiz-adv-x="357" 
d="M322 124c0 -36 -13 -66 -39 -90c-29.333 -28.667 -70.333 -43 -123 -43c-52 0 -95.667 12 -131 36l16 34c32.667 -24.667 72.334 -37 119.001 -37c37.333 0 66.666 8.83301 87.999 26.5s32 41.167 32 70.5c0 26.667 -8.16699 48.167 -24.5 64.5s-43.5 30.5 -81.5 42.5
c-88.667 28.667 -133 73.334 -133 134.001c0 35.333 13.667 64.666 41 87.999s63 35 107 35c44.667 0 81 -8.33301 109 -25l-17 -31c-28.667 15.333 -59.667 23 -93 23c-37.333 0 -66 -9.66699 -86 -29c-16 -16 -24 -34.667 -24 -56c0 -44 35.333 -78 106 -102
c46 -16 79 -33.333 99 -52c23.333 -22 35 -51.667 35 -89zM238 -81c0 -38.667 -23.333 -58 -70 -58c-16 0 -32 4.33301 -48 13l10 22c14 -6.66699 27 -10 39 -10c25.333 0 38 9.33301 38 28c0 16.667 -21 26.667 -63 30l39 60h32l-27 -38c33.333 -8 50 -23.667 50 -47z" />
    <glyph glyph-name="scedilla" unicode="&#x15f;" horiz-adv-x="288" 
d="M251 90c0 -28.667 -10.832 -52.334 -32.499 -71.001s-51.834 -28 -90.501 -28c-33.333 0 -65.333 9 -96 27l15 32c32 -17.333 60 -26 84 -26c56 0 84 21 84 63c0 32.667 -26.333 57 -79 73c-60.667 18.667 -91 49.334 -91 92.001c0 26 9.83301 48.333 29.5 67
s47.167 28 82.5 28s63.333 -7.66699 84 -23l-16 -32c-20 16 -45 24 -75 24c-21.333 0 -38 -5.66699 -50 -17s-18 -25.333 -18 -42c0 -26.667 26 -49 78 -67c60.667 -20.667 91 -54 91 -100zM197.705 -72.9023c0 -34.8008 -21.001 -52.2012 -63.002 -52.2012
c-14.4004 0 -28.8008 3.90039 -43.2012 11.7002l9 19.8008c12.6006 -6 24.3008 -9 35.1006 -9c22.8008 0 34.2012 8.40039 34.2012 25.2002c0 15.001 -18.9004 24.001 -56.7012 27.001l35.1006 54.001h28.8008l-24.3008 -34.2002
c30.001 -7.2002 45.002 -21.3008 45.002 -42.3018z" />
    <glyph glyph-name="Scaron" unicode="&#x160;" horiz-adv-x="352" 
d="M320 124c0 -36 -13 -66 -39 -90c-29.333 -28.667 -70.333 -43 -123 -43c-52 0 -95.667 12 -131 36l16 34c32.667 -24.667 72.334 -37 119.001 -37c37.333 0 66.666 8.83301 87.999 26.5s32 41.167 32 70.5c0 26.667 -8.16699 48.167 -24.5 64.5s-43.5 30.5 -81.5 42.5
c-88.667 28.667 -133 73.334 -133 134.001c0 35.333 13.667 64.666 41 87.999s63 35 107 35c44.667 0 81 -8.33301 109 -25l-17 -31c-28.667 15.333 -59.667 23 -93 23c-37.333 0 -66 -9.66699 -86 -29c-16 -16 -24 -34.667 -24 -56c0 -44 35.333 -78 106 -102
c46 -16 79 -33.333 99 -52c23.333 -22 35 -51.667 35 -89zM190 520h-28l-69 78h37l46 -52l46 52h37z" />
    <glyph glyph-name="scaron" unicode="&#x161;" horiz-adv-x="282" 
d="M248 90c0 -28.667 -10.832 -52.334 -32.499 -71.001s-51.834 -28 -90.501 -28c-33.333 0 -65.333 9 -96 27l15 32c32 -17.333 60 -26 84 -26c56 0 84 21 84 63c0 32.667 -26.333 57 -79 73c-60.667 18.667 -91 49.334 -91 92.001c0 26 9.83301 48.333 29.5 67
s47.167 28 82.5 28s63.333 -7.66699 84 -23l-16 -32c-20 16 -45 24 -75 24c-21.333 0 -38 -5.66699 -50 -17s-18 -25.333 -18 -42c0 -26.667 26 -49 78 -67c60.667 -20.667 91 -54 91 -100zM155.001 384h-28l-69 78h37l46 -52l46 52h37z" />
    <glyph glyph-name="Ydieresis" unicode="&#x178;" horiz-adv-x="382" 
d="M373 476l-164 -266v-210h-38v209l-164 267h45l138 -233l138 233h45zM160 555c0 -8.66699 -3 -15.834 -9 -21.501s-13.333 -8.5 -22 -8.5s-15.834 2.83301 -21.501 8.5s-8.5 12.834 -8.5 21.501s2.83301 16 8.5 22s12.834 9 21.501 9s16 -3 22 -9s9 -13.333 9 -22z
M284 555c0 -8.66699 -3 -15.834 -9 -21.501s-13.333 -8.5 -22 -8.5s-15.834 2.83301 -21.501 8.5s-8.5 12.834 -8.5 21.501s2.83301 16 8.5 22s12.834 9 21.501 9s16 -3 22 -9s9 -13.333 9 -22z" />
    <glyph glyph-name="florin" unicode="&#x192;" horiz-adv-x="398" 
d="M409 446l-17.001 -28c-12.667 7.33301 -28.334 11 -47.001 11c-52 0 -87.667 -42.333 -107 -127l-6 -26h98l-6 -31h-98l-34 -157c-23.333 -106.667 -75 -160 -155 -160c-25.333 0 -43.333 5.33301 -54 16l17 28c12.667 -7.33301 28.334 -11 47.001 -11
c52 0 87.333 42.333 106 127l34 157h-57l6 31h58l6 26c24.667 106.667 76.334 160 155.001 160c25.333 0 43.333 -5.33301 54 -16z" />
    <glyph glyph-name="Ohorn" unicode="&#x1a0;" horiz-adv-x="486" 
d="M464 237c0 -71.333 -20.5 -130.333 -61.5 -177s-94.167 -70 -159.5 -70s-118.5 23.333 -159.5 70s-61.5 105.667 -61.5 177s20.5 130.333 61.5 177s94.167 70 159.5 70c58 0 107 -19 147 -57c28 30 42 61.333 42 94h32c0 -14.667 -4.66699 -32 -14 -52
c-11.333 -23.333 -26 -43 -44 -59c38.667 -46 58 -103.667 58 -173zM425 237c0 58.667 -17 108.834 -51 150.501s-77.667 62.5 -131 62.5s-97 -20.833 -131 -62.5s-51 -91.834 -51 -150.501s17 -108.834 51 -150.501s77.667 -62.5 131 -62.5s97 20.833 131 62.5
s51 91.834 51 150.501z" />
    <glyph glyph-name="ohorn" unicode="&#x1a1;" horiz-adv-x="398" 
d="M370 169c0 -50 -15.668 -92.334 -47.001 -127.001s-72.666 -52 -123.999 -52s-92.666 17.333 -123.999 52s-47 77 -47 127s15.667 92.167 47 126.5s72.666 51.5 123.999 51.5c44.667 0 83 -14.333 115 -43c24 22.667 37 54 39 94h33
c-1.33301 -40.667 -20 -77.667 -56 -111c26.667 -33.333 40 -72.666 40 -117.999zM331.999 168.999c0 41.333 -12.5 75.833 -37.5 103.5s-56.833 41.5 -95.5 41.5s-70.5 -13.833 -95.5 -41.5s-37.5 -62.167 -37.5 -103.5s12.5 -76 37.5 -104s56.833 -42 95.5 -42
s70.5 14 95.5 42s37.5 62.667 37.5 104z" />
    <glyph glyph-name="Uhorn" unicode="&#x1af;" horiz-adv-x="466" 
d="M412 201c0 -140 -59.668 -210 -179.001 -210s-179 70 -179 210v275h39v-274c0 -62.667 12.833 -108 38.5 -136s59.5 -42 101.5 -42c42.667 0 76.834 14 102.501 42s38.167 73.333 37.5 136v274h39v-44c30 26 46 55.667 48 89h32c-6 -47.333 -32.667 -87 -80 -119v-201z
" />
    <glyph glyph-name="uhorn" unicode="&#x1b0;" horiz-adv-x="373" 
d="M355 1l-37.001 -8c-8 22.667 -13.333 44.667 -16 66c-29.333 -45.333 -72 -68 -128 -68c-81.333 0 -122 52.667 -122 158v191h39v-184c0 -87.333 30.667 -131 92 -131c28.667 0 54.667 9.33301 78 28c25.333 21.333 38 48.333 38 81v206h39v-41
c26.667 25.333 41.334 58.333 44.001 99h32c-4.66699 -54.667 -30 -97 -76 -127v-188c0 -24.667 5.66699 -52 17 -82z" />
    <glyph glyph-name="circumflex" unicode="&#x2c6;" horiz-adv-x="212" 
d="M120 470l69 -78h-37l-46 52l-46 -52h-37l69 78h28z" />
    <glyph glyph-name="caron" unicode="&#x2c7;" horiz-adv-x="212" 
d="M120 384h-28l-69 78h37l46 -52l46 52h37z" />
    <glyph glyph-name="breve" unicode="&#x2d8;" horiz-adv-x="302" 
d="M239 453c-3.33301 -18 -11.335 -32.667 -24.002 -44c-17.333 -16 -39 -24 -65 -24s-48 8 -66 24c-12 11.333 -20 26 -24 44h35c2.66699 -7.33301 6.33398 -13.666 11.001 -18.999c10.667 -12 25.334 -18 44.001 -18s33 6 43 18c5.33301 5.33301 9.33301 11.666 12 18.999
h34z" />
    <glyph glyph-name="dotaccent" unicode="&#x2d9;" horiz-adv-x="302" 
d="M185 540c0 -9.33301 -3.33301 -17.166 -10 -23.499s-15 -9.5 -25 -9.5c-9.33301 0 -17.166 3.16699 -23.499 9.5s-9.5 14.166 -9.5 23.499s3.16699 17.5 9.5 24.5s14.166 10.5 23.499 10.5c10 0 18.333 -3.5 25 -10.5s10 -15.167 10 -24.5z" />
    <glyph glyph-name="ring" unicode="&#x2da;" horiz-adv-x="302" 
d="M223 440c0 -19.333 -7.16699 -36.166 -21.5 -50.499s-31.833 -21.5 -52.5 -21.5c-19.333 0 -36.166 7.16699 -50.499 21.5s-21.5 31.166 -21.5 50.499c0 20.667 7.16699 38.334 21.5 53.001s31.166 22 50.499 22c20.667 0 38.167 -7.33301 52.5 -22
s21.5 -32.334 21.5 -53.001zM194 439c0 12.667 -4.16699 23.167 -12.5 31.5s-18.833 12.5 -31.5 12.5c-12 0 -22 -4.16699 -30 -12.5s-12 -18.833 -12 -31.5c0 -11.333 4 -21 12 -29s18 -12 30 -12c12.667 0 23.167 4 31.5 12s12.5 17.667 12.5 29z" />
    <glyph glyph-name="ogonek" unicode="&#x2db;" horiz-adv-x="302" 
d="M218 -143c-12.667 -5.33301 -24.332 -9.16406 -34.999 -11.4971s-21.667 -3.5 -33 -3.5c-24 0 -41.667 7.16699 -53 21.5s-17 31.166 -17 50.499c0 12 1.66699 25.667 5 41s7.66602 31.666 12.999 48.999h40c-12.667 -32.667 -19 -59.334 -19 -80.001
c0 -28.667 13 -44 39 -46c20 0 39.667 5 59 15z" />
    <glyph glyph-name="tilde" unicode="&#x2dc;" horiz-adv-x="212" 
d="M193 457c-0.666992 -17.333 -5.1709 -32 -13.5039 -44s-20.166 -18 -35.499 -18c-6 0 -12.5 1.5 -19.5 4.5s-14 6.16699 -21 9.5l-20 9.5c-6.33301 3 -11.833 4.5 -16.5 4.5c-5.33301 0 -9.66602 -3 -12.999 -9s-5.33301 -13.667 -6 -23h-25
c0.666992 16 4.16699 30.667 10.5 44s17.166 20 32.499 20c6.66699 0 13.334 -1.5 20.001 -4.5s13.334 -6.5 20.001 -10.5s13.334 -7.5 20.001 -10.5s13.667 -4.5 21 -4.5c4.66699 0 9 2.5 13 7.5s6.33301 13.167 7 24.5h26z" />
    <glyph glyph-name="hungarumlaut" unicode="&#x2dd;" horiz-adv-x="279" 
d="M156 330h-27l59 161h47zM69 330h-27l59 161h47z" />
    <glyph glyph-name="gravecomb" unicode="&#x300;" 
d="M-56 390h-31l-58 81l39 10z" />
    <glyph glyph-name="acutecomb" unicode="&#x301;" 
d="M-124 390h-31l50 91l39 -10z" />
    <glyph glyph-name="tildecomb" unicode="&#x303;" 
d="M-18 452c-1.33301 -40 -18 -60 -50 -60c-6.66699 0 -13.667 1.66699 -21 5s-14.5 7.16602 -21.5 11.499s-13.667 8.16602 -20 11.499s-11.833 5 -16.5 5c-5.33301 0 -10.333 -3 -15 -9s-7.33398 -14.667 -8.00098 -26h-25c0.666992 20 5.5 35 14.5 45s20.5 15 34.5 15
c7.33301 0 14.5 -1.66699 21.5 -5s14 -7.16602 21 -11.499s13.833 -8.16602 20.5 -11.499s13.334 -5 20.001 -5c11.333 0 18 11.667 20 35h25z" />
    <glyph glyph-name="hookabovecomb" unicode="&#x309;" 
d="M-99 471c0 -20.667 -9.33301 -38.332 -28 -52.999s-28 -26 -28 -34h-31c0.666992 17.333 10.167 32.666 28.5 45.999s27.5 27 27.5 41c0 9.33301 -3.16699 16.5 -9.5 21.5s-14.833 7.5 -25.5 7.5c-17.333 0 -32.333 -9.33301 -45 -28l-19 15
c14.667 26.667 37.667 40 69 40c18 0 32.667 -4.83301 44 -14.5s17 -23.5 17 -41.5z" />
    <glyph glyph-name="dotbelowcomb" unicode="&#x323;" 
d="M-49 -77c0 -8 -2.66699 -14.833 -8 -20.5s-12.333 -8.5 -21 -8.5c-8 0 -14.833 2.83301 -20.5 8.5s-8.5 12.5 -8.5 20.5c0 6.66699 2.83301 13 8.5 19s12.5 9 20.5 9c8.66699 0 15.667 -3 21 -9s8 -12.333 8 -19z" />
    <glyph glyph-name="uni0E00" unicode="&#xe00;" 
 />
    <glyph glyph-name="uni0E01" unicode="&#xe01;" horiz-adv-x="386" 
d="M330 0l-35.999 -0.00292969v261c0 32.667 -10.167 58.667 -30.5 78s-46.5 29 -78.5 29c-22.667 0 -44.667 -6.33301 -66 -19s-36 -29 -44 -49c39.333 -3.33301 66.333 -18 81 -44c-16 -3.33301 -30 -12.166 -42 -26.499s-18 -30.166 -18 -47.499v-182h-36v181
c0 39.333 17.333 66 52 80c-22 10.667 -47.333 14.334 -76 11.001c5.33301 37.333 22.166 68 50.499 92s61.833 36 100.5 36c43.333 0 78 -12 104 -36s39 -57 39 -99v-265z" />
    <glyph glyph-name="uni0E02" unicode="&#xe02;" horiz-adv-x="378" 
d="M322 83c0 -60.667 -30.668 -91.002 -92.001 -91.002c-60 0 -90 30.333 -90 91v95c0 16.667 8.33301 39.334 25 68.001s25 51 25 67c0 15.333 -6.5 28.833 -19.5 40.5s-28.833 17.5 -47.5 17.5c-29.333 0 -51.666 -9.66699 -66.999 -29c6 2.66699 13.667 4 23 4
c17.333 0 31.5 -5.5 42.5 -16.5s16.5 -24.833 16.5 -41.5c0 -17.333 -5.5 -31.833 -16.5 -43.5s-25.167 -17.5 -42.5 -17.5c-20.667 0 -36.5 7.66699 -47.5 23s-16.5 34 -16.5 56c0 24.667 9.5 46.5 28.5 65.5s45.5 28.5 79.5 28.5c29.333 0 53.5 -7.33301 72.5 -22
s28.5 -34.667 28.5 -60c0 -19.333 -8 -44.666 -24 -75.999s-24 -54.333 -24 -69v-93c0 -37.333 18.333 -56 55 -56s55 18.667 55 56v312h36v-309zM110.999 286.998c0 9.33301 -3 17 -9 23s-13.667 9 -23 9s-17 -3 -23 -9s-9 -13.667 -9 -23s3 -17 9 -23s13.667 -9 23 -9
s17 3 23 9s9 13.667 9 23z" />
    <glyph glyph-name="uni0E03" unicode="&#xe03;" horiz-adv-x="382" 
d="M326 83c0 -60.667 -30.666 -91 -91.999 -91c-60 0 -90 30.333 -90 91v63c0 21.333 10 48.166 30 80.499s30 58.833 30 79.5c0 34.667 -12.667 54.667 -38 60l-35 -42l-36 41c-21.333 -14.667 -35.666 -34 -42.999 -58c9.33301 4 20 6 32 6
c19.333 0 34.666 -6.16699 45.999 -18.5s17 -27.833 17 -46.5c0 -19.333 -6.16699 -35 -18.5 -47s-27.5 -18 -45.5 -18c-22.667 0 -40 9.33301 -52 28c-10.667 16.667 -16 37 -16 61c0 28.667 8 55.334 24 80.001c17.333 27.333 39.666 43.666 66.999 48.999l25 -35l27 35
c24 -2.66699 43.667 -14 59 -34c13.333 -18.667 20 -40 20 -64c0 -20.667 -9.5 -47.667 -28.5 -81s-28.5 -59.666 -28.5 -78.999v-63c0 -37.333 18.333 -56 55 -56s55 18.667 55 56v312h36v-309zM115.001 249c0 9.33301 -3 17 -9 23s-13.667 9 -23 9s-17 -3 -23 -9
s-9 -13.667 -9 -23s3 -17 9 -23s13.667 -9 23 -9s17 3 23 9s9 13.667 9 23z" />
    <glyph glyph-name="uni0E04" unicode="&#xe04;" horiz-adv-x="393" 
d="M337 0l-36.0029 0.00292969v269c0 32 -11.833 56.5 -35.5 73.5s-50.5 25.5 -80.5 25.5c-30.667 0 -57.5 -10.5 -80.5 -31.5s-34.5 -46.833 -34.5 -77.5c0 -14.667 2.66699 -32.334 8 -53.001c7.33301 -29.333 11.333 -46 12 -50c6 38 16.333 70.333 31 97
c19.333 34.667 43.666 52 72.999 52c16.667 0 30.334 -5.33301 41.001 -16s16 -25 16 -43c0 -16.667 -5.66699 -30.834 -17 -42.501s-25.333 -17.5 -42 -17.5c-17.333 0 -32.666 8 -45.999 24c-9.33301 -14 -18.666 -34 -27.999 -60c-11.333 -32 -17 -60.333 -17 -85v-65
h-36v92c0 19.333 -5.33301 46.666 -16 81.999s-16 62.333 -16 81c0 43.333 14.667 78.333 44 105s66 40 110 40c40.667 0 75.834 -10.833 105.501 -32.5s44.5 -53.5 44.5 -95.5v-272zM222.997 246.003c0 8.66699 -3 16 -9 22s-13.333 9 -22 9s-16 -3 -22 -9
s-9 -13.333 -9 -22s3 -16 9 -22s13.333 -9 22 -9s16 3 22 9s9 13.333 9 22z" />
    <glyph glyph-name="uni0E05" unicode="&#xe05;" horiz-adv-x="393" 
d="M337 0l-36.002 -0.00195312v280c-0.666992 46 -23 74.333 -67 85l-48 -54l-53 55c-21.333 -11.333 -37.666 -28.666 -48.999 -51.999c-8.66699 -17.333 -13 -33.666 -13 -48.999c0 -22.667 6.33301 -62.334 19 -119.001c18 90.667 52 136 102 136
c17.333 0 31.333 -5.33301 42 -16s16 -24.667 16 -42c0 -16.667 -5.5 -30.667 -16.5 -42s-24.5 -17 -40.5 -17c-21.333 0 -38.666 7.66699 -51.999 23c-8.66699 -9.33301 -17 -27 -25 -53c-8.66699 -28.667 -13 -55.667 -13 -81v-54h-36v80
c0 20.667 -5.66699 50.334 -17 89.001s-17 68 -17 88c0 76.667 36.333 125 109 145l44 -51l40 51c73.333 -14.667 110.333 -54.667 111 -120v-282zM222.998 223.998c0 8.66699 -3 16 -9 22s-13.333 9 -22 9s-16 -3 -22 -9s-9 -13.333 -9 -22s3 -16 9 -22s13.333 -9 22 -9
s16 3 22 9s9 13.333 9 22z" />
    <glyph glyph-name="uni0E06" unicode="&#xe06;" horiz-adv-x="408" 
d="M175 61c0 9.33301 -3.5 17.5 -10.5 24.5s-15.167 10.5 -24.5 10.5s-17.5 -3.5 -24.5 -10.5s-10.5 -15.167 -10.5 -24.5s3.5 -17.5 10.5 -24.5s15.167 -10.5 24.5 -10.5s17.5 3.5 24.5 10.5s10.5 15.167 10.5 24.5zM352 0l-35.9961 0.00195312
c-28.667 54.667 -69.334 87.667 -122.001 99c9.33301 -10.667 14 -23.334 14 -38.001c0 -19.333 -6.5 -35.666 -19.5 -48.999s-29.167 -20 -48.5 -20c-20 0 -36.5 6.66699 -49.5 20s-19.5 29.666 -19.5 48.999s6.66699 35.5 20 48.5s29.666 19.5 48.999 19.5h4v17
c0 21.333 10 48.166 30 80.499s30 58.833 30 79.5c0 34.667 -12.667 54.667 -38 60l-35 -42l-36 41c-21.333 -14.667 -35.666 -34 -42.999 -58c9.33301 4 20 6 32 6c19.333 0 34.666 -6.16699 45.999 -18.5s17 -27.833 17 -46.5c0 -19.333 -6.16699 -35 -18.5 -47
s-27.5 -18 -45.5 -18c-22.667 0 -40 9.33301 -52 28c-10.667 16.667 -16 37 -16 61c0 28.667 8 55.334 24 80.001c17.333 27.333 39.666 43.666 66.999 48.999l25 -35l27 35c24 -2.66699 43.167 -13.167 57.5 -31.5s21.5 -40.5 21.5 -66.5c0 -20.667 -9.5 -47.667 -28.5 -81
s-28.5 -59.666 -28.5 -78.999v-15c59.333 -6.66699 104.666 -31.334 135.999 -74.001v338h36v-392zM115.004 249.002c0 9.33301 -3 17 -9 23s-13.667 9 -23 9s-17 -3 -23 -9s-9 -13.667 -9 -23s3 -17 9 -23s13.667 -9 23 -9s17 3 23 9s9 13.667 9 23z" />
    <glyph glyph-name="uni0E07" unicode="&#xe07;" horiz-adv-x="294" 
d="M238 0h-36.002l-186 208l20 23l166 -180v224c-9.33301 -4.66699 -19.666 -7 -30.999 -7c-18 0 -33.5 6.5 -46.5 19.5s-19.5 28.167 -19.5 45.5c0 19.333 6.33301 35.333 19 48s28.334 19 47.001 19c21.333 0 38.333 -7 51 -21c10.667 -12.667 16 -28 16 -46v-333z
M204.998 335c0 9.33301 -3.33301 17.333 -10 24s-14.667 10 -24 10s-17.333 -3.33301 -24 -10s-10 -14.667 -10 -24s3.33301 -17.333 10 -24s14.667 -10 24 -10s17.333 3.33301 24 10s10 14.667 10 24z" />
    <glyph glyph-name="uni0E08" unicode="&#xe08;" horiz-adv-x="367" 
d="M311 65c0 -49.333 -23.667 -73.999 -71 -73.999c-37.333 0 -58.666 18.667 -63.999 56l-17 112c-10 -6 -21.333 -9 -34 -9c-16.667 0 -30.667 5.66699 -42 17s-17 25.333 -17 42c0 17.333 5.66699 31.833 17 43.5s25.333 17.5 42 17.5c14.667 0 27.667 -4.83301 39 -14.5
s18.333 -21.834 21 -36.501l29 -170c2.66699 -16.667 12 -25 28 -25c22 0 33 12 33 36v235c0 26 -10.333 44.5 -31 55.5s-44.667 16.5 -72 16.5c-30 0 -54.833 -6.33301 -74.5 -19s-31.834 -30 -36.501 -52h-37c3.33301 28 16.333 51.333 39 70
c27.333 22.667 63.333 34 108 34c93.333 0 140 -35 140 -105v-230zM157 209.001c0 8.66699 -3 16 -9 22s-13.333 9 -22 9s-15.834 -3 -21.501 -9s-8.5 -13.333 -8.5 -22s2.83301 -15.834 8.5 -21.501s12.834 -8.5 21.501 -8.5s16 2.83301 22 8.5s9 12.834 9 21.501z" />
    <glyph glyph-name="uni0E09" unicode="&#xe09;" horiz-adv-x="377" 
d="M339 55c0 -17.333 -5.66895 -32.001 -17.002 -44.001s-26.666 -18 -45.999 -18c-17.333 0 -32 6 -44 18s-18 26.667 -18 44c0 6 0.333008 10.333 1 13c-38 -16 -67 -38.667 -87 -68h-45v93c0 19.333 2.33301 34 7 44h-4c-16.667 0 -30.834 5.83301 -42.501 17.5
s-17.5 25.834 -17.5 42.501c0 17.333 5.83301 31.833 17.5 43.5s25.834 17.5 42.501 17.5c17.333 0 31.833 -5.83301 43.5 -17.5s17.5 -26.167 17.5 -43.5c0 -12.667 -4.66699 -28.5 -14 -47.5s-14 -35.833 -14 -50.5v-64c22 32 58.333 55.667 109 71c38 17.333 57 46 57 86
v100c0 23.333 -12 42.333 -36 57c-20.667 12 -44.667 18 -72 18c-25.333 0 -48.666 -6 -69.999 -18c-24 -14 -38.667 -32.333 -44 -55h-37c2 28 15.333 52 40 72c28 22.667 64.333 34 109 34c43.333 0 78 -8.66699 104 -26c28 -19.333 42 -47 42 -83v-101
c0 -32 -9 -57 -27 -75c30 -9.33301 45 -29.333 45 -60zM309.998 54.999c0 9.33301 -3.16699 17.166 -9.5 23.499s-14.166 9.5 -23.499 9.5c-8.66699 0 -16.334 -3.16699 -23.001 -9.5s-10 -14.166 -10 -23.499c0 -8.66699 3.33301 -16.334 10 -23.001s14.334 -10 23.001 -10
c9.33301 0 17.166 3.33301 23.499 10s9.5 14.334 9.5 23.001zM116.998 196.999c0 8.66699 -2.83301 15.834 -8.5 21.501s-12.834 8.5 -21.501 8.5s-15.834 -2.83301 -21.501 -8.5s-8.5 -12.834 -8.5 -21.501s2.83301 -15.834 8.5 -21.501s12.834 -8.5 21.501 -8.5
s15.834 2.83301 21.501 8.5s8.5 12.834 8.5 21.501z" />
    <glyph glyph-name="uni0E0A" unicode="&#xe0a;" horiz-adv-x="380" 
d="M324 83c0 -60.667 -31.001 -91.001 -93.001 -91.001c-60.667 0 -91 30.333 -91 91v95c0 16.667 8.33301 39.334 25 68.001s25 51 25 67c0 15.333 -6.5 28.833 -19.5 40.5s-28.833 17.5 -47.5 17.5c-29.333 0 -51.666 -9.66699 -66.999 -29c6 2.66699 13.667 4 23 4
c17.333 0 31.5 -5.5 42.5 -16.5s16.5 -24.833 16.5 -41.5c0 -17.333 -5.5 -31.833 -16.5 -43.5s-25.167 -17.5 -42.5 -17.5c-20.667 0 -36.5 7.66699 -47.5 23s-16.5 34 -16.5 56c0 24.667 9.5 46.5 28.5 65.5s45.5 28.5 79.5 28.5c29.333 0 53.5 -7.33301 72.5 -22
s28.5 -34.667 28.5 -60c0 -19.333 -8 -44.666 -24 -75.999s-24 -54.333 -24 -69v-93c0 -37.333 18.667 -56 56 -56s56 18.667 56 56v161c0 29.333 -14.333 49 -43 59c1.33301 4 2 11.667 2 23c36.667 15.333 56 46.333 58 93h38c-2 -25.333 -9 -47.333 -21 -66
s-24.333 -31.334 -37 -38.001c26 -10 39 -32.333 39 -67v-162zM110.999 286.999c0 9.33301 -3 17 -9 23s-13.667 9 -23 9s-17 -3 -23 -9s-9 -13.667 -9 -23s3 -17 9 -23s13.667 -9 23 -9s17 3 23 9s9 13.667 9 23z" />
    <glyph glyph-name="uni0E0B" unicode="&#xe0b;" horiz-adv-x="384" 
d="M115 249c0 9.33301 -3 17 -9 23s-13.667 9 -23 9s-17 -3 -23 -9s-9 -13.667 -9 -23s3 -17 9 -23s13.667 -9 23 -9s17 3 23 9s9 13.667 9 23zM328 83c0 -60.667 -31 -90.998 -93 -90.998c-60.667 0 -91 30.333 -91 91v63c0 21.333 10 48.166 30 80.499s30 58.833 30 79.5
c0 34.667 -12.667 54.667 -38 60l-35 -42l-36 41c-21.333 -14.667 -35.666 -34 -42.999 -58c9.33301 4 20 6 32 6c19.333 0 34.666 -6.16699 45.999 -18.5s17 -27.833 17 -46.5c0 -19.333 -6.16699 -35 -18.5 -47s-27.5 -18 -45.5 -18c-22.667 0 -40 9.33301 -52 28
c-10.667 16.667 -16 37 -16 61c0 28.667 8 55.334 24 80.001c17.333 27.333 39.666 43.666 66.999 48.999l25 -35l27 35c24 -2.66699 43.667 -14 59 -34c13.333 -18.667 20 -40 20 -64c0 -20.667 -9.5 -47.667 -28.5 -81s-28.5 -59.666 -28.5 -78.999v-62
c0 -38 18.667 -57 56 -57s56 18.667 56 56v161c0 29.333 -13.333 48.666 -40 57.999c0.666992 6 0.333984 14 -0.999023 24c36.667 15.333 56 46.333 58 93h38c-2 -25.333 -9 -47.333 -21 -66s-24.333 -31.334 -37 -38.001c26 -10 39 -32.333 39 -67v-162z" />
    <glyph glyph-name="uni0E0C" unicode="&#xe0c;" horiz-adv-x="519" 
d="M463 0h-37.0029c-16 24.667 -42.667 48 -80 70c1.33301 -5.33301 2 -9.66602 2 -12.999c0 -18 -5.83301 -33.5 -17.5 -46.5s-27.834 -19.5 -48.501 -19.5c-18 0 -33.5 6.5 -46.5 19.5s-19.5 28.5 -19.5 46.5c0 17.333 5.83301 32.333 17.5 45s25.834 19.667 42.501 21
v142c0 68.667 -34.333 103 -103 103c-21.333 0 -41.5 -6.5 -60.5 -19.5s-32.167 -29.5 -39.5 -49.5c37.333 -2.66699 64 -17.334 80 -44.001c-16 -3.33301 -30 -12 -42 -26s-18 -29.667 -18 -47v-63c6 2.66699 13.667 4 23 4c18 0 33.5 -6.5 46.5 -19.5
s19.5 -28.5 19.5 -46.5s-6.16699 -33.5 -18.5 -46.5s-28.166 -19.5 -47.499 -19.5s-35.166 6.5 -47.499 19.5s-18.5 28.5 -18.5 46.5c0 10.667 2.33301 20.334 7 29.001v95c0 36 17.333 62.333 52 79c-25.333 10 -51.666 13.667 -78.999 11
c6 37.333 22.5 68.166 49.5 92.499s58.833 36.5 95.5 36.5c42 0 75.333 -11.5 100 -34.5s37 -55.167 37 -96.5v-150c54.667 -18.667 93 -42.667 115 -72v345h36v-392zM314.997 57c0 9.33301 -3.33301 17.333 -10 24s-14.667 10 -24 10s-17.166 -3.33301 -23.499 -10
s-9.5 -14.667 -9.5 -24s3.16699 -17.166 9.5 -23.499s14.166 -9.5 23.499 -9.5s17.333 3.16699 24 9.5s10 14.166 10 23.499zM149.997 57c0 9.33301 -3.33301 17.333 -10 24s-14.667 10 -24 10s-17.166 -3.33301 -23.499 -10s-9.5 -14.667 -9.5 -24
s3.16699 -17.166 9.5 -23.499s14.166 -9.5 23.499 -9.5s17.333 3.16699 24 9.5s10 14.166 10 23.499z" />
    <glyph glyph-name="uni0E0D" unicode="&#xe0d;" horiz-adv-x="519" 
d="M478 -34c-1.33301 -40 -11.833 -72.834 -31.5 -98.501s-50.5 -38.5 -92.5 -38.5c-26.667 0 -50.667 8.33301 -72 25s-32 37.334 -32 62.001c0 14.667 5.33301 27.334 16 38.001s23.334 16 38.001 16c15.333 0 28.333 -5.33301 39 -16s16 -23.334 16 -38.001
c0 -24.667 -11.667 -41.667 -35 -51c8 -4.66699 17.667 -7 29 -7c57.333 0 86.666 36 87.999 108h37zM332 -84.001c0 7.33301 -2.66699 13.666 -8 18.999s-11.666 8 -18.999 8s-13.666 -2.66699 -18.999 -8s-8 -11.666 -8 -18.999s2.66699 -13.666 8 -18.999
s11.666 -8 18.999 -8s13.666 2.66699 18.999 8s8 11.666 8 18.999zM157 56.999c0 9.33301 -3.33301 17.333 -10 24s-14.667 10 -24 10s-17.166 -3.33301 -23.499 -10s-9.5 -14.667 -9.5 -24s3.16699 -17.166 9.5 -23.499s14.166 -9.5 23.499 -9.5s17.333 3.16699 24 9.5
s10 14.166 10 23.499zM463 81.999c0 -60 -32.6729 -89.9971 -98.0059 -89.9971c-64.667 0 -97 30.333 -97 91v182c0 68.667 -32.333 103 -97 103c-21.333 0 -41.166 -6.33301 -59.499 -19s-31.166 -29.334 -38.499 -50.001c37.333 -2.66699 64 -17.334 80 -44.001
c-16 -3.33301 -30 -12 -42 -26s-18 -29.667 -18 -47v-65c8.66699 4 18.667 6 30 6c18.667 0 34.334 -6.33301 47.001 -19s19 -28 19 -46s-5.16699 -33.667 -15.5 -47s-27.166 -20 -50.499 -20c-19.333 0 -35.166 6.16699 -47.499 18.5s-18.5 28.833 -18.5 49.5v122
c0 36 17.333 62.333 52 79c-25.333 10 -51.666 13.667 -78.999 11c6 37.333 22.167 68.166 48.5 92.499s57.833 36.5 94.5 36.5c41.333 0 73.5 -11.333 96.5 -34s34.5 -55 34.5 -97v-189c0 -37.333 20.667 -56 62 -56c40.667 0 61 18.667 61 56v312h36v-310z" />
    <glyph glyph-name="uni0E0E" unicode="&#xe0e;" horiz-adv-x="425" 
d="M369 -215l-40.002 -0.000976562c-5.33301 16 -20.5 32 -45.5 48s-47.5 26.667 -67.5 32v-7c0 -21.333 -6.33301 -39.5 -19 -54.5s-29.667 -22.5 -51 -22.5c-20 0 -35.667 5.83301 -47 17.5s-17 26.167 -17 43.5c0 20.667 7.33301 37 22 49s32.334 18 53.001 18
c3.33301 0 12 -1 26 -3c2.66699 24.667 15 43.334 37 56.001l27 -16c-20 -12.667 -30.333 -28.667 -31 -48c53.333 -18.667 92.333 -41 117 -67v429c0 32.667 -10.167 58.834 -30.5 78.501s-46.5 29.5 -78.5 29.5c-22.667 0 -44.5 -6.5 -65.5 -19.5s-35.5 -29.5 -43.5 -49.5
c35.333 -3.33301 62.333 -18 81 -44c-36 -12 -54 -36.333 -54 -73c0 -26 3 -52.667 9 -80c2.66699 -12 4 -26 4 -42c0 -19.333 -6.5 -35.5 -19.5 -48.5s-28.5 -19.5 -46.5 -19.5s-33.333 6.33301 -46 19s-19 28 -19 46s6.33301 33.5 19 46.5s28 19.5 46 19.5
c7.33301 0 15.333 -1.66699 24 -5c-4 30.667 -6 54 -6 70c0 30.667 13.333 54.667 40 72c-18 8 -35.667 12 -53 12c-8.66699 0 -15 -0.333008 -19 -1c3.33301 37.333 19.5 68.166 48.5 92.499s62.833 36.5 101.5 36.5c42.667 0 77.334 -12.167 104.001 -36.5
s40 -57.5 40 -99.5v-479zM179.998 -127.001c-6 2 -13 3 -21 3c-30 0 -45 -10.667 -45 -32c0 -20.667 11 -31 33 -31c23.333 0 35 15 35 45c0 4.66699 -0.666992 9.66699 -2 15zM122.998 56.999c0 9.33301 -3.33301 17.333 -10 24s-14.667 10 -24 10
s-17.166 -3.33301 -23.499 -10s-9.5 -14.667 -9.5 -24s3.16699 -17.166 9.5 -23.499s14.166 -9.5 23.499 -9.5s17.333 3.16699 24 9.5s10 14.166 10 23.499z" />
    <glyph glyph-name="uni0E0F" unicode="&#xe0f;" horiz-adv-x="425" 
d="M147 -134c-6 6 -16 9 -30 9c-26 0 -39 -11.333 -39 -34c0 -20 10.667 -30 32 -30c24.667 0 37 18.333 37 55zM369 -215l-40 0.00195312l-54 61l-44 -60l-55 60c-0.666992 -20.667 -7.33398 -36.834 -20.001 -48.501s-27.334 -17.5 -44.001 -17.5
c-20.667 0 -36.5 6 -47.5 18s-16.5 26.667 -16.5 44c0 19.333 6.33301 34.833 19 46.5s28.334 17.5 47.001 17.5c12.667 0 23.667 -2.33301 33 -7c1.33301 23.333 15 42.666 41 57.999l27 -16c-22.667 -14 -34.667 -32.667 -36 -56l49 -52l47 63l58 -65v429
c0 32.667 -10.167 58.834 -30.5 78.501s-46.5 29.5 -78.5 29.5c-22.667 0 -44.5 -6.5 -65.5 -19.5s-35.5 -29.5 -43.5 -49.5c35.333 -3.33301 62.333 -18 81 -44c-36 -12 -54 -36.333 -54 -73c0 -26 3 -52.667 9 -80c2.66699 -12 4 -26 4 -42
c0 -19.333 -6.5 -35.5 -19.5 -48.5s-28.5 -19.5 -46.5 -19.5s-33.333 6.33301 -46 19s-19 28 -19 46s6.33301 33.5 19 46.5s28 19.5 46 19.5c7.33301 0 15.333 -1.66699 24 -5c-4 30.667 -6 54 -6 70c0 30.667 13.333 54.667 40 72c-18 8 -35.667 12 -53 12
c-8.66699 0 -15 -0.333008 -19 -1c3.33301 37.333 19.5 68.166 48.5 92.499s62.833 36.5 101.5 36.5c42.667 0 77.334 -12.167 104.001 -36.5s40 -57.5 40 -99.5v-479zM123 57.002c0 9.33301 -3.33301 17.333 -10 24s-14.667 10 -24 10s-17.166 -3.33301 -23.499 -10
s-9.5 -14.667 -9.5 -24s3.16699 -17.166 9.5 -23.499s14.166 -9.5 23.499 -9.5s17.333 3.16699 24 9.5s10 14.166 10 23.499z" />
    <glyph glyph-name="uni0E10" unicode="&#xe10;" horiz-adv-x="343" 
d="M283 79c0 -58.667 -26.6689 -88 -80.002 -88c-52.667 0 -79 29.333 -79 88v51c-7.33301 -2.66699 -15.666 -4 -24.999 -4c-16.667 0 -30.667 5.5 -42 16.5s-17 24.833 -17 41.5c0 17.333 5.66699 31.833 17 43.5s25.333 17.5 42 17.5
c17.333 0 31.833 -5.16699 43.5 -15.5s17.5 -24.833 17.5 -43.5v-110c0 -34.667 14.333 -52 43 -52c29.333 0 44 17.333 44 52v145c0 16 -32.333 32 -97 48c-38.667 10 -80 18 -124 24c2 30.667 13.667 56.167 35 76.5s49.666 30.5 84.999 30.5
c14 0 32.833 -3.66699 56.5 -11s41.834 -11 54.501 -11c16 0 25.667 7.33301 29 22l31 -7c-10.667 -34.667 -30 -52 -58 -52c-14.667 0 -34.834 4 -60.501 12s-45.167 12 -58.5 12c-15.333 0 -30.166 -4.5 -44.499 -13.5s-22.166 -19.5 -23.499 -31.5
c66.667 -13.333 114 -25.333 142 -36c46 -16.667 69 -36.667 69 -60v-145zM285.998 -216l-39 0.00195312l-43 27l-44 -26l-45 55c-0.666992 -18.667 -7.33398 -33.334 -20.001 -44.001s-27.667 -16 -45 -16c-42.667 0.666992 -64 19.667 -64 57c0 16 6.66699 28.333 20 37
s29 13 47 13c15.333 0 27 -1.66699 35 -5c4 27.333 18.667 47.666 44 60.999l27 -15c-27.333 -13.333 -41.333 -33 -42 -59l44 -51l43 22l48 -30v45c-3.33301 -0.666992 -8.66602 -1 -15.999 -1c-14 0 -26 4.5 -36 13.5s-15 19.833 -15 32.5s5 23.5 15 32.5s22 13.5 36 13.5
c13.333 0 25 -4.16699 35 -12.5s15 -19.5 15 -33.5v-116zM83.998 -146.998c-6.66699 4.66699 -18 7.00098 -34 7.00098c-22 -1.33301 -33 -10 -33 -26c0 -17.333 10.333 -26 31 -26c25.333 0 38 10.667 38 32c0 3.33301 -0.666992 7.66602 -2 12.999zM259.998 -99.9971
c0 14.667 -8 22 -24 22s-24 -7.33301 -24 -22c0 -15.333 8 -23 24 -23s24 7.66699 24 23zM125.998 185.003c0 7.33301 -2.66699 13.666 -8 18.999s-11.666 8 -18.999 8s-13.5 -2.66699 -18.5 -8s-7.5 -11.666 -7.5 -18.999s2.5 -13.5 7.5 -18.5s11.167 -7.5 18.5 -7.5
s13.666 2.5 18.999 7.5s8 11.167 8 18.5z" />
    <glyph glyph-name="uni0E11" unicode="&#xe11;" horiz-adv-x="461" 
d="M405 0l-36 0.000976562v320c0 30 -9.66699 45 -29 45c-7.33301 0 -15.333 -8.66699 -24 -26l-127 -339h-45v146c0 21.333 9 48.166 27 80.499s27 58.833 27 79.5c0 36 -10.667 56 -32 60l-35 -42l-36 41c-21.333 -14.667 -35.666 -34 -42.999 -58c9.33301 4 20 6 32 6
c19.333 0 34.666 -6.16699 45.999 -18.5s17 -27.833 17 -46.5c0 -19.333 -6.16699 -35 -18.5 -47s-27.5 -18 -45.5 -18c-22.667 0 -40 9.33301 -52 28c-10.667 16.667 -16 37 -16 61c0 28.667 8.33301 56 25 82s38.667 41.667 66 47l25 -35l27 35
c48.667 -6 73 -38.667 73 -98c0 -20.667 -8.5 -48 -25.5 -82s-25.5 -61.667 -25.5 -83l-4 -85c7.33301 28 15.333 53 24 75l82 216c14 37.333 34.333 56 61 56c41.333 0 62 -26.667 62 -80v-320zM115 249.001c0 9.33301 -3 17 -9 23s-13.667 9 -23 9s-17 -3 -23 -9
s-9 -13.667 -9 -23s3 -17 9 -23s13.667 -9 23 -9s17 3 23 9s9 13.667 9 23z" />
    <glyph glyph-name="uni0E12" unicode="&#xe12;" horiz-adv-x="532" 
d="M476 0l-36.0029 -0.00292969c-17.333 28.667 -44.333 52.334 -81 71.001c1.33301 -4 2 -8.66699 2 -14c0 -17.333 -6 -32.5 -18 -45.5s-28 -19.5 -48 -19.5s-36 6.5 -48 19.5s-18 28.5 -18 46.5c0 17.333 5.83301 32.333 17.5 45s25.834 19.667 42.501 21v136
c0 48 -15.333 82 -46 102l-64 -58l-59 59c-15.333 -10 -27.833 -25 -37.5 -45s-14.5 -40 -14.5 -60c0 -19.333 6.83301 -47.166 20.5 -83.499s20.834 -65.833 21.501 -88.5c5.33301 11.333 15.333 24.333 30 39c17.333 16 29 28.333 35 37
c-16.667 2 -29.834 8.5 -39.501 19.5s-14.5 24.167 -14.5 39.5c0 16.667 5.66699 30.667 17 42s25.333 17 42 17s30.834 -5.83301 42.501 -17.5s17.167 -25.5 16.5 -41.5c-1.33301 -30.667 -22.666 -67.5 -63.999 -110.5s-63 -79.833 -65 -110.5h-36v91
c0 20 -7 47.5 -21 82.5s-21 61.833 -21 80.5c0 32.667 7.66699 62.334 23 89.001c17.333 29.333 41 48 71 56l54 -57l54 58c29.333 -5.33301 51.833 -21.333 67.5 -48s23.5 -56 23.5 -88v-145c54.667 -18.667 93 -41 115 -67v340h36v-392zM210.997 221.997
c0 9.33301 -3 17 -9 23s-13.667 9 -23 9s-16.833 -3 -22.5 -9s-8.5 -13.667 -8.5 -23s2.83301 -16.833 8.5 -22.5s13.167 -8.5 22.5 -8.5s17 2.83301 23 8.5s9 13.167 9 22.5zM327.997 56.9971c0 9.33301 -3.33301 17.333 -10 24s-14.667 10 -24 10
s-17.166 -3.33301 -23.499 -10s-9.5 -14.667 -9.5 -24s3.16699 -17.166 9.5 -23.499s14.166 -9.5 23.499 -9.5s17.333 3.16699 24 9.5s10 14.166 10 23.499z" />
    <glyph glyph-name="uni0E13" unicode="&#xe13;" horiz-adv-x="543" 
d="M508 56c0 -18.667 -6.33691 -34.3311 -19.0039 -46.998s-28.667 -19 -48 -19c-18.667 0 -34.334 6.33301 -47.001 19s-19 28.334 -19 47.001v6c-24 -9.33301 -45.333 -30 -64 -62h-43v265c0 68.667 -32.333 103 -97 103c-21.333 0 -41.166 -6.33301 -59.499 -19
s-31.166 -29.334 -38.499 -50.001c37.333 -2.66699 64 -17.334 80 -44.001c-16 -3.33301 -30 -12 -42 -26s-18 -29.667 -18 -47v-65c8.66699 4 18.667 6 30 6c18.667 0 34.334 -6.33301 47.001 -19s19 -28 19 -46c0 -19.333 -6.16699 -35.333 -18.5 -48
s-28.166 -19 -47.499 -19s-35.166 6.5 -47.499 19.5s-18.5 29.167 -18.5 48.5v122c0 36 17.333 62.333 52 79c-25.333 10 -51.666 13.667 -78.999 11c6 37.333 22.167 68.166 48.5 92.499s57.833 36.5 94.5 36.5c41.333 0 73.5 -11.333 96.5 -34s34.5 -55 34.5 -97v-221
c15.333 20 36.666 36.333 63.999 49c32.667 16 52 26.333 58 31c16.667 14.667 25 37 25 67v197h36v-195c0 -40 -6.33301 -66.333 -19 -79c26.667 -11.333 40 -32 40 -62zM156.996 57.0029c0 9.33301 -3.33301 17.333 -10 24s-14.667 10 -24 10
s-17.166 -3.33301 -23.499 -10s-9.5 -14.667 -9.5 -24s3.16699 -17.166 9.5 -23.499s14.166 -9.5 23.499 -9.5s17.333 3.16699 24 9.5s10 14.166 10 23.499zM474.996 56.0029c0 9.33301 -3.33301 17.333 -10 24s-14.667 10 -24 10s-17.333 -3.33301 -24 -10
s-10 -14.667 -10 -24s3.33301 -17.333 10 -24s14.667 -10 24 -10s17.333 3.33301 24 10s10 14.667 10 24z" />
    <glyph glyph-name="uni0E14" unicode="&#xe14;" horiz-adv-x="391" 
d="M335 0l-36 -0.000976562v260c0 72 -38.333 108 -115 108c-30.667 0 -57.667 -10.5 -81 -31.5s-35 -46.833 -35 -77.5c0 -19.333 5.33301 -45.5 16 -78.5s16 -58.5 16 -76.5c0 -13.333 -0.666992 -22.333 -2 -27c8 17.333 21.667 36.666 41 57.999l47 51
c-16.667 0 -30.667 5.66699 -42 17s-17 25.333 -17 42s5.66699 30.667 17 42s25.333 17 42 17s30.667 -5.66699 42 -17s17 -25.333 17 -42c0 -32 -23.5 -72.667 -70.5 -122s-71.5 -90.333 -73.5 -123h-36v90c0 19.333 -5.5 46.833 -16.5 82.5s-16.5 62.834 -16.5 81.501
c0 45.333 15 81 45 107s67.333 39 112 39c46 0 81.833 -12.167 107.5 -36.5s38.5 -57.166 38.5 -98.499v-265zM217 244.999c0 8.66699 -3 16 -9 22s-13.333 9 -22 9s-16 -3 -22 -9s-9 -13.333 -9 -22s3 -16 9 -22s13.333 -9 22 -9s16 3 22 9s9 13.333 9 22z" />
    <glyph glyph-name="uni0E15" unicode="&#xe15;" horiz-adv-x="391" 
d="M335 0h-36.001v260c0 49.333 -16 83.666 -48 102.999l-64 -59l-68 59c-33.333 -21.333 -50 -56 -50 -104c0 -20.667 5.33301 -49.167 16 -85.5s16 -67.833 16 -94.5c6.66699 13.333 20.167 28.333 40.5 45s33.833 30 40.5 40c-15.333 1.33301 -28.166 7.33301 -38.499 18
s-15.5 24 -15.5 40c0 16.667 5.5 30.667 16.5 42s24.833 17 41.5 17s30.667 -5.66699 42 -17s17 -25.333 17 -42c0 -30.667 -23.333 -67.334 -70 -110.001s-71 -80 -73 -112h-36v90c0 19.333 -5.66699 46.833 -17 82.5s-17 62.834 -17 81.501
c0 32.667 7.33301 62.334 22 89.001c17.333 30 41 49 71 57l62 -55l57 55c29.333 -5.33301 52.333 -22.333 69 -51c14.667 -24.667 22 -52.667 22 -84v-265zM218.999 223c0 8.66699 -3 16 -9 22s-13.333 9 -22 9s-16 -3 -22 -9s-9 -13.333 -9 -22s3 -16 9 -22
s13.333 -9 22 -9s16 3 22 9s9 13.333 9 22z" />
    <glyph glyph-name="uni0E16" unicode="&#xe16;" horiz-adv-x="378" 
d="M322 0l-35.9971 -0.00292969v261c0 34 -10 60.333 -30 79s-46.333 28 -79 28c-22.667 0 -44.334 -6.5 -65.001 -19.5s-35 -29.5 -43 -49.5c40.667 -3.33301 67 -17.666 79 -42.999c-15.333 -3.33301 -29 -12.166 -41 -26.499s-18 -29.833 -18 -46.5v-65
c10.667 4.66699 20.667 7 30 7c18.667 0 34.5 -6.5 47.5 -19.5s19.5 -28.833 19.5 -47.5c0 -20 -6.33301 -36 -19 -48s-28.667 -18 -48 -18c-18.667 0 -34.334 6.33301 -47.001 19s-19 28.334 -19 47.001v124c0 36 17 62.333 51 79c-18 7.33301 -44 11 -78 11
c5.33301 36.667 22.666 67.167 51.999 91.5s63 36.5 101 36.5c42.667 0 77.167 -12 103.5 -36s39.5 -57 39.5 -99v-265zM154.003 56.9971c0 9.33301 -3.33301 17.333 -10 24s-14.667 10 -24 10s-17.166 -3.33301 -23.499 -10s-9.5 -14.667 -9.5 -24
s3.16699 -17.166 9.5 -23.499s14.166 -9.5 23.499 -9.5s17.333 3.16699 24 9.5s10 14.166 10 23.499z" />
    <glyph glyph-name="uni0E17" unicode="&#xe17;" horiz-adv-x="430" 
d="M374 0h-36v320c0 30 -9.66699 45 -29 45c-12 0 -22.333 -8.66699 -31 -26l-127 -339h-38v275c-8.66699 -4.66699 -18.667 -7 -30 -7c-18 0 -33.5 6.5 -46.5 19.5s-19.5 28.5 -19.5 46.5s6.5 33.5 19.5 46.5s28.5 19.5 46.5 19.5s33.5 -6.5 46.5 -19.5
s19.5 -28.5 19.5 -46.5v-196c-1.33301 -30.667 -3 -52.667 -5 -66c4 13.333 10 32 18 56l81 216c14 37.333 37 56 69 56c41.333 0 62 -26.667 62 -80v-320zM117 334c0 9.33301 -3.33301 17.333 -10 24s-14.667 10 -24 10s-17.333 -3.33301 -24 -10s-10 -14.667 -10 -24
s3.33301 -17.333 10 -24s14.667 -10 24 -10s17.333 3.33301 24 10s10 14.667 10 24z" />
    <glyph glyph-name="uni0E18" unicode="&#xe18;" horiz-adv-x="335" 
d="M277 76c0 -55.333 -36.667 -83 -110 -83s-110 27.667 -110 83v156h36v-158c0 -32.667 24.667 -49 74 -49s74 16.333 74 49v148c0 16 -32.333 32 -97 48c-39.333 10 -80.666 18 -123.999 24c2 30 12.833 55.167 32.5 75.5s46.5 30.5 80.5 30.5
c15.333 0 35.333 -3.66699 60 -11s43 -11 55 -11c16 0 25.333 7.66699 28 23l31 -7c-10 -32.667 -29 -49 -57 -49c-14.667 0 -34.834 3.83301 -60.501 11.5s-45.167 11.5 -58.5 11.5c-14 0 -27.833 -4.66699 -41.5 -14s-21.5 -20.333 -23.5 -33
c72 -14.667 116.333 -24.667 133 -30c52 -17.333 78 -39.333 78 -66v-149z" />
    <glyph glyph-name="uni0E19" unicode="&#xe19;" horiz-adv-x="420" 
d="M384 57c0 -18 -6.5 -33.333 -19.5 -46s-28.5 -19 -46.5 -19s-33.333 6.33301 -46 19s-19 28 -19 46v7c-41.333 -16.667 -73.333 -38 -96 -64h-44v275c-8.66699 -4.66699 -18.667 -7 -30 -7c-18 0 -33.5 6.5 -46.5 19.5s-19.5 28.5 -19.5 46.5s6.5 33.5 19.5 46.5
s28.5 19.5 46.5 19.5s33.5 -6.5 46.5 -19.5s19.5 -28.5 19.5 -46.5v-295c13.333 14.667 37 29.667 71 45c38 17.333 62.667 30.666 74 39.999c22.667 18 34 41 34 69v199h36v-204c0 -32 -7.33301 -55.333 -22 -70c28 -11.333 42 -31.666 42 -60.999zM117 334
c0 9.33301 -3.33301 17.333 -10 24s-14.667 10 -24 10s-17.333 -3.33301 -24 -10s-10 -14.667 -10 -24s3.33301 -17.333 10 -24s14.667 -10 24 -10s17.333 3.33301 24 10s10 14.667 10 24zM352 58c0 9.33301 -3.33301 17.333 -10 24s-14.667 10 -24 10
s-17.333 -3.33301 -24 -10s-10 -14.667 -10 -24s3.33301 -17.333 10 -24s14.667 -10 24 -10s17.333 3.33301 24 10s10 14.667 10 24z" />
    <glyph glyph-name="uni0E1A" unicode="&#xe1a;" horiz-adv-x="428" 
d="M372 85c0 -62 -43 -93 -129 -93c-86.667 0 -130 31 -130 93v190c-8.66699 -4.66699 -18.667 -7 -30 -7c-18 0 -33.5 6.5 -46.5 19.5s-19.5 28.5 -19.5 46.5s6.5 33.5 19.5 46.5s28.5 19.5 46.5 19.5s33.5 -6.5 46.5 -19.5s19.5 -28.5 19.5 -46.5v-246
c0 -42 31.333 -63 94 -63c62 0 93 21 93 63v304h36v-307zM117 334c0 9.33301 -3.33301 17.333 -10 24s-14.667 10 -24 10s-17.333 -3.33301 -24 -10s-10 -14.667 -10 -24s3.33301 -17.333 10 -24s14.667 -10 24 -10s17.333 3.33301 24 10s10 14.667 10 24z" />
    <glyph glyph-name="uni0E1B" unicode="&#xe1b;" horiz-adv-x="428" 
d="M372 85c0 -62 -43 -93 -129 -93c-86.667 0 -130 31 -130 93v190c-8.66699 -4.66699 -18.667 -7 -30 -7c-18 0 -33.5 6.5 -46.5 19.5s-19.5 28.5 -19.5 46.5s6.5 33.5 19.5 46.5s28.5 19.5 46.5 19.5s33.5 -6.5 46.5 -19.5s19.5 -28.5 19.5 -46.5v-246
c0 -42 31.333 -63 94 -63c62 0 93 21 93 63v471h36v-474zM117 334c0 9.33301 -3.33301 17.333 -10 24s-14.667 10 -24 10s-17.333 -3.33301 -24 -10s-10 -14.667 -10 -24s3.33301 -17.333 10 -24s14.667 -10 24 -10s17.333 3.33301 24 10s10 14.667 10 24z" />
    <glyph glyph-name="uni0E1C" unicode="&#xe1c;" horiz-adv-x="381" 
d="M325 0l-40 -0.000976562l-103 158l-102 -158h-40v334c0 18 6.33301 33.5 19 46.5s28.334 19.5 47.001 19.5c18 0 33.5 -6.5 46.5 -19.5s19.5 -28.5 19.5 -46.5c0 -17.333 -6.33301 -32.666 -19 -45.999s-28.334 -20 -47.001 -20c-9.33301 0 -19.333 2.33301 -30 7v-221
l92 142h27l94 -142v338h36v-392zM141 333.999c0 9.33301 -3.33301 17.333 -10 24s-14.667 10 -24 10s-17.333 -3.33301 -24 -10s-10 -14.667 -10 -24s3.33301 -17.333 10 -24s14.667 -10 24 -10s17.333 3.33301 24 10s10 14.667 10 24z" />
    <glyph glyph-name="uni0E1D" unicode="&#xe1d;" horiz-adv-x="381" 
d="M325 0l-40 -0.000976562l-103 158l-102 -158h-40v334c0 18 6.33301 33.5 19 46.5s28.334 19.5 47.001 19.5c18 0 33.5 -6.5 46.5 -19.5s19.5 -28.5 19.5 -46.5c0 -17.333 -6.33301 -32.666 -19 -45.999s-28.334 -20 -47.001 -20c-9.33301 0 -19.333 2.33301 -30 7v-221
l92 142h27l94 -142v505h36v-559zM141 333.999c0 9.33301 -3.33301 17.333 -10 24s-14.667 10 -24 10s-17.333 -3.33301 -24 -10s-10 -14.667 -10 -24s3.33301 -17.333 10 -24s14.667 -10 24 -10s17.333 3.33301 24 10s10 14.667 10 24z" />
    <glyph glyph-name="uni0E1E" unicode="&#xe1e;" horiz-adv-x="447" 
d="M391 0h-44l-95 347l-95 -347h-44v275c-8.66699 -4.66699 -18.667 -7 -30 -7c-18 0 -33.5 6.5 -46.5 19.5s-19.5 28.5 -19.5 46.5s6.5 33.5 19.5 46.5s28.5 19.5 46.5 19.5s33.5 -6.5 46.5 -19.5s19.5 -28.5 19.5 -46.5v-209c0 -16.667 -1.66699 -40 -5 -70
c4.66699 22 10.667 46.333 18 73l73 264h34l73 -264c7.33301 -26.667 13.333 -51 18 -73c-3.33301 30 -5 53.333 -5 70v267h36v-392zM117 334c0 9.33301 -3.33301 17.333 -10 24s-14.667 10 -24 10s-17.333 -3.33301 -24 -10s-10 -14.667 -10 -24s3.33301 -17.333 10 -24
s14.667 -10 24 -10s17.333 3.33301 24 10s10 14.667 10 24z" />
    <glyph glyph-name="uni0E1F" unicode="&#xe1f;" horiz-adv-x="447" 
d="M391 0h-44l-95 347l-95 -347h-44v275c-8.66699 -4.66699 -18.667 -7 -30 -7c-18 0 -33.5 6.5 -46.5 19.5s-19.5 28.5 -19.5 46.5s6.5 33.5 19.5 46.5s28.5 19.5 46.5 19.5s33.5 -6.5 46.5 -19.5s19.5 -28.5 19.5 -46.5v-209c0 -16.667 -1.66699 -40 -5 -70
c4.66699 22 10.667 46.333 18 73l73 264h34l73 -264c7.33301 -26.667 13.333 -51 18 -73c-3.33301 30 -5 53.333 -5 70v434h36v-559zM117 334c0 9.33301 -3.33301 17.333 -10 24s-14.667 10 -24 10s-17.333 -3.33301 -24 -10s-10 -14.667 -10 -24s3.33301 -17.333 10 -24
s14.667 -10 24 -10s17.333 3.33301 24 10s10 14.667 10 24z" />
    <glyph glyph-name="uni0E20" unicode="&#xe20;" horiz-adv-x="425" 
d="M369 0h-36v260c0 32.667 -10.167 58.834 -30.5 78.501s-46.5 29.5 -78.5 29.5c-22.667 0 -44.5 -6.5 -65.5 -19.5s-35.5 -29.5 -43.5 -49.5c35.333 -3.33301 62.333 -18 81 -44c-36 -12 -54 -36.333 -54 -73c0 -26 3 -52.667 9 -80c2.66699 -12 4 -26 4 -42
c0 -19.333 -5.83301 -35.5 -17.5 -48.5s-27.834 -19.5 -48.501 -19.5c-18 0 -33.333 6.33301 -46 19s-19 28 -19 46s6.33301 33.5 19 46.5s28 19.5 46 19.5c7.33301 0 15.333 -1.66699 24 -5c-4 30.667 -6 54 -6 70c0 30.667 13.333 54.667 40 72c-18 8 -35.667 12 -53 12
c-8.66699 0 -15 -0.333008 -19 -1c3.33301 37.333 19.5 68.166 48.5 92.499s62.833 36.5 101.5 36.5c42.667 0 77.334 -12.167 104.001 -36.5s40 -57.5 40 -99.5v-264zM123 57c0 9.33301 -3.33301 17.333 -10 24s-14.667 10 -24 10s-17.166 -3.33301 -23.499 -10
s-9.5 -14.667 -9.5 -24s3.16699 -17.166 9.5 -23.499s14.166 -9.5 23.499 -9.5s17.333 3.16699 24 9.5s10 14.166 10 23.499z" />
    <glyph glyph-name="uni0E21" unicode="&#xe21;" horiz-adv-x="400" 
d="M344 0h-39c-52 40 -100.667 66.333 -146 79c2 -6 3 -12 3 -18c0 -19.333 -6.83301 -35.666 -20.5 -48.999s-30.167 -20 -49.5 -20s-35.666 6.66699 -48.999 20s-20 29.666 -20 48.999s6.66699 35.833 20 49.5s29.666 20.5 48.999 20.5c7.33301 0 14.333 -1 21 -3v147
c-8.66699 -4.66699 -18.667 -7 -30 -7c-18 0 -33.5 6.5 -46.5 19.5s-19.5 28.5 -19.5 46.5s6.5 33.5 19.5 46.5s28.5 19.5 46.5 19.5s33.5 -6.5 46.5 -19.5s19.5 -28.5 19.5 -46.5v-216c66 -23.333 119 -50.333 159 -81v355h36v-392zM129 62c0 10 -3.66699 18.667 -11 26
s-16 11 -26 11s-18.667 -3.66699 -26 -11s-11 -16 -11 -26s3.66699 -18.667 11 -26s16 -11 26 -11s18.667 3.66699 26 11s11 16 11 26zM117 334c0 9.33301 -3.33301 17.333 -10 24s-14.667 10 -24 10s-17.333 -3.33301 -24 -10s-10 -14.667 -10 -24s3.33301 -17.333 10 -24
s14.667 -10 24 -10s17.333 3.33301 24 10s10 14.667 10 24z" />
    <glyph glyph-name="uni0E22" unicode="&#xe22;" horiz-adv-x="375" 
d="M319 89c0 -64.667 -45.002 -97.001 -135.002 -97.001c-90.667 0 -136 32.333 -136 97v51c0 15.333 4.5 30 13.5 44s20.167 23.667 33.5 29c-35.333 15.333 -53 48.333 -53 99c0 26 7.5 47.167 22.5 63.5s35.833 24.5 62.5 24.5c16.667 0 30.334 -5.66699 41.001 -17
s16 -24.666 16 -39.999s-5 -28.5 -15 -39.5s-24 -16.5 -42 -16.5c-24.667 0 -42 11 -52 33c-0.666992 -4.66699 -1 -10 -1 -16c0 -18.667 5.83301 -35.667 17.5 -51s26.834 -23 45.501 -23h57v-34h-58c-14.667 0 -27 -5.33301 -37 -16s-15 -24.667 -15 -42v-46
c0 -44.667 33.333 -67 100 -67c66 0 99 22.333 99 67v300h36v-303zM157.998 342.999c0 9.33301 -3 17 -9 23s-13.667 9 -23 9s-16.833 -3 -22.5 -9s-8.5 -13.667 -8.5 -23s2.83301 -16.833 8.5 -22.5s13.167 -8.5 22.5 -8.5s17 2.83301 23 8.5s9 13.167 9 22.5z" />
    <glyph glyph-name="uni0E23" unicode="&#xe23;" horiz-adv-x="322" 
d="M254 58c0 -18 -6.00098 -33.5 -18.001 -46.5s-28 -19.5 -48 -19.5c-18 0 -33.5 6.5 -46.5 19.5s-19.5 28.5 -19.5 46.5s6.5 33.5 19.5 46.5s28.5 19.5 46.5 19.5c11.333 0 21.333 -2.33301 30 -7v105c0 27.333 -64.333 51.333 -193 72c4 70.667 36.333 106 97 106
c14 0 33.833 -3.5 59.5 -10.5s44.167 -10.5 55.5 -10.5c6.66699 0 13 7.66699 19 23l31 -8c-10 -32 -27 -48 -51 -48c-14 0 -34.167 3.66699 -60.5 11s-46.166 11 -59.499 11c-12 0 -23.167 -5.16699 -33.5 -15.5s-15.833 -20.833 -16.5 -31.5
c42.667 -7.33301 84.667 -18.333 126 -33s62 -35.667 62 -63v-167zM221.999 58c0 9.33301 -3.33301 17.333 -10 24s-14.667 10 -24 10s-17.333 -3.33301 -24 -10s-10 -14.667 -10 -24s3.33301 -17.333 10 -24s14.667 -10 24 -10s17.333 3.33301 24 10s10 14.667 10 24z" />
    <glyph glyph-name="uni0E24" unicode="&#xe24;" horiz-adv-x="378" 
d="M322 -200l-35.9971 -0.00195312v461c0 34 -10 60.333 -30 79s-46.333 28 -79 28c-22.667 0 -44.334 -6.5 -65.001 -19.5s-35 -29.5 -43 -49.5c40.667 -3.33301 67 -17.666 79 -42.999c-15.333 -3.33301 -29 -12.166 -41 -26.499s-18 -29.833 -18 -46.5v-65
c10.667 4.66699 20.667 7 30 7c18.667 0 34.5 -6.5 47.5 -19.5s19.5 -28.833 19.5 -47.5s-6.5 -34.334 -19.5 -47.001s-28.833 -19 -47.5 -19s-34.334 6.33301 -47.001 19s-19 28.334 -19 47.001v124c0 36 17 62.333 51 79c-18 7.33301 -44 11 -78 11
c5.33301 36.667 22.666 67.167 51.999 91.5s63 36.5 101 36.5c42.667 0 77.167 -12 103.5 -36s39.5 -57 39.5 -99v-465zM154.003 56.998c0 9.33301 -3.33301 17.333 -10 24s-14.667 10 -24 10s-17.166 -3.33301 -23.499 -10s-9.5 -14.667 -9.5 -24
s3.16699 -17.166 9.5 -23.499s14.166 -9.5 23.499 -9.5s17.333 3.16699 24 9.5s10 14.166 10 23.499z" />
    <glyph glyph-name="uni0E25" unicode="&#xe25;" horiz-adv-x="381" 
d="M325 0l-35.999 0.000976562v171c0 23.333 -12.333 42 -37 56c-20.667 11.333 -44.667 17 -72 17c-26.667 0 -49.334 -7.16699 -68.001 -21.5s-28 -32.833 -28 -55.5v-50c9.33301 4.66699 20.333 7 33 7c18.667 0 34.334 -6.5 47.001 -19.5s19 -28.5 19 -46.5
s-6.33301 -33.5 -19 -46.5s-28.334 -19.5 -47.001 -19.5c-20.667 0 -37.334 6.66699 -50.001 20s-19 29 -19 47v108c0 33.333 13.333 60.666 40 81.999c24.667 20 54.334 30 89.001 30c46.667 0 84 -13.333 112 -40v49c0 24 -12.667 44 -38 60c-22 13.333 -46.333 20 -73 20
c-28 0 -53.333 -6 -76 -18c-24.667 -13.333 -40 -31.333 -46 -54h-35c4.66699 30.667 22.667 56 54 76c29.333 18.667 63 28 101 28c38.667 0 72 -9 100 -27c32.667 -21.333 49 -50.333 49 -87v-286zM150.001 57.001c0 9.33301 -3.33301 17.333 -10 24s-14.667 10 -24 10
s-17.166 -3.33301 -23.499 -10s-9.5 -14.667 -9.5 -24s3.16699 -17.166 9.5 -23.499s14.166 -9.5 23.499 -9.5s17.333 3.16699 24 9.5s10 14.166 10 23.499z" />
    </font>
</defs>
</svg>
